<svg id="Layer_1" data-name="Layer 1" xmlns="http://www.w3.org/2000/svg" viewBox="0 0 400 400"><defs><style>.cls-1{fill:#794c84;}.cls-2{fill:#fff;}.cls-3{fill:#f7c548;}.cls-4{fill:#ed7ed9;}</style></defs><title>Artboard 1 copy 9</title><g id="ssUOSp"><path class="cls-1" d="M312.15,197a74.9,74.9,0,0,1-4.91,18.79c-1.83,4.88-3.65,9.77-5.42,14.68-1.56,4.3-3.36,8.55-4.51,13-1.58,6.07-2.59,12.29-4,18.42-1,4.32-2.29,8.57-3.15,12.92a37.22,37.22,0,0,0-.4,7.4A44.54,44.54,0,0,0,292,295.43c1.52,4.73,2.34,9.57,1.21,14.8s-.8,10.53-1.21,15.81c-.44,5.81,1.08,11.3,2.65,16.76.87,3,2.19,5.88,3.28,8.81.22.59.36,1.21.53,1.81-2.73-.8-5.19-.85-7,1.9a9.07,9.07,0,0,1-2.3,1.73c-3.5-4.21-5.37-9.28-7-14.34-3.19-9.75-6.91-19.37-8.67-29.54-1-5.86-1.87-11.77-2.31-17.69-.56-7.37-.69-14.78-.84-22.17-.07-3.06.29-6.13.46-9.27-.4,0-.62-.07-.75,0a27.33,27.33,0,0,0-11,13.46c-1.5,3.83-6.83,13.91-5.72,22.2.56,4.2-.71,10.61-2.58,13.66-4.28,7-7.26,14.45-7.3,22.7,0,5.14.73,10.27,1.2,15.4.23,2.54.6,5.06.91,7.59-.41-.41-.82-.83-1.24-1.22a4.42,4.42,0,0,0-6-.36c-1.35,1.22-2.57,2.57-3.84,3.86a9,9,0,0,1-2.21-5.31c-.6-5.95-1.84-11.87-2.13-17.83-.42-8.41-.42-16.86-.22-25.28a98.89,98.89,0,0,1,3.95-23.75q3.39-12.39,6.73-24.8a2.56,2.56,0,0,0,0-.56c-4,.34-7.91.68-11.85,1-1.16.11-2.32.3-3.48.39-5,.4-10,.82-15,1.13a55.49,55.49,0,0,1-5.62-.13,5.13,5.13,0,0,0-4.08,2c-2.88,3-5.66,6.18-8.81,8.89-1.93,1.66-4.46,2.66-6.78,3.84-3.3,1.69-6.67,3.24-10,4.88-2.51,1.25-3.31,3.8-3.61,6.13-.43,3.37-1,6.85.41,10.27.53,1.23,0,2.87.27,4.25.65,3.26,1.41,6.5,2.31,9.7,1.38,5,3.12,9.83,4.33,14.84,1,4.05,3.44,7.15,5.61,10.48,1.06,1.64,2,3.36,3.23,4.91,1.37,1.76,2.91,3.39,4.44,5,1,1.05,2.06,2,3.1,3-2.72,1.59-6.19,1.57-8.51,4-4.78-2.05-7.91-6-11.34-9.66-4.73-5.07-7.62-11.22-10.73-17.26-1.58-3.07-3.45-6-4.77-9.18a74.91,74.91,0,0,1-3-9.55c-1.89-7.28-3.83-14.55-5.39-21.91-.47-2.17.1-4.63.52-6.91.45-2.46,2.12-3.81,4.57-4.57a9,9,0,0,0,6.12-6.42c.5-1.68.55-3.29-1.72-3.89-4.34,2.5-8.67,5.2-13.18,7.55-3.95,2.05-8.07,3.82-12.2,5.52a40,40,0,0,1-6.86,2c-5.48,1.15-8,5.38-10.16,9.8-2.08,4.25-2.15,9.07-3,13.66-.75,4.17-1.6,8.34-2.11,12.54a61,61,0,0,0-.68,11.9c.36,4.79,1.53,9.52,2.42,14.26a23.66,23.66,0,0,0,1.25,4.54c.92,2.28,2,4.48,3.1,6.69,1.14,2.37,2.32,4.72,3.48,7.08a4,4,0,0,0-.69-.67c-1.4-.84-2.76-2.16-4.26-2.36a17.27,17.27,0,0,0-5.92.74,3.58,3.58,0,0,0-1.88,1.67c-.43.75-.68,1.07-1.38.4-.87-1.9-1.67-3.82-2.6-5.68-2.83-5.65-3.83-11.81-5-17.9a164.44,164.44,0,0,1-2.8-40.89c.38-6.18.8-12.37,1.32-18.55a12.49,12.49,0,0,1,4-8.53,6.15,6.15,0,0,1,3.32-1.41c3.18-.31,5.58-1.76,6.81-4.62a84.87,84.87,0,0,0,4.75-12.76c.6-2.42-.25-5.22-.57-7.84-.2-1.68-.74-3.33-.91-5-.37-3.71-.35-7.47-.94-11.14-1.36-8.47-1.12-17-1.08-25.49a131.63,131.63,0,0,1,4-30.66c.39-1.58.61-3.21,1-4.8s-1-1.52-1.79-1.73c-4.41-1.11-8.9-1.94-13.24-3.25-5.57-1.68-10.79-4.08-14.22-9.17a20.61,20.61,0,0,1-1.85-2.29c-.77-1.6-1.75-3.29-1.85-5-.26-4.58-.15-9.18-.09-13.77a12.5,12.5,0,0,1,.66-3.62c1.57-4.88,3.26-9.71,4.81-14.6a10.23,10.23,0,0,0,.12-3,49.24,49.24,0,0,1-.1-5.69c.57-5.42-2.54-8.81-6.27-11.91a10.89,10.89,0,0,1-1.56-1.16c-1.64-2-3.86-2.78-6.33-3.11a9.88,9.88,0,0,1-1.84-.6c6.13-1.93,7.27-3.24,7.45-8.64,3.56,1.4,7.17,2.71,10.67,4.24,2.2,1,4.16,2.5,6.39,3.36a15,15,0,0,1,7.8,6.91,42.16,42.16,0,0,1,4.08,12c1.08,5.62,0,11.32-.84,17-.73,4.83-1.65,9.64-2.12,14.5-.36,3.64,1.77,6.07,4.83,7.87,3.64,2.14,7.16,4.47,10.29,6.44,2.89-1.86,5.33-3.86,8.1-5.12,7.39-3.33,15.34-4.11,23.33-4.63,6.19-.41,12.37-1.06,18.55-1.58,3.19-.28,6.38-.56,9.58-.74,4.18-.24,8.37-.29,12.54-.6,3.7-.27,7.37-.83,11.07-1.16,3.38-.3,6.78-.45,10.18-.66-.13.3-.24.6-.38.89-2,4.34-1.54,6.61,1.69,10.11,2.56,2.79,5.81,3.68,9.33,3.86a59.39,59.39,0,0,0,6.43-.32c-3.35,6.54-4.43,12.92,1.32,18.78,6.26,6.37,13.34,5.12,20.86,1.83-.23,1.2-.38,2-.55,2.82a9.45,9.45,0,0,0,5.41,11,33.57,33.57,0,0,0,5.78,1.85,18.45,18.45,0,0,0,13.87-1.69l2.87-1.55a36.51,36.51,0,0,0,0,4.6,16.29,16.29,0,0,0,1.19,5.05c2.74,5.5,11.55,7.33,16,5.82A33.45,33.45,0,0,0,312.15,197ZM207.3,151.31c-1.49.21-3,.34-4.47.63-1.84.36-2.7,2.17-1.47,3.53a5.94,5.94,0,0,0,3.48,1.64,18.63,18.63,0,0,0,4.66-.5c1.86-.3,2.55-1.83,1.68-3.53S208.88,151.32,207.3,151.31ZM132.69,256c0-1.74-.8-2.6-2.42-2.64a2.47,2.47,0,0,0-2.65,2.49c.07,1.48,1.54,3.15,2.8,3C132.06,258.69,132.7,257.58,132.69,256ZM105,161a2.06,2.06,0,0,0,2-2.2,3,3,0,0,0-2.67-2.88,2.77,2.77,0,0,0-2.79,2.45C101.53,159.77,102.81,160.89,105,161Zm22.51,113.39a2.83,2.83,0,0,0-2.57-2.71,2.52,2.52,0,0,0-2.51,2.67,2.59,2.59,0,0,0,2.42,2.62C126.13,277.13,127.52,275.68,127.55,274.34ZM105.17,105.83a2.48,2.48,0,0,0-2.61-2.75c-1.51,0-2.5.63-2.56,2.27a2.7,2.7,0,0,0,2.87,2.79A2.1,2.1,0,0,0,105.17,105.83Zm38.1,164.59a2.89,2.89,0,0,0-2.42-3.11,2.71,2.71,0,0,0-2.64,2.56c0,1.33,1.24,2.82,2.51,2.7A2.59,2.59,0,0,0,143.27,270.42Zm-16-33.12a2.58,2.58,0,0,0-2.34,2.34,2.68,2.68,0,0,0,2.67,2.74,2.57,2.57,0,0,0,2.57-2.44C130.37,238.7,128.94,237.33,127.27,237.3Zm20.4,15a2.55,2.55,0,0,0-2.25,2.46,2.66,2.66,0,0,0,2.63,2.61,2.57,2.57,0,0,0,2.59-2.47C150.83,253.61,149.35,252.25,147.67,252.27Zm-36.74,30.27c1.38,0,2.87-1.3,2.71-2.57a2.56,2.56,0,0,0-2.53-2.52,2.79,2.79,0,0,0-2.73,2.55A2.84,2.84,0,0,0,110.93,282.54Zm27.26-57.76c0-2.05-1-3.17-2.61-3.24a2.13,2.13,0,0,0-2.37,2.06c-.21,1.3,1.27,2.67,2.71,2.72S138.13,225.78,138.19,224.78Zm-33.43-78.89a2.32,2.32,0,0,0-2.29-2.58,2.38,2.38,0,0,0-2.39,2.53,2.28,2.28,0,0,0,2.45,2.28C103.87,148.06,104.88,147.32,104.76,145.89Zm-11.68-4.25a2.38,2.38,0,0,0,2.51-2.21,2.35,2.35,0,0,0-2.43-2.5,2.18,2.18,0,0,0-2.39,2.29A2.23,2.23,0,0,0,93.08,141.64Zm61.34,64.92c-.15-1.53-.91-2.38-2.42-2.31a2.33,2.33,0,0,0,.13,4.66A2.21,2.21,0,0,0,154.42,206.56Zm43.42,38.6a2.23,2.23,0,0,0-2.37,2.41,2.13,2.13,0,0,0,2.41,2.27,2.35,2.35,0,0,0,0-4.68ZM98.92,92.87c-.12-1.55-.86-2.43-2.38-2.37a2.15,2.15,0,0,0-2.23,2.44,2.12,2.12,0,0,0,2.27,2.21A2.21,2.21,0,0,0,98.92,92.87Zm39.75,98.93c-.06-1.57-.74-2.5-2.27-2.51a2.15,2.15,0,0,0-2.33,2.35,2.12,2.12,0,0,0,2.17,2.31A2.21,2.21,0,0,0,138.67,191.8Zm15.83-9.22c.16,1.43.89,2.36,2.39,2.32a2.11,2.11,0,0,0,2.21-2.26,2.06,2.06,0,0,0-2.22-2.4C155.37,180.23,154.66,181.15,154.5,182.58ZM96.76,123.14a2.24,2.24,0,0,0-2.45,2.34,2.29,2.29,0,1,0,2.45-2.34Zm8.78,12.59c1.88-.46,2.67-1.37,2.6-2.65a2,2,0,0,0-2.36-2.07c-1.4.11-2.36,1-2.1,2.26C103.87,134.18,104.89,134.92,105.54,135.73Zm12.2,17.93c.05-2-.91-2.82-2.16-2.82a2,2,0,0,0-2.19,2.25,2.07,2.07,0,0,0,2.17,2.27A2,2,0,0,0,117.74,153.66Zm-7.87-31.78a2.13,2.13,0,0,0-2.19-2.28,1.89,1.89,0,0,0-2.19,2.13,1.93,1.93,0,0,0,2.09,2.24C109.11,124,109.65,123.16,109.87,121.88Z"/><path class="cls-1" d="M310.58,82c-.56,5.25-1,10.51-1.74,15.73-.55,3.93-1.54,7.78-2.26,11.68-.08.42.37,1.32.57,1.32.86,0,2,0,2.53-.47a33,33,0,0,0,6.5-9.93c.64-1.36,1.39-2.66,2.09-4l8.88.28c-3,6.57-6.62,12.73-11.87,18,2.08,1.11,4.17,2.23,6.25,3.36,4,2.16,9.08,8.14,12.65,13a71.73,71.73,0,0,1,7.75,14.09c1.69,3.86,1.65,8.45,1.69,10.7a4.89,4.89,0,0,1-1.33,3.24,10.74,10.74,0,0,1-7.68,3.39c-2.71,0-5.42.56-8.14.67-3.24.13-6.49,0-9.69,0,1.4,7.82-1,14.71-2.32,21.72-.48.31-1.18.5-1.43.94-1.26,2.2-2.2,4.61-3.66,6.66a15.27,15.27,0,0,1-4.18,3.64c-2.64,1.71-5.7,1.43-8.61,1.07a6.85,6.85,0,0,1-5.95-7.32c.28-3,.58-6.1,2.4-8.79.47-.68.16-1.88.2-2.85-1,0-2.17-.26-2.91.19a77.19,77.19,0,0,0-8.17,5.43c-5.11,4-14.68,2.82-18.57-1.21a7.12,7.12,0,0,1-1-9.1,47.94,47.94,0,0,0,2.79-4.93,5.81,5.81,0,0,0,.05-2.25c-.76.11-1.79-.06-2.25.38-3.46,3.25-7.81,4.68-12.14,6.18a8.8,8.8,0,0,1-9-1.54c-4.36-3.54-6.36-8.72-3.15-13.81a32.26,32.26,0,0,1,4.52-5.8,4.47,4.47,0,0,0,1.44-4.67,49.55,49.55,0,0,1-18,2c-2.1-.14-5.33-2.58-5.13-4,.27-2,.58-4.18,1.65-5.76,1.94-2.83,4.49-5.24,6.72-7.89.94-1.12,1.72-2.38,2.57-3.58v0l.67-.65a95,95,0,0,1,12-6c7.7-3.07,15.62-4.81,23.64-6.46l8.82-1.81c-6.07-6.06-11.7-11.88-11.58-20.74L274,90.06c.82,2.81,1.1,6,2.56,8.37,3.18,5.25,7.47,9.48,13.89,11.11,0-.32.07-.57,0-.65-3.67-3.44-2.9-8.09-3.19-12.36-.42-6.06-.48-12.15-.56-18.23-.05-3.59.07-7.18.3-10.77q.61-9.7,1.47-19.39c.22-2.46.39-5.09,2.4-6.86A4.57,4.57,0,0,1,294,40.15a2.93,2.93,0,0,1,2.46,3.11,16.19,16.19,0,0,1-.23,2c-.44,4.74-.93,9.48-1.3,14.23-.51,6.58-1,13.16-1.37,19.75-.19,3.58-.15,7.19,0,10.78.13,4,.39,7.93.75,11.88.21,2.45,3.32,5.63,6,6.27.54-4.14,1.16-8.25,1.6-12.38.49-4.68.82-9.37,1.22-14Zm-7.76,102.79a3.24,3.24,0,0,0-3.24,2.82A2.49,2.49,0,0,0,302,190.4a3,3,0,0,0,3.36-2.32A3.17,3.17,0,0,0,302.82,184.83Zm-72.31-40a2.56,2.56,0,1,0-.09-5.12,2.39,2.39,0,0,0-2.46,2.49A2.55,2.55,0,0,0,230.51,144.8Zm87.61,8.63a2.53,2.53,0,0,0-2.55-2.69,2.47,2.47,0,0,0-2.6,2.58c0,1.5,1.17,2.48,2.89,2.52C317.42,155.88,318.18,155.16,318.12,153.43Zm-69.37,12.92a2.47,2.47,0,0,0,2.53-2.43,2.31,2.31,0,0,0-2.33-2.41,2.23,2.23,0,0,0-2.48,2.21A2.39,2.39,0,0,0,248.75,166.35Zm21-24.32a2.28,2.28,0,0,0,2.22-2.29c.11-1.28-1.35-2.4-3-2.43a2.1,2.1,0,0,0-2.42,2.19C266.5,140.77,268,142,269.76,142Zm3.52,32a2.43,2.43,0,0,0-2.36,2.58,2.28,2.28,0,0,0,2.45,2.27,2.34,2.34,0,0,0,2.39-2.37A2.47,2.47,0,0,0,273.28,174Zm32.87-24.1c1.42-.25,2.49-.95,2.44-2.53a2.14,2.14,0,0,0-2.44-2.2,2.29,2.29,0,0,0-2.48,2.45C303.65,149.09,304.71,149.77,306.15,149.91Zm-38,2c.06-1.83-.6-2.71-2-2.78a2,2,0,0,0-2.33,2.25,1.83,1.83,0,0,0,2,2.07C267.18,153.54,268,153,268.1,152Zm29.59,4.62c-1.18.2-2.09.69-2.07,2.22a1.94,1.94,0,0,0,2.22,2.13,1.92,1.92,0,0,0,2.17-2.16C300,157.24,299.13,156.72,297.69,156.57Z"/><path class="cls-1" d="M351.62,56.19c-1.37,7.32-4,14-10.61,18.16a17.12,17.12,0,0,1-6.06,2,2.48,2.48,0,0,0-2.33,2.27c-1,4-2.08,8.06-3.17,12.07a9.4,9.4,0,0,1-.83,1.76l-8.44-.24c1.23-3.75,2.58-7.47,3.67-11.26.64-2.24.87-4.6,1.31-6.89a106.91,106.91,0,0,0,2.43-21,54.21,54.21,0,0,1,1.17-9.7,4,4,0,0,1,4.68-3.21c2,.43,2.81,2.31,2.52,4.79-.26,2.17-.13,4.39-.2,6.59-.18,5.72-.38,11.44-.57,17.15a8.07,8.07,0,0,0,6.77-5c.78-2.48,1.45-5,2.17-7.51Z"/><path class="cls-1" d="M255.52,51.51c.08,1.57-.16,3.25.31,4.7,1,3.23,4.11,3.43,7.36,4.1.39-1.85,1.17-3.73,1.1-5.57A36.47,36.47,0,0,1,266,43.35a9.62,9.62,0,0,1,.52-1.48c.75-1.65,2.36-2.65,3.78-2,1.13.54,2,2.3,2.33,3.67s-.2,3.08-.23,4.64c-.12,6.08-.19,12.17-.3,18.25,0,1.81-.12,3.62-.18,5.44l-7.76,1.2V68.59c-5.56-.12-11.4.18-14.85-5.74-1.86-3.19-3.19-6.44-1.91-10.19Z"/><path class="cls-1" d="M304.64,61.67c0-1.79,0-3.6.15-5.37.42-3.88.78-7.78,1.55-11.59a16.47,16.47,0,0,1,2.58-5.6,3.5,3.5,0,0,1,2.94-1.23,3.15,3.15,0,0,1,1.81,2.38,54.08,54.08,0,0,1-.18,7.74c-.13,1.74-.68,3.45-.83,5.19-.26,3-.36,6-.53,9Z"/><path class="cls-1" d="M303.94,77.5c.17-3,.35-6,.49-8.94,0-.89-.05-1.79-.08-2.68l7.75.53q-.37,5.73-.74,11.48Z"/><path class="cls-1" d="M265.58,88c-.34-3.54-.69-7.09-1-10.64a8.73,8.73,0,0,1,1.88-.5c1.95-.07,3.88-1.5,5.84-.07.37,3,.75,6.09,1.13,9.14Z"/><path class="cls-1" d="M347.26,39.61a32.93,32.93,0,0,1,1.25-5.84,4.25,4.25,0,0,1,5.12-2.26c1.4.44,2.82,2.38,2.58,3.79-.27,1.59-.74,3.15-1.13,4.73Z"/><path class="cls-1" d="M344.94,51.93q.84-4,1.66-8l7.89.33c-.59,2.57-1.17,5.13-1.75,7.7Z"/><path class="cls-1" d="M248.48,48a41.31,41.31,0,0,1,1.18-5.23,2.83,2.83,0,0,1,3.62-1.88,4.75,4.75,0,0,1,2.87,2.41c.43,1.41,0,3.1-.14,4.68a9,9,0,0,0-2.54-.6C251.8,47.48,250.15,47.81,248.48,48Z"/><path class="cls-2" d="M293.21,125.79a39.52,39.52,0,0,1,11,1.46c4.39,1.15,7.44,3.15,9.57,6.08,1,1.36.81,3.92-7.12,6.3-4.87,1.46-14,2-21-.64-9.72-3.72-5.25-9.13-4.4-9.75C286.15,125,293.18,126,293.21,125.79Z"/><path class="cls-3" d="M83.93,81.55c-.18,5.4-1.32,6.71-7.45,8.64-4.62,1-9.23,2-13.86,2.88-3.84.73-7.68,1.19-11.58.19a9.92,9.92,0,0,1-5.37-3.69c-1.65-2-.06-4.36,2-6.41a10.6,10.6,0,0,1,2.55-1.8,23.68,23.68,0,0,1,3.06-1,37.09,37.09,0,0,1-3.48-1.83c-1.35-.9-2.6-2-3.89-2.94a4.14,4.14,0,0,1-1.61-5c.84-2,2.9-2.71,5-2.89a31.61,31.61,0,0,1,4.13,0c1.34.06,2.67.27,4.51.48-.89-1.32-1.54-2.23-2.14-3.19-1.76-2.79-1.78-4.49-.1-6.18,2-2,4.67-2.1,7.35-.68,5.24,2.78,8.58,7.46,12.28,11.79,1.94,2.28,3.87,4.57,5.67,7C82.09,78.26,83,80,83.93,81.55Z"/><path class="cls-3" d="M232.66,127.84c-.85,1.2-1.63,2.46-2.57,3.58-2.23,2.65-4.78,5.06-6.72,7.89-1.07,1.58-1.38,3.78-1.65,5.76-.2,1.41,3,3.85,5.13,4a49.55,49.55,0,0,0,18-2,4.47,4.47,0,0,1-1.44,4.67,32.26,32.26,0,0,0-4.52,5.8c-3.21,5.09-1.21,10.27,3.15,13.81a8.8,8.8,0,0,0,9,1.54c4.33-1.5,8.68-2.93,12.14-6.18.46-.44,1.49-.27,2.25-.38a5.81,5.81,0,0,1-.05,2.25,47.94,47.94,0,0,1-2.79,4.93,7.12,7.12,0,0,0,1,9.1c3.89,4,13.46,5.2,18.57,1.21a77.19,77.19,0,0,1,8.17-5.43c.74-.45,1.93-.15,2.91-.19,0,1,.27,2.17-.2,2.85-1.82,2.69-2.12,5.77-2.4,8.79a6.85,6.85,0,0,0,5.95,7.32c2.91.36,6,.64,8.61-1.07a15.27,15.27,0,0,0,4.18-3.64c1.46-2.05,2.4-4.46,3.66-6.66.25-.44,1-.63,1.43-.94a29.09,29.09,0,0,1-.34,3.25c-.61,3-1.31,5.93-2,8.89a33.45,33.45,0,0,1-9.93,5.43c-4.43,1.51-13.24-.32-16-5.82a16.29,16.29,0,0,1-1.19-5.05,36.51,36.51,0,0,1,0-4.6l-2.87,1.55a18.45,18.45,0,0,1-13.87,1.69,33.57,33.57,0,0,1-5.78-1.85,9.45,9.45,0,0,1-5.41-11c.17-.81.32-1.62.55-2.82-7.52,3.29-14.6,4.54-20.86-1.83-5.75-5.86-4.67-12.24-1.32-18.78a59.39,59.39,0,0,1-6.43.32c-3.52-.18-6.77-1.07-9.33-3.86-3.23-3.5-3.72-5.77-1.69-10.11.14-.29.25-.59.38-.89,3.14-3.1,6.18-6.31,9.49-9.22C229.14,129,231.05,128.57,232.66,127.84Z"/><path class="cls-3" d="M234.43,361.34c1.27-1.29,2.49-2.64,3.84-3.86a4.42,4.42,0,0,1,6,.36c.42.39.83.81,1.24,1.22.9,1.78,1.92,3.51,2.65,5.36s-.27,3-1.89,3.72c-3,1.28-6.14,1.14-9.24.66-.72-.11-1.41-1-1.93-1.71s-.71-1.68-1.25-2.37C232.81,363.32,234.11,362.43,234.43,361.34Z"/><path class="cls-3" d="M289.1,357.05a9.07,9.07,0,0,0,2.3-1.73c1.84-2.75,4.3-2.7,7-1.9l0,0,.44.39c1.49,2.81,3,5.58,4.44,8.43.77,1.58-.52,3.35-2.64,3.31a56.29,56.29,0,0,1-8.89-.81c-.87-.15-1.75-1.33-2.25-2.25a12.93,12.93,0,0,1-1.28-3.85C288.13,358.16,288.78,357.57,289.1,357.05Z"/><path class="cls-3" d="M108.77,364.4c.7.67,1,.35,1.38-.4a3.58,3.58,0,0,1,1.88-1.67,17.27,17.27,0,0,1,5.92-.74c1.5.2,2.86,1.52,4.26,2.36a4,4,0,0,1,.69.67c.42.58.86,1.15,1.26,1.75,1.33,2,.67,3.95-1.61,4.82a10.3,10.3,0,0,1-12.45-4.13A25.38,25.38,0,0,1,108.77,364.4Z"/><path class="cls-3" d="M186.53,358.42c2.32-2.41,5.79-2.39,8.51-4,5.48.47,7,3.87,8.11,7.68.36,1.22-.12,2.35-1.53,2.41a22.66,22.66,0,0,1-6.38-.16C191.68,363.51,188.42,361.88,186.53,358.42Z"/><path class="cls-3" d="M320.18,92.16l8.44.24-1.47,4.26-8.88-.28C318.9,95,319.54,93.57,320.18,92.16Z"/><path class="cls-3" d="M265.58,88l7.82-2.07.6,4.15-7.83,2.11C266,90.77,265.78,89.38,265.58,88Z"/><path class="cls-3" d="M272.27,76.77c-2-1.43-3.89,0-5.84.07a8.73,8.73,0,0,0-1.88.5l-.42-4.24,7.76-1.2Z"/><path class="cls-3" d="M354.49,44.26l-7.89-.33.66-4.32,7.82.42C354.88,41.44,354.68,42.85,354.49,44.26Z"/><path class="cls-3" d="M344.94,51.93l7.8,0c-.37,1.41-.74,2.82-1.12,4.23l-7.49,0Z"/><path class="cls-3" d="M248.48,48c1.67-.22,3.32-.55,5-.62A9,9,0,0,1,256,48c-.07,1-.13,2.09-.2,3.14l-.31.39,0,0-8.15,1.15Z"/><path class="cls-3" d="M312.1,66.41l-7.75-.53c.1-1.41.2-2.81.29-4.21l7.49.51Z"/><path class="cls-3" d="M186.76,202.28c1.63.21,2.07,1.3,2.13,2.77a74.54,74.54,0,0,0,.54,8.61c.86,5.24,2.23,10.36,5.55,14.71a2,2,0,0,1-.08,3c-1.1,1-2.17.61-3.14-.3-2.34-2.2-3.26-5.18-4.32-8.05a44.56,44.56,0,0,1-2.8-17.94C184.72,203.59,185.09,202.5,186.76,202.28Z"/><path class="cls-3" d="M219.78,202.6c.85,0,1.34,2.65,1.39,3.6.39,7.84,4.33,14.08,9.1,19.82.91,1.09.82,3,.31,3.48a2.72,2.72,0,0,1-2.68,0,35.78,35.78,0,0,1-4.61-6.08c-3.22-5.53-5.77-11.33-5.57-17.94C217.75,204.11,218.09,203,219.78,202.6Z"/><path class="cls-3" d="M202.23,202.09c.61,0,1.29,1.88,1.52,2.57,2,5.88,3.3,11.64,5.35,17.48.51,1.44,1.69,2.63,2.34,4.05,1.18,1.52-1.36,3-2.56,1.92a15.38,15.38,0,0,1-4.91-7.38c-1.23-4.39-2.16-8.86-3.1-13.33C200.5,205.67,200.73,202.28,202.23,202.09Z"/><path class="cls-3" d="M138.39,161.49c-.47-.69,0-1.85,1.08-2.68s7.62-2.25,8.49-2a3.61,3.61,0,0,1,2.18,1.78,3.08,3.08,0,0,1-1,2.47,5.45,5.45,0,0,1-2.61,1.19C144.67,162.73,139.83,163.62,138.39,161.49Z"/><path class="cls-3" d="M186.7,152.57a19.48,19.48,0,0,1,3.9.07c.74.15,1.79.92,1.89,1.55a2.94,2.94,0,0,1-1,2.43c-2.33,1.63-8,1-9.22.2-.8-.52-1.72-1.54-1.66-2.26s1.18-1.7,2-1.91A17.33,17.33,0,0,1,186.7,152.57Z"/><path class="cls-3" d="M169.86,153.51a2.63,2.63,0,0,1,1.71,1.32,3.58,3.58,0,0,1-.26,2.32,2.24,2.24,0,0,1-1.32,1.1c-3,.84-6,2.14-8.92.18A3.13,3.13,0,0,1,159.7,156a2.86,2.86,0,0,1,2.18-1.71A39.71,39.71,0,0,1,169.86,153.51Z"/><path class="cls-3" d="M207.3,151.31c1.58,0,3,.12,3.88,1.77s.18,3.23-1.68,3.53a18.63,18.63,0,0,1-4.66.5,5.94,5.94,0,0,1-3.48-1.64c-1.23-1.36-.37-3.17,1.47-3.53C204.31,151.65,205.81,151.52,207.3,151.31Z"/><path class="cls-3" d="M240.38,315.39c-1,0-1.9-1.23-2.06-2a1.54,1.54,0,0,1,1.81-1.94,2.68,2.68,0,0,1,1.8,1.78C242,313.89,241.43,315.39,240.38,315.39Z"/><path class="cls-3" d="M287.18,307.66c1.14,0,1.7,1.4,1.8,2.18a1.54,1.54,0,0,1-2,1.77,2.69,2.69,0,0,1-1.63-1.93A2.09,2.09,0,0,1,287.18,307.66Z"/><path class="cls-3" d="M246.8,309.12c-1,0-1.64-1.27-1.79-2a1.54,1.54,0,0,1,1.84-1.92,2.68,2.68,0,0,1,1.77,1.8C248.71,307.62,247.77,309.12,246.8,309.12Z"/><path class="cls-3" d="M291.76,302.68c0,1-1.15,1.64-1.92,1.79a1.55,1.55,0,0,1-1.91-1.85,2.71,2.71,0,0,1,1.82-1.76A2.21,2.21,0,0,1,291.76,302.68Z"/><path class="cls-3" d="M244.29,299.87a2.71,2.71,0,0,1-1.75,1.83,1.54,1.54,0,0,1-1.86-1.9c.14-.77.46-2.12,1.48-2.12A2.71,2.71,0,0,1,244.29,299.87Z"/><path class="cls-3" d="M286.16,297.31c-1.14,0-1.64-1.28-1.79-2.05a1.54,1.54,0,0,1,1.85-1.91,2.68,2.68,0,0,1,1.76,1.81C288.07,295.82,287.31,297.31,286.16,297.31Z"/><path class="cls-3" d="M305.55,121.37c-.54.73-.89,1.19-1.23,1.66a2.81,2.81,0,0,1-3.42,1.13c-5.41-1.43-10.84-2.78-16.28-4.11-1.54-.38-2.67-1.1-2.2-2.81s1.93-1.84,3.37-1.47c4.54,1.14,9.07,2.3,13.57,3.59,1.34.39,2.18.34,2.92-1a2.65,2.65,0,0,1,3.7-1.22c2.9,1.32,5.82,2.63,8.64,4.11.55.29.69,1.34,1,2-.95.36-2,1.22-2.8,1C310.34,123.55,308,122.38,305.55,121.37Z"/><path class="cls-3" d="M302.82,184.83a3.17,3.17,0,0,1,2.55,3.25A3,3,0,0,1,302,190.4a2.49,2.49,0,0,1-2.43-2.75A3.24,3.24,0,0,1,302.82,184.83Z"/><path class="cls-3" d="M230.51,144.8a2.55,2.55,0,0,1-2.55-2.63,2.39,2.39,0,0,1,2.46-2.49,2.56,2.56,0,1,1,.09,5.12Z"/><path class="cls-3" d="M248.75,166.35a2.39,2.39,0,0,1-2.28-2.63,2.23,2.23,0,0,1,2.48-2.21,2.31,2.31,0,0,1,2.33,2.41A2.47,2.47,0,0,1,248.75,166.35Z"/><path class="cls-3" d="M273.28,174a2.47,2.47,0,0,1,2.48,2.48,2.34,2.34,0,0,1-2.39,2.37,2.28,2.28,0,0,1-2.45-2.27A2.43,2.43,0,0,1,273.28,174Z"/><path class="cls-3" d="M303.94,77.5l7.42.39L310.58,82l-7.4-.35C303.43,80.29,303.68,78.9,303.94,77.5Z"/><path class="cls-4" d="M306.15,149.91c-1.44-.14-2.5-.82-2.48-2.28a2.29,2.29,0,0,1,2.48-2.45,2.14,2.14,0,0,1,2.44,2.2C308.64,149,307.57,149.66,306.15,149.91Z"/><path class="cls-4" d="M268.1,152c-.06,1.06-.92,1.59-2.32,1.54a1.83,1.83,0,0,1-2-2.07,2,2,0,0,1,2.33-2.25C267.5,149.24,268.16,150.12,268.1,152Z"/><path class="cls-4" d="M283.65,151.32a1.93,1.93,0,0,1-2.19-2.16c0-1.42.76-2.42,2.07-2.26a2.36,2.36,0,0,1,2,2.21A2.26,2.26,0,0,1,283.65,151.32Z"/><path class="cls-4" d="M297.69,156.57c1.44.15,2.32.67,2.32,2.19a1.92,1.92,0,0,1-2.17,2.16,1.94,1.94,0,0,1-2.22-2.13C295.6,157.26,296.51,156.77,297.69,156.57Z"/><path class="cls-4" d="M276.32,159.51a2.3,2.3,0,0,1,2.16-2.35,2.2,2.2,0,0,1,.06,4.4C277.65,161.48,276.32,161.25,276.32,159.51Z"/><path class="cls-4" d="M269.76,142c-1.72,0-3.26-1.26-3.21-2.53a2.1,2.1,0,0,1,2.42-2.19c1.66,0,3.12,1.15,3,2.43A2.28,2.28,0,0,1,269.76,142Z"/><path class="cls-4" d="M318.12,153.43c.06,1.73-.7,2.45-2.26,2.41-1.72,0-2.86-1-2.89-2.52a2.47,2.47,0,0,1,2.6-2.58A2.53,2.53,0,0,1,318.12,153.43Z"/><path class="cls-4" d="M132.69,256c0,1.56-.63,2.67-2.27,2.86-1.26.14-2.73-1.53-2.8-3a2.47,2.47,0,0,1,2.65-2.49C131.89,253.42,132.68,254.28,132.69,256Z"/><path class="cls-4" d="M105,161c-2.23-.06-3.51-1.18-3.45-2.63a2.77,2.77,0,0,1,2.79-2.45,3,3,0,0,1,2.67,2.88A2.06,2.06,0,0,1,105,161Z"/><path class="cls-4" d="M127.55,274.34c0,1.34-1.42,2.79-2.66,2.58a2.59,2.59,0,0,1-2.42-2.62,2.52,2.52,0,0,1,2.51-2.67A2.83,2.83,0,0,1,127.55,274.34Z"/><path class="cls-4" d="M105.17,105.83a2.1,2.1,0,0,1-2.3,2.31,2.7,2.7,0,0,1-2.87-2.79c.06-1.64,1-2.28,2.56-2.27A2.48,2.48,0,0,1,105.17,105.83Z"/><path class="cls-4" d="M143.27,270.42a2.59,2.59,0,0,1-2.55,2.15c-1.27.12-2.55-1.37-2.51-2.7a2.71,2.71,0,0,1,2.64-2.56A2.89,2.89,0,0,1,143.27,270.42Z"/><path class="cls-4" d="M127.27,237.3c1.67,0,3.1,1.4,2.9,2.64a2.57,2.57,0,0,1-2.57,2.44,2.68,2.68,0,0,1-2.67-2.74A2.58,2.58,0,0,1,127.27,237.3Z"/><path class="cls-4" d="M147.67,252.27c1.68,0,3.16,1.34,3,2.6a2.57,2.57,0,0,1-2.59,2.47,2.66,2.66,0,0,1-2.63-2.61A2.55,2.55,0,0,1,147.67,252.27Z"/><path class="cls-4" d="M110.93,282.54a2.84,2.84,0,0,1-2.55-2.54,2.79,2.79,0,0,1,2.73-2.55,2.56,2.56,0,0,1,2.53,2.52C113.8,281.24,112.31,282.54,110.93,282.54Z"/><path class="cls-4" d="M138.19,224.78c-.06,1-.86,1.59-2.27,1.54s-2.92-1.42-2.71-2.72a2.13,2.13,0,0,1,2.37-2.06C137.15,221.61,138.23,222.73,138.19,224.78Z"/><path class="cls-4" d="M104.76,145.89c.12,1.43-.89,2.17-2.23,2.23a2.28,2.28,0,0,1-2.45-2.28,2.38,2.38,0,0,1,2.39-2.53A2.32,2.32,0,0,1,104.76,145.89Z"/><path class="cls-4" d="M93.08,141.64a2.23,2.23,0,0,1-2.31-2.42,2.18,2.18,0,0,1,2.39-2.29,2.35,2.35,0,0,1,2.43,2.5A2.38,2.38,0,0,1,93.08,141.64Z"/><path class="cls-4" d="M154.42,206.56a2.21,2.21,0,0,1-2.29,2.35,2.33,2.33,0,0,1-.13-4.66C153.51,204.18,154.27,205,154.42,206.56Z"/><path class="cls-4" d="M197.84,245.16a2.34,2.34,0,1,1-2.37,2.41A2.23,2.23,0,0,1,197.84,245.16Z"/><path class="cls-4" d="M98.92,92.87a2.21,2.21,0,0,1-2.34,2.28,2.12,2.12,0,0,1-2.27-2.21,2.15,2.15,0,0,1,2.23-2.44C98.06,90.44,98.8,91.32,98.92,92.87Z"/><path class="cls-4" d="M138.67,191.8a2.21,2.21,0,0,1-2.43,2.15,2.12,2.12,0,0,1-2.17-2.31,2.15,2.15,0,0,1,2.33-2.35C137.93,189.3,138.61,190.23,138.67,191.8Z"/><path class="cls-4" d="M154.5,182.58c.16-1.43.87-2.35,2.38-2.34a2.06,2.06,0,0,1,2.22,2.4,2.11,2.11,0,0,1-2.21,2.26C155.39,184.94,154.66,184,154.5,182.58Z"/><path class="cls-4" d="M96.76,123.14a2.34,2.34,0,1,1-2.45,2.34A2.24,2.24,0,0,1,96.76,123.14Z"/><path class="cls-4" d="M105.54,135.73c-.65-.81-1.67-1.55-1.86-2.46-.26-1.3.7-2.15,2.1-2.26a2,2,0,0,1,2.36,2.07C108.21,134.36,107.42,135.27,105.54,135.73Z"/><path class="cls-4" d="M117.74,153.66a2,2,0,0,1-2.18,1.7,2.07,2.07,0,0,1-2.17-2.27,2,2,0,0,1,2.19-2.25C116.83,150.84,117.79,151.62,117.74,153.66Z"/><path class="cls-4" d="M109.87,121.88c-.22,1.28-.76,2.15-2.29,2.09a1.93,1.93,0,0,1-2.09-2.24,1.89,1.89,0,0,1,2.19-2.13A2.13,2.13,0,0,1,109.87,121.88Z"/><path class="cls-4" d="M170.89,242.8a2.22,2.22,0,0,1-1.94,2.12,1.88,1.88,0,0,1-2.14-2.18,3.07,3.07,0,0,1,2.14-2A2.08,2.08,0,0,1,170.89,242.8Z"/><path class="cls-4" d="M150.42,239.28a2,2,0,0,1-2,2.1,1.88,1.88,0,0,1-2.12-2.2,3.11,3.11,0,0,1,2.16-2A1.94,1.94,0,0,1,150.42,239.28Z"/><path class="cls-4" d="M161,223.93a2,2,0,0,1-2-2,1.87,1.87,0,0,1,2.25-2.06,3.05,3.05,0,0,1,1.92,2.21A2,2,0,0,1,161,223.93Z"/><path class="cls-4" d="M182.84,349.32c-.77-.15-1.87-1.13-1.87-1.93a1.78,1.78,0,0,1,1.79-1.72c.69-.07,2.25.81,2.25,1.83S183.45,349.44,182.84,349.32Z"/><path class="cls-4" d="M165.43,321.77c-.76-.19-1.92-1-1.92-2s1.32-1.62,2-1.65,2.19.72,2.19,1.83S166,321.92,165.43,321.77Z"/><path class="cls-4" d="M171.33,278.08a1.76,1.76,0,0,1-1.74-1.76,2,2,0,0,1,1.87-1.89,2.09,2.09,0,0,1,2.07,1.82A2.22,2.22,0,0,1,171.33,278.08Z"/><path class="cls-4" d="M169.88,267.06c-.75-.13-1.86-.91-1.86-1.89a2,2,0,0,1,1.74-1.76c.69-.09,2.26.54,2.26,1.62A2.49,2.49,0,0,1,169.88,267.06Z"/><path class="cls-4" d="M113.18,348.53c0,1-1.18,1.54-1.88,1.65a1.72,1.72,0,0,1-2-2,2,2,0,0,1,3.88.39Z"/><path class="cls-4" d="M180.37,338.45c0,.94-1.6,1.95-2.15,1.83a1.84,1.84,0,0,1,0-3.66C178.82,336.51,180.37,337.51,180.37,338.45Z"/><path class="cls-4" d="M111.54,338.06c0,1.29-1.67,2-2.22,1.83a1.83,1.83,0,0,1,.07-3.66C110,336.12,111.54,336.77,111.54,338.06Z"/><path class="cls-4" d="M174.79,328.61c0,.92-1.57,2-2.12,1.83a2,2,0,0,1-1.66-1.83,2,2,0,0,1,1.77-1.83C173.34,326.68,174.79,327.7,174.79,328.61Z"/><path class="cls-4" d="M108.4,323.49c0,1.21-1.68,2-2.23,1.83-.79-.19-1.75-.63-1.75-1.83a2,2,0,0,1,1.82-1.83C106.8,321.55,108.4,322.29,108.4,323.49Z"/><path class="cls-4" d="M187.58,267.6c0,1.21-1.72,1.95-2.28,1.82-.79-.18-2.07-.72-2.07-1.85s1.32-1.64,2.11-1.8C185.9,265.65,187.58,266.38,187.58,267.6Z"/><path class="cls-4" d="M169.47,313.9a2.13,2.13,0,0,1-1.84-1.9c0-.9,1.06-1.67,1.75-1.75s2.25.67,2.25,1.64A2.58,2.58,0,0,1,169.47,313.9Z"/><path class="cls-4" d="M111.46,311.28a2.19,2.19,0,0,1-2.06,1.83,2,2,0,0,1-1.73-1.83,1.94,1.94,0,0,1,1.64-1.82C109.86,309.32,111.46,310.17,111.46,311.28Z"/><path class="cls-4" d="M163.21,288.46a2,2,0,0,1-1.91,1.83,1.84,1.84,0,0,1,0-3.66A2,2,0,0,1,163.21,288.46Z"/><path class="cls-4" d="M111.61,295a2.87,2.87,0,0,1-1.85-1.91c-.08-.51,1.07-1.67,1.76-1.75s2.25.73,2.25,1.61S112.23,295.12,111.61,295Z"/><path class="cls-4" d="M165.47,301.85c0,1.25-1.73,2-2.28,1.82a2,2,0,0,1-1.55-1.82,2.13,2.13,0,0,1,1.73-1.83C163.93,299.93,165.47,300.59,165.47,301.85Z"/><path class="cls-4" d="M106.45,300.67c0,1.11-1.73,2-2.28,1.82a2.05,2.05,0,0,1-1.66-1.82,2.13,2.13,0,0,1,1.8-1.83C104.87,298.74,106.45,299.56,106.45,300.67Z"/><path id="pupil" class="cls-1" d="M302.72,132.63a7,7,0,0,1-7.1,6.66,5.25,5.25,0,0,1-5.28-5.42c0-4.23,2.2-6.51,6.34-6.51S302.74,129.12,302.72,132.63Z"/></g></svg>