<?xml version="1.0" encoding="UTF-8"?>
<svg width="118px" height="128px" viewBox="0 0 118 128" version="1.1" xmlns="http://www.w3.org/2000/svg" xmlns:xlink="http://www.w3.org/1999/xlink">
    <!-- Generator: Sketch 52.5 (67469) - http://www.bohemiancoding.com/sketch -->
    <title>Slice 1</title>
    <desc>Created with Sketch.</desc>
    <g id="Page-1" stroke="none" stroke-width="1" fill="none" fill-rule="evenodd">
        <g id="ic_dogswift">
            <path d="M100.654545,62.3108504 C100.348894,64.7319187 99.7293367,67.1028907 98.8114956,69.3639883 C98.1245748,71.1957771 97.4414076,73.0313196 96.7770088,74.8743695 C96.191437,76.4884457 95.5157771,78.0837537 95.0841056,79.7541349 C94.4910264,82.03261 94.1119062,84.36739 93.5826393,86.6683871 C93.2072727,88.2899707 92.7230499,89.8852786 92.4002346,91.5181232 C92.2579033,92.4367268 92.2076052,93.3672422 92.250088,94.2958358 C92.27835,95.9829031 92.5618352,97.6559721 93.0909091,99.2581818 C93.6614663,101.033666 93.9692669,102.85044 93.5451026,104.813607 C93.1209384,106.776774 93.2448094,108.766217 93.0909091,110.748152 C92.9257478,112.929032 93.496305,114.989795 94.0856305,117.039296 C94.4121994,118.165396 94.9076833,119.246452 95.3168328,120.346276 C95.3994135,120.567742 95.4519648,120.800469 95.5157771,121.025689 C94.4910264,120.725396 93.5676246,120.706628 92.8882111,121.738886 C92.6368258,121.999916 92.3453765,122.219137 92.024868,122.38827 C90.711085,120.807977 90.0091496,118.904868 89.3973021,117.005513 C88.1998827,113.345689 86.8035191,109.734663 86.1428739,105.917185 C85.7675073,103.717537 85.4409384,101.49912 85.2757771,99.2769501 C85.0655718,96.5104985 85.0167742,93.7290323 84.9604692,90.9550733 C84.9341935,89.8064516 85.0693255,88.6540762 85.1331378,87.4754252 C84.9829912,87.4754252 84.9004106,87.4491496 84.8516129,87.4754252 C82.9620798,88.6653145 81.5123762,90.4392245 80.7225806,92.5278592 C80.1595308,93.9655132 78.158827,97.7492082 78.5754839,100.860997 C78.7856891,102.437537 78.3089736,104.843636 77.6070381,105.988504 C76.0004692,108.61607 74.8818768,111.412551 74.8668622,114.509326 C74.8668622,116.43871 75.1408798,118.36434 75.3173021,120.289971 C75.4036364,121.243402 75.542522,122.189326 75.6588856,123.139003 C75.5049853,122.985103 75.351085,122.827449 75.1934311,122.681056 C74.5935758,122.053921 73.6117697,121.995012 72.9412317,122.545924 C72.4344868,123.003871 71.9765396,123.510616 71.499824,123.994839 C71.0127375,123.439059 70.721331,122.738892 70.6702639,122.001642 C70.445044,119.768211 69.9795894,117.546041 69.8707331,115.308856 C69.7130792,112.152023 69.7130792,108.980176 69.7881525,105.819589 C69.917444,102.79864 70.415366,99.8048054 71.2708504,96.9046334 C72.1191789,93.8041056 72.9612512,90.7010753 73.7970674,87.5955425 C73.8047542,87.5256849 73.8047542,87.4551949 73.7970674,87.3853372 C72.2956012,87.5129619 70.8279179,87.6405865 69.3489736,87.7607038 C68.9135484,87.8019941 68.4781232,87.8733138 68.0426979,87.9070968 C66.1658651,88.0572434 64.2890323,88.2148974 62.4121994,88.331261 C61.7086399,88.3506472 61.0045499,88.3343604 60.3026393,88.2824633 C59.703108,88.2806517 59.1369385,88.5581858 58.7711437,89.0331965 C57.690088,90.1592962 56.6465689,91.3529619 55.4641642,92.3702053 C54.7397067,92.9933138 53.7900293,93.3686804 52.9191789,93.8116129 C51.6804692,94.4459824 50.4154839,95.0278006 49.1655132,95.6434018 C48.2233431,96.11261 47.9230499,97.0697947 47.8104399,97.9443988 C47.6490323,99.2093842 47.4350733,100.51566 47.9643402,101.799413 C48.1632845,102.261114 47.9643402,102.876716 48.0656891,103.394721 C48.3096774,104.618416 48.594956,105.834604 48.9327859,107.035777 C49.4507918,108.91261 50.1039296,110.72563 50.5581232,112.606217 C50.9334897,114.126452 51.8493842,115.290088 52.6639296,116.540059 C53.0618182,117.15566 53.4146628,117.80129 53.8763636,118.383109 C54.3906158,119.043754 54.9686804,119.655601 55.5429912,120.259941 C55.9183578,120.654076 56.3162463,121.010674 56.7066276,121.386041 C55.6856305,121.982874 54.3831085,121.975367 53.5122581,122.887507 C51.7180059,122.118006 50.5431085,120.635308 49.2556012,119.261466 C47.4801173,117.358358 46.3953079,115.049853 45.2279179,112.782639 C44.6348387,111.630264 43.9329032,110.53044 43.4374194,109.336774 C42.9825458,108.168302 42.6063395,106.970712 42.3113196,105.752023 C41.6018768,103.019355 40.8736657,100.29044 40.2880938,97.5277419 C40.1116716,96.7131965 40.3256305,95.7897947 40.4832845,94.9339589 C40.6521994,94.0105572 41.2790616,93.5038123 42.1987097,93.2185337 C43.3346015,92.8745408 44.2066715,91.9597222 44.4959531,90.8086804 C44.6836364,90.1780645 44.7024047,89.5737243 43.8503226,89.3485044 C42.2212317,90.2869208 40.5958944,91.3004106 38.9029912,92.182522 C37.4202933,92.9520235 35.873783,93.6164223 34.3235191,94.2545455 C33.4892963,94.581109 32.6275204,94.8323556 31.7485044,95.0052786 C29.6914956,95.4369501 28.7455718,97.0247507 27.9347801,98.683871 C27.1540176,100.279179 27.1277419,102.088446 26.8086804,103.811378 C26.5271554,105.376657 26.2080938,106.941935 26.0166569,108.518475 C25.785958,109.995526 25.7004669,111.491621 25.7614076,112.985337 C25.8965396,114.783343 26.3357185,116.558827 26.6697947,118.338065 C26.7691391,118.920309 26.9263201,119.49119 27.1390029,120.042229 C27.4843402,120.898065 27.8897361,121.723871 28.3026393,122.553431 C28.7305572,123.44305 29.1734897,124.325161 29.608915,125.211026 C29.5330099,125.117083 29.4460472,125.032641 29.349912,124.959531 C28.8243988,124.644223 28.3139003,124.148739 27.7508504,124.073666 C26.9996218,124.036642 26.2476806,124.130634 25.5286804,124.351437 C25.2253896,124.468185 24.9746826,124.690888 24.8229912,124.978299 C24.6615836,125.259824 24.5677419,125.379941 24.3049853,125.128446 C23.9784164,124.415249 23.6781232,123.694545 23.3290323,122.996364 C22.2667449,120.875543 21.8913783,118.563284 21.4521994,116.277302 C20.4631353,111.224907 20.1100513,106.06862 20.401173,100.928563 C20.5438123,98.6087977 20.7014663,96.2852786 20.8966569,93.9655132 C20.9599902,92.7431429 21.4988568,91.5940099 22.3981232,90.7636364 C22.7512928,90.4666226 23.1853723,90.2822695 23.6443402,90.2343695 C24.8380059,90.1180059 25.7388856,89.5737243 26.2005865,88.500176 C26.92223,86.9539435 27.5184786,85.3522315 27.9835777,83.7104985 C28.2087977,82.8021114 27.8897361,81.751085 27.7696188,80.7676246 C27.6945455,80.1370088 27.4918475,79.517654 27.4280352,78.8907918 C27.2891496,77.4981818 27.2966569,76.0868035 27.0751906,74.7092082 C26.5646921,71.5298534 26.6547801,68.3279765 26.6697947,65.1411144 C26.7164146,61.2592034 27.2203794,57.3963135 28.171261,53.6323754 C28.317654,53.0392962 28.4002346,52.4274487 28.5466276,51.8306158 C28.6930205,51.233783 28.171261,51.2600587 27.8747214,51.1812317 C26.2193548,50.7645748 24.5339589,50.4530205 22.904868,49.9612903 C20.8140762,49.3306745 18.8546628,48.4297947 17.5671554,46.5191789 C17.3154853,46.2495684 17.0834174,45.962306 16.8727273,45.6595894 C16.583695,45.0590029 16.2158358,44.4246334 16.1782991,43.7827566 C16.0807038,42.0635777 16.1219941,40.3368915 16.1445161,38.6139589 C16.1596124,38.1512753 16.2430974,37.6933729 16.3922581,37.255132 C16.9815836,35.4233431 17.6159531,33.6103226 18.1977713,31.7747801 C18.2680871,31.4036716 18.2832652,31.0242194 18.2428152,30.6486804 C18.1891378,29.9380541 18.1766047,29.2249181 18.2052786,28.5128446 C18.4192375,26.4783578 17.2518475,25.2058651 15.8517302,24.0422287 C15.6439491,23.9148342 15.4479778,23.769112 15.2661584,23.6068035 C14.6505572,22.8560704 13.8172434,22.5632845 12.890088,22.4394135 C12.6530473,22.3871244 12.4217129,22.3116892 12.1994135,22.2141935 C14.5004106,21.4897361 14.9283284,20.9980059 14.9958944,18.9710264 C16.3321994,19.4965396 17.6872727,19.9882698 19.0010557,20.5625806 C19.8268622,20.9379472 20.5625806,21.5009971 21.3996481,21.8238123 C22.6542096,22.3107323 23.6928833,23.2308906 24.3275073,24.4175953 C25.0620729,25.8333086 25.5784048,27.3519319 25.8590029,28.9219941 C26.2643988,31.0315543 25.8590029,33.1711437 25.543695,35.3032258 C25.2696774,37.1162463 24.9243402,38.9217595 24.7479179,40.7460411 C24.6127859,42.1123754 25.4123167,43.0245161 26.5609384,43.700176 C27.9272727,44.5034604 29.248563,45.3780645 30.4234604,46.1175367 C31.5082698,45.4193548 32.4241642,44.6686217 33.4639296,44.1956598 C36.2378886,42.9456891 39.2220528,42.6529032 42.2212317,42.4577126 C44.5447507,42.3038123 46.8645161,42.059824 49.1842815,41.8646334 C50.3817009,41.7595308 51.5791202,41.6544282 52.7802933,41.5868622 C54.3493255,41.4967742 55.9221114,41.4780059 57.48739,41.3616422 C58.8762463,41.2602933 60.2538416,41.050088 61.6426979,40.926217 C62.911437,40.813607 64.1876833,40.7573021 65.4639296,40.6784751 C65.415132,40.791085 65.3738416,40.903695 65.3212903,41.0125513 C64.5705572,42.6416422 64.7432258,43.4937243 65.9556598,44.8075073 C66.9165982,45.8547801 68.1365396,46.1888563 69.4578299,46.2564223 C70.2639456,46.2600511 71.0696648,46.2199531 71.871437,46.136305 C70.6139589,48.5912023 70.208563,50.9860411 72.3669208,53.1856891 C74.7167155,55.5767742 77.3743109,55.107566 80.1970674,53.87261 C80.1107331,54.3230499 80.0544282,54.6233431 79.9906158,54.9311437 C79.561956,56.6193998 80.4224865,58.3690922 82.021349,59.060176 C82.7221057,59.3566826 83.4482785,59.5891082 84.1909677,59.7546041 C85.942466,60.233883 87.8121373,60.0060715 89.3973021,59.1202346 L90.4746041,58.5384164 C90.4383097,59.1134063 90.4383097,59.6901127 90.4746041,60.2651026 C90.5212733,60.9167757 90.6720811,61.556758 90.9212903,62.1607038 C91.9497947,64.2252199 95.2567742,64.9121408 96.9271554,64.3453372 C98.2761172,63.8837197 99.5366035,63.1957202 100.654545,62.3108504 Z M61.2973607,45.1603519 C60.7380645,45.2391789 60.171261,45.2879765 59.6194721,45.3968328 C58.9287977,45.5319648 58.6059824,46.2113783 59.0676833,46.7218768 C59.422763,47.0663026 59.8823003,47.2828662 60.3739589,47.337478 C60.9626042,47.3488001 61.5503231,47.2857402 62.1231672,47.1497947 C62.821349,47.0371848 63.0803519,46.4628739 62.753783,45.8247507 C62.4272141,45.1866276 61.8904399,45.1641056 61.2973607,45.1603519 Z M33.291261,84.457478 C33.291261,83.8043402 32.9909677,83.4815249 32.3828739,83.4665103 C32.1241844,83.447593 31.8693988,83.5379039 31.6803716,83.7155182 C31.4913443,83.8931325 31.3853615,84.1418077 31.3881525,84.401173 C31.4144282,84.9567155 31.966217,85.5835777 32.4391789,85.5272727 C33.0547801,85.4672141 33.2950147,85.0505572 33.291261,84.457478 Z M22.8973607,48.797654 C23.1079417,48.7920105 23.307105,48.7006973 23.4488079,48.544824 C23.5905109,48.3889508 23.6624859,48.1820119 23.6480938,47.9718475 C23.6290681,47.4125138 23.2021618,46.9520306 22.6458651,46.8907918 C22.1125759,46.8833761 21.6601542,47.280664 21.5985924,47.8104399 C21.5948387,48.3359531 22.0753079,48.7563636 22.8973607,48.797654 Z M31.3468622,91.3604692 C31.3264551,90.8272121 30.9135965,90.3918632 30.3821701,90.3432258 C30.1218807,90.3437971 29.8733287,90.4515998 29.6950459,90.6412472 C29.5167631,90.8308947 29.4245059,91.0856261 29.44,91.3454545 C29.4328951,91.8627527 29.8321526,92.2950066 30.3483871,92.328915 C30.8288563,92.3889736 31.3506158,91.8446921 31.3618768,91.3417009 L31.3468622,91.3604692 Z M22.961173,28.0886804 C22.9915108,27.8160283 22.9000414,27.5438766 22.7111887,27.3448938 C22.5223359,27.145911 22.2553303,27.0403592 21.9814663,27.0564223 C21.4146628,27.0564223 21.0430499,27.2929032 21.0205279,27.9085044 C21.0104079,28.1945469 21.121709,28.471532 21.3269383,28.6710406 C21.5321675,28.8705492 21.8121877,28.9739774 22.0978299,28.9557771 C22.3340015,28.9796992 22.5683783,28.8959175 22.7358669,28.7277008 C22.9033554,28.559484 22.9861195,28.324746 22.961173,28.0886804 Z M37.2626393,89.8702639 C37.3132073,89.303019 36.9165313,88.7932411 36.3542522,88.7028739 C35.8238897,88.7157727 35.3924922,89.1340976 35.3632845,89.6638123 C35.3632845,90.1630499 35.828739,90.722346 36.3054545,90.6773021 C36.7783259,90.6768726 37.1823061,90.3362619 37.2626393,89.8702639 Z M31.2567742,77.4381232 C30.7900455,77.4798513 30.4201446,77.8497522 30.3784164,78.3164809 C30.3723677,78.5865148 30.4751622,78.8476375 30.6636659,79.0410832 C30.8521695,79.234529 31.1105452,79.3440452 31.3806452,79.3449853 C31.8949407,79.3456437 32.3193227,78.9427285 32.3453372,78.4290909 C32.4204106,77.9636364 31.8836364,77.4493842 31.2567742,77.4381232 Z M38.9142522,83.0686217 C38.4426441,83.1242988 38.0831628,83.5173317 38.0696774,83.9920235 C38.0797916,84.5317717 38.5170818,84.9657365 39.0568915,84.9717302 C39.5782605,84.9761818 40.0088224,84.5655687 40.0290909,84.0445748 C40.1004106,83.5603519 39.544868,83.0498534 38.9142522,83.0573607 L38.9142522,83.0686217 Z M25.1232845,94.4309677 C25.6412903,94.4309677 26.2005865,93.9429912 26.1405279,93.4662757 C26.1324293,92.9457896 25.7113645,92.5263891 25.1908504,92.5203519 C24.6545461,92.5299063 24.2121556,92.9431281 24.1660997,93.4775367 C24.2223395,93.9783691 24.6216255,94.3713917 25.1232845,94.4197067 L25.1232845,94.4309677 Z M35.3557771,72.7497947 C35.3557771,71.9802933 34.9804106,71.5598827 34.3760704,71.533607 C34.1534057,71.5082778 33.9303319,71.5775597 33.7611936,71.7245745 C33.5920552,71.8715893 33.4923804,72.0828399 33.4864516,72.3068622 C33.4076246,72.7948387 33.9631672,73.3090909 34.503695,73.3278592 C35.0442229,73.3466276 35.3332551,73.1139003 35.3557771,72.7385337 L35.3557771,72.7497947 Z M22.8072727,43.1371261 C22.8349541,42.8917274 22.7571445,42.6461153 22.5932098,42.4614203 C22.4292752,42.2767254 22.1946329,42.1703174 21.9476833,42.1686804 C21.700009,42.167147 21.4628133,42.2685036 21.2927301,42.4485498 C21.122647,42.628596 21.0349424,42.8711714 21.0505572,43.1183578 C21.0498933,43.3568409 21.1487672,43.5847853 21.323349,43.7472533 C21.4979308,43.9097213 21.7323851,43.9919762 21.9702053,43.9741935 C22.4731965,43.9404106 22.8523167,43.6626393 22.8072727,43.1258651 L22.8072727,43.1371261 Z M18.4229912,41.5418182 C18.9111431,41.569718 19.331033,41.2000141 19.3651613,40.7122581 C19.3812415,40.4634029 19.2912382,40.2193687 19.1174253,40.0405488 C18.9436124,39.8617289 18.7022319,39.7648333 18.4530205,39.7738416 C18.2153196,39.7504685 17.9792713,39.8321154 17.8068114,39.9973595 C17.6343515,40.1626035 17.5426961,40.3949488 17.5558944,40.6334311 C17.5386302,40.8709627 17.6233631,41.1046026 17.7888759,41.2758475 C17.9543888,41.4470924 18.1850096,41.5397275 18.4229912,41.5305572 L18.4229912,41.5418182 Z M41.4479765,65.9106158 C41.3916716,65.336305 41.106393,65.0172434 40.5395894,65.0435191 C40.056559,65.0569942 39.6759091,65.4594915 39.6893842,65.942522 C39.7028593,66.4255525 40.1053566,66.8062023 40.5883871,66.7927273 C40.825085,66.8020181 41.0544641,66.7096775 41.2187051,66.5389816 C41.3829462,66.3682857 41.4663804,66.135519 41.4479765,65.8993548 L41.4479765,65.9106158 Z M57.746393,80.3997654 C57.5031905,80.3836243 57.2650314,80.4742883 57.0941312,80.6480729 C56.923231,80.8218575 56.8365653,81.0615005 56.8567742,81.3043988 C56.8387347,81.5449541 56.9302701,81.7807949 57.1058702,81.9461941 C57.2814702,82.1115933 57.5223608,82.1888675 57.7614076,82.1564809 C58.2151495,82.1144877 58.5622281,81.7338041 58.5622281,81.2781232 C58.5622281,80.8224423 58.2151495,80.4417586 57.7614076,80.3997654 L57.746393,80.3997654 Z M20.615132,23.2239296 C20.570088,22.6421114 20.2923167,22.3117889 19.7217595,22.3343109 C19.4822831,22.3231642 19.2502466,22.4190628 19.0885141,22.5960257 C18.9267817,22.7729885 18.8520964,23.0126958 18.8846921,23.2502053 C18.8744602,23.4771909 18.9617453,23.6977247 19.1245485,23.8562248 C19.2873517,24.0147248 19.510144,24.0960725 19.7367742,24.0797654 C19.9697541,24.0936248 20.1977944,24.0087006 20.3649565,23.8458247 C20.5321186,23.6829489 20.6229363,23.4571908 20.615132,23.2239296 Z M35.5359531,60.3589443 C35.5134311,59.7696188 35.2581818,59.4205279 34.683871,59.4167742 C34.4446891,59.39554 34.2084735,59.481916 34.0394083,59.6524324 C33.8703432,59.8229488 33.7859892,60.059894 33.8092669,60.2988856 C33.7888051,60.5253033 33.8661592,60.7496618 34.0218136,60.9153585 C34.177468,61.0810551 34.3965588,61.1722669 34.6238123,61.1659824 C34.8538754,61.1890563 35.0831293,61.1150661 35.2562967,60.9618521 C35.429464,60.8086382 35.5308299,60.5901048 35.5359531,60.3589443 Z M41.4780059,56.8980645 C41.5380645,57.4348387 41.8120821,57.7839296 42.375132,57.768915 C42.6017602,57.7802636 42.8223715,57.6938645 42.981018,57.5316287 C43.1396645,57.3693929 43.2211073,57.1469042 43.2046921,56.9205865 C43.2454039,56.6835853 43.1735362,56.441133 43.0102453,56.2646023 C42.8469544,56.0880715 42.6108286,55.997558 42.3713783,56.0197067 C41.8045748,56.0159531 41.5380645,56.3612903 41.4780059,56.8980645 Z M19.8043402,34.5862757 C19.5613461,34.5630964 19.3202728,34.6466592 19.1437529,34.8152537 C18.9672329,34.9838482 18.8726919,35.2208315 18.8846921,35.4646334 C18.8959714,35.9286919 19.2736496,36.2999685 19.737833,36.3033137 C20.2020165,36.306659 20.5850066,35.9408644 20.6029731,35.4770167 C20.6209396,35.013169 20.2673916,34.6188456 19.8043402,34.5862757 Z M23.1000587,39.3121408 C23.8057478,39.1394721 24.1022874,38.7978886 24.0760117,38.3174194 C24.0878604,38.0880022 23.9940186,37.8657876 23.8213159,37.7143069 C23.6486133,37.5628261 23.4160612,37.4987547 23.1901466,37.5404106 C22.6646334,37.5817009 22.3042815,37.9157771 22.4018768,38.388739 C22.4731965,38.7303226 22.8560704,39.0080938 23.1000587,39.3121408 Z M27.6795308,46.0424633 C27.6982991,45.2917302 27.3379472,44.9839296 26.868739,44.9839296 C26.6401816,44.960138 26.413316,45.0423327 26.2530387,45.2070011 C26.0927614,45.3716696 26.0167272,45.6006734 26.0466862,45.8285044 C26.0244795,46.0539423 26.1017594,46.2778462 26.2582922,46.4415925 C26.4148251,46.6053388 26.6350226,46.692621 26.8612317,46.6805865 C27.260765,46.7209676 27.6213309,46.4397923 27.6795308,46.0424633 Z M24.7253959,34.1133138 C24.7414295,33.8877173 24.661168,33.6658839 24.5044965,33.5027739 C24.3478251,33.3396638 24.1294021,33.2505381 23.9033431,33.257478 C23.6798467,33.2192102 23.4515225,33.2900808 23.2889756,33.4481743 C23.1264287,33.6062679 23.0492443,33.8325358 23.0812903,34.0570088 C23.0440368,34.2792719 23.1123407,34.5062133 23.2660841,34.670991 C23.4198275,34.8357686 23.6414982,34.9196133 23.8658065,34.8978299 C24.4401173,34.9090909 24.6428152,34.593783 24.7253959,34.1133138 Z" id="Shape" fill="#794C84" fill-rule="nonzero"></path>
            <path d="M100.06522,19.143695 C99.8550147,21.1143695 99.6898534,23.0887977 99.4120821,25.0482111 C99.2056305,26.5234018 98.8340176,27.968563 98.5637537,29.4324927 C98.5337243,29.5901466 98.7026393,29.9279765 98.7777126,29.9279765 C99.1005279,29.9279765 99.5284457,29.9279765 99.72739,29.7515543 C100.759259,28.6667504 101.585919,27.4038675 102.167273,26.0241642 C102.407507,25.5136657 102.689032,25.0256891 102.951789,24.5226979 L106.285044,24.6278006 C105.158944,27.0939589 103.800117,29.406217 101.829443,31.3843988 C102.610205,31.8010557 103.394721,32.2214663 104.175484,32.6456305 C105.67695,33.4564223 107.583812,35.7011144 108.923871,37.5253959 C110.088743,39.1737556 111.06457,40.947873 111.832962,42.8143109 C112.467331,44.2632258 112.452317,45.9861584 112.467331,46.8307331 C112.456784,47.2838633 112.278956,47.7170681 111.968094,48.0469208 C111.219591,48.8446303 110.17906,49.3039275 109.085279,49.3194135 C108.068035,49.3194135 107.050792,49.5296188 106.029795,49.5709091 C104.813607,49.6197067 103.593666,49.5709091 102.392493,49.5709091 C102.918006,52.5062757 102.017126,55.0925513 101.521642,57.723871 C101.341466,57.8402346 101.07871,57.9115543 100.984868,58.0767155 C100.511906,58.902522 100.159062,59.8071554 99.6110264,60.5766569 C99.1757463,61.1240048 98.643977,61.5870767 98.0419941,61.9429912 C97.0510264,62.584868 95.9024047,62.4797654 94.810088,62.3446334 C93.4531022,62.1689058 92.4714415,60.9612157 92.5766569,59.5969501 C92.6817595,58.4708504 92.7943695,57.3072141 93.4775367,56.297478 C93.6539589,56.0422287 93.5375953,55.5917889 93.55261,55.2276833 C93.1772434,55.2276833 92.7380645,55.130088 92.4602933,55.2990029 C91.3958628,55.912706 90.3715465,56.593494 89.3935484,57.3372434 C87.4754252,58.8387097 83.8831672,58.3957771 82.4229912,56.8830499 C81.4854343,55.9864395 81.3271471,54.5460261 82.0476246,53.4672141 C82.4328867,52.8715437 82.7825879,52.2536128 83.0948974,51.6166569 C83.1561404,51.3390461 83.1625161,51.0521395 83.1136657,50.7720821 C82.8283871,50.8133724 82.4417595,50.7495601 82.2690909,50.9147214 C80.9703226,52.1346628 79.337478,52.671437 77.7121408,53.2344868 C76.5663459,53.6867887 75.264065,53.4639539 74.3338416,52.6564223 C72.6972434,51.3276246 71.9465103,49.3832258 73.151437,47.47261 C73.6321624,46.6846073 74.2014117,45.9541547 74.8480938,45.2954839 C75.3600081,44.8700934 75.5720803,44.1823315 75.3886217,43.542522 C73.2016692,44.2057316 70.9112183,44.4602261 68.6320235,44.2932551 C67.8437537,44.2407038 66.6313196,43.3248094 66.706393,42.7917889 C66.8077419,42.0410557 66.9241056,41.2227566 67.3257478,40.6296774 C68.0539589,39.56739 69.0111437,38.6627566 69.8482111,37.6680352 C70.2010557,37.2476246 70.4938416,36.7746628 70.8129032,36.3242229 L71.0643988,36.0802346 C72.5109113,35.2242846 74.0161302,34.4716751 75.5687977,33.8280352 C78.4591202,32.6756598 81.4320235,32.022522 84.4424633,31.4031672 L87.7531965,30.7237537 C85.4747214,28.4490323 83.3614076,26.2643988 83.4064516,22.938651 L86.3343109,22.1691496 C86.6421114,23.2239296 86.7472141,24.421349 87.2952493,25.3109677 C88.488915,27.2816422 90.0992375,28.8694428 92.5090909,29.4812903 C92.5090909,29.361173 92.5353666,29.2673314 92.5090909,29.2373021 C91.1314956,27.9460411 91.4205279,26.2005865 91.3116716,24.5977713 C91.1540176,22.3230499 91.1314956,20.0370674 91.1014663,17.7548387 C91.0826979,16.4072727 91.1277419,15.0597067 91.2140762,13.7121408 C91.3667253,11.2847703 91.5506549,8.85865103 91.7658651,6.43378299 C91.8484457,5.51038123 91.9122581,4.52316716 92.6667449,3.85876833 C92.9911535,3.57475035 93.4106205,3.42331339 93.8416422,3.43460411 C94.4060003,3.52471478 94.8073023,4.03205187 94.765044,4.60199413 C94.7518674,4.85378718 94.7230336,5.10451617 94.6787097,5.35272727 C94.5135484,7.13196481 94.3296188,8.91120235 94.1907331,10.6941935 C93.9992962,13.1641056 93.8153666,15.6340176 93.6764809,18.1076833 C93.6051613,19.4514956 93.620176,20.8065689 93.6764809,22.1541349 C93.7252786,23.6556012 93.8228739,25.1307918 93.9580059,26.6134897 C94.0368328,27.5331378 95.2042229,28.7268035 96.2102053,28.9670381 C96.4129032,27.4130205 96.6456305,25.8702639 96.8107918,24.32 C96.9947214,22.5632845 97.1185924,20.8028152 97.268739,19.064868 L100.06522,19.143695 Z M97.1523754,57.7276246 C96.5377345,57.7224413 96.0158443,58.176679 95.9361877,58.7861584 C95.9043047,59.0483814 95.9848691,59.3118511 96.1579535,59.5113987 C96.3310378,59.7109464 96.5804777,59.8279362 96.8445748,59.8334311 C97.4281528,59.9181535 97.9782599,59.5383176 98.1058065,58.9625806 C98.1321948,58.3764968 97.7274704,57.8586408 97.1523754,57.7426393 L97.1523754,57.7276246 Z M70.0096188,42.7129619 C70.352929,42.7069271 70.6669412,42.518197 70.8333701,42.2178642 C70.999799,41.9175314 70.99336,41.5512238 70.8164786,41.2569258 C70.6395972,40.9626278 70.319146,40.7850503 69.9758358,40.791085 C69.7267273,40.7835626 69.4857158,40.8800032 69.3105604,41.0572946 C69.1354051,41.2345861 69.0418928,41.4767488 69.052434,41.7257478 C69.0432637,41.9854103 69.1400466,42.2376444 69.3205571,42.4245259 C69.5010676,42.6114073 69.7497944,42.7168774 70.0096188,42.7167155 L70.0096188,42.7129619 Z M102.895484,45.9523754 C102.912189,45.6889606 102.818515,45.430476 102.636929,45.2389213 C102.455344,45.0473667 102.20223,44.9400236 101.938299,44.9426393 C101.676722,44.9285752 101.421403,45.0258199 101.235459,45.2103332 C101.049516,45.3948466 100.950302,45.6494075 100.962346,45.911085 C100.962346,46.4741349 101.401525,46.8419941 102.047155,46.8570088 C102.632727,46.8757771 102.918006,46.6055132 102.895484,45.956129 L102.895484,45.9523754 Z M76.856305,50.8021114 C77.1034977,50.8081492 77.3428612,50.715196 77.5211938,50.5439122 C77.6995264,50.3726283 77.8020518,50.1372058 77.8059824,49.8899707 C77.8162935,49.6522608 77.7284709,49.4207577 77.5630896,49.2496981 C77.3977084,49.0786385 77.1693008,48.9830537 76.9313783,48.9853372 C76.6949224,48.9586597 76.4582876,49.0338796 76.2806347,49.1921912 C76.1029819,49.3505028 76.0011032,49.5769421 76.0004692,49.8148974 C75.9743167,50.0615916 76.0514828,50.3081027 76.2136306,50.4958528 C76.3757783,50.6836028 76.6084315,50.7958297 76.856305,50.8058651 L76.856305,50.8021114 Z M84.7390029,41.6731965 C85.2043118,41.6609525 85.5745193,41.2790718 85.5723167,40.813607 C85.613607,40.3331378 85.0655718,39.9127273 84.446217,39.9014663 C84.2112469,39.8648728 83.9723144,39.9363102 83.7959927,40.0958742 C83.6196709,40.2554381 83.524806,40.4860735 83.5378299,40.7235191 C83.5190616,41.2039883 84.0821114,41.6656891 84.7427566,41.6656891 L84.7390029,41.6731965 Z M86.0602933,53.6849267 C85.8128922,53.6915785 85.5788143,53.7984763 85.4117713,53.9810911 C85.2447284,54.1637058 85.1590616,54.4063595 85.1744282,54.6533724 C85.1748092,54.8912029 85.2741385,55.1181495 85.4485968,55.2797905 C85.6230551,55.4414314 85.8569075,55.5231879 86.0940762,55.5054545 C86.3322321,55.5105648 86.5622504,55.418727 86.731397,55.2509958 C86.9005437,55.0832646 86.9943112,54.8540262 86.9912023,54.6158358 C86.9942128,54.3679936 86.8978612,54.1292646 86.7236585,53.9529461 C86.5494558,53.7766275 86.3119074,53.6774011 86.0640469,53.6774194 L86.0602933,53.6849267 Z M98.3985924,44.6385924 C98.9316129,44.5447507 99.3332551,44.2819941 99.3144868,43.688915 C99.3235393,43.4509576 99.2265481,43.2212484 99.0496921,43.0617881 C98.872836,42.9023277 98.6343459,42.8295537 98.3985924,42.8631085 C98.1477041,42.8415337 97.8999729,42.9310555 97.7208332,43.1080282 C97.5416934,43.285001 97.4491633,43.5316244 97.4676833,43.7827566 C97.4639296,44.3270381 97.8618182,44.5822874 98.402346,44.6348387 L98.3985924,44.6385924 Z M84.1346628,45.3893255 C84.1571848,44.7024047 83.9094428,44.3720821 83.3839296,44.3458065 C83.1469906,44.3037152 82.9042346,44.3777619 82.7311245,44.5449284 C82.5580143,44.7120949 82.4755348,44.9521167 82.5093255,45.1903812 C82.4805702,45.3992456 82.5493233,45.6097465 82.6958201,45.7613706 C82.8423169,45.9129948 83.050329,45.9889459 83.2600587,45.96739 C83.7743109,45.9974194 84.0821114,45.7947214 84.1196481,45.4193548 L84.1346628,45.3893255 Z M95.2417595,47.1235191 C94.798827,47.1985924 94.4572434,47.382522 94.4647507,47.9568328 C94.4400251,48.1816935 94.521204,48.4052753 94.6844374,48.5618912 C94.8476708,48.718507 95.074419,48.7903687 95.2980645,48.7563636 C95.5215882,48.7878138 95.7469357,48.7127226 95.9069159,48.5534796 C96.0668961,48.3942367 96.1430274,48.1692385 96.11261,47.9455718 C96.0938416,47.3862757 95.7672727,47.191085 95.2267449,47.1347801 L95.2417595,47.1235191 Z" id="Shape" fill="#794C84" fill-rule="nonzero"></path>
            <path d="M115.470264,9.45548387 C114.956012,12.2031672 113.968798,14.7106158 111.487625,16.2721408 C110.783137,16.66274 110.011494,16.9174078 109.212903,17.0228739 C108.749793,17.0493278 108.376823,17.4126933 108.338299,17.874956 C107.962933,19.3764223 107.557537,20.9004106 107.148387,22.4056305 C107.06767,22.6360306 106.963259,22.8574317 106.836833,23.0662757 L103.668739,22.9761877 C104.13044,21.568563 104.637185,20.1721994 105.046334,18.7495601 C105.286569,17.908739 105.372903,17.0228739 105.538065,16.1632845 C106.101787,13.5723058 106.407327,10.9318344 106.450205,8.28058651 C106.486705,7.0561562 106.633695,5.83752281 106.889384,4.63953079 C106.96136,4.2461688 107.187279,3.89777017 107.517054,3.67157846 C107.846829,3.44538675 108.25321,3.3600917 108.6461,3.43460411 C109.396833,3.59601173 109.70088,4.30170088 109.592023,5.23260997 C109.494428,6.04715543 109.543226,6.88046921 109.51695,7.70627566 C109.449384,9.85337243 109.374311,12.0004692 109.302991,14.1438123 C110.43506,14.0444079 111.416259,13.3197412 111.844223,12.2669795 C112.137009,11.3360704 112.388504,10.3901466 112.658768,9.44797654 L115.470264,9.45548387 Z" id="Path" fill="#794C84"></path>
            <path d="M79.3975367,7.69876833 C79.427566,8.28809384 79.337478,8.91870968 79.5139003,9.4629912 C79.8892669,10.6754252 81.0566569,10.7504985 82.2765982,11.0019941 C82.4229912,10.307566 82.7157771,9.60187683 82.6895015,8.91120235 C82.6756511,7.4610582 82.8923113,6.01792403 83.3313783,4.63577713 C83.3812098,4.4455914 83.4464904,4.259793 83.5265689,4.0802346 C83.8080938,3.46087977 84.412434,3.0855132 84.9454545,3.32950147 C85.3696188,3.53219941 85.6961877,4.19284457 85.8200587,4.70709677 C85.9439296,5.22134897 85.7449853,5.86322581 85.7337243,6.44879765 C85.6886804,8.73102639 85.6624047,11.0170088 85.6211144,13.2992375 C85.6211144,13.978651 85.5760704,14.6580645 85.5535484,15.3412317 L82.6407038,15.7916716 L82.6407038,14.1100293 C80.5536657,14.0649853 78.3615249,14.1775953 77.0665103,11.9554252 C76.3683284,10.7580059 75.8690909,9.53806452 76.3495601,8.13043988 L79.3975367,7.69876833 Z" id="Path" fill="#794C84"></path>
            <path d="M97.8355425,11.5124927 C97.8355425,10.8405865 97.8355425,10.161173 97.8918475,9.49677419 C98.0495015,8.04035191 98.1846334,6.57642229 98.4736657,5.14627566 C98.6612785,4.3908751 98.9898502,3.67769613 99.4421114,3.04422287 C99.7145019,2.72205787 100.125036,2.55030369 100.545689,2.58252199 C100.908071,2.74700224 101.163404,3.08274347 101.225103,3.47589443 C101.27202,4.44471068 101.24944,5.41564381 101.157537,6.38123167 C101.108739,7.0343695 100.902287,7.67624633 100.845982,8.32938416 C100.748387,9.45548387 100.71085,10.5815836 100.647038,11.7076833 L97.8355425,11.5124927 Z" id="Path" fill="#794C84"></path>
            <path d="M97.5727859,17.4545455 C97.6365982,16.3284457 97.7041642,15.202346 97.7567155,14.0987683 C97.7567155,13.7646921 97.7379472,13.4268622 97.7266862,13.0927859 L100.635777,13.2917302 C100.543187,14.7256305 100.450596,16.1620332 100.358006,17.6009384 L97.5727859,17.4545455 Z" id="Path" fill="#794C84"></path>
            <path d="M83.1737243,21.3958944 C83.0460997,20.0670968 82.9147214,18.7345455 82.7983578,17.4019941 C83.0258607,17.3133378 83.2625596,17.250386 83.5040469,17.2143109 C84.2360117,17.1880352 84.9604692,16.651261 85.6961877,17.1880352 C85.8350733,18.3141349 85.9777126,19.4740176 86.1203519,20.6188856 L83.1737243,21.3958944 Z" id="Path" fill="#794C84"></path>
            <path d="M113.833666,3.23190616 C113.923347,2.48848887 114.080395,1.75475849 114.302874,1.0397654 C114.640624,0.315564737 115.462074,-0.0470284296 116.224751,0.19143695 C116.750264,0.35659824 117.283284,1.08480938 117.193196,1.61407625 C117.091848,2.21090909 116.915425,2.79648094 116.769032,3.38956012 L113.833666,3.23190616 Z" id="Path" fill="#794C84"></path>
            <path d="M112.962815,7.85642229 C113.173021,6.85544477 113.380723,5.85446725 113.585924,4.85348974 L116.547566,4.9773607 C116.3261,5.94205279 116.108387,6.9029912 115.890674,7.86768328 L112.962815,7.85642229 Z" id="Path" fill="#794C84"></path>
            <path d="M76.754956,6.38123167 C76.8599343,5.71794181 77.00789,5.062172 77.1978886,4.41806452 C77.2796669,4.14100092 77.4707559,3.90919143 77.7271251,3.77604943 C77.9834943,3.64290744 78.2830307,3.61991693 78.5567155,3.71237537 C79.0246234,3.85352615 79.4140781,4.18055954 79.6340176,4.6170088 C79.7954252,5.14627566 79.6340176,5.78064516 79.5814663,6.37372434 C79.2762871,6.25272422 78.9551004,6.17685335 78.6280352,6.1485044 C78.001173,6.18604106 77.3818182,6.30991202 76.754956,6.38123167 Z" id="Path" fill="#794C84"></path>
            <path d="M93.5451026,35.5809971 C94.9403712,35.5685791 96.3304142,35.7530757 97.6741349,36.1290323 C99.3219941,36.5607038 100.466862,37.311437 101.266393,38.411261 C101.64176,38.9217595 101.57044,39.8826979 98.593783,40.7760704 C96.7657478,41.3241056 93.338651,41.5268035 90.711085,40.5358358 C87.062522,39.1394721 88.7404106,37.108739 89.0594721,36.8760117 C90.8950147,35.2844575 93.5338416,35.659824 93.5451026,35.5809971 Z" id="Path" fill="#FFFFFF"></path>
            <path d="M14.9883871,18.9747801 C14.9208211,21.0017595 14.4929032,21.4934897 12.1919062,22.2179472 C10.4577126,22.5933138 8.72727273,22.9686804 6.98932551,23.2990029 C5.54791789,23.5730205 4.10651026,23.7456891 2.64258065,23.3703226 C1.83388852,23.1487433 1.123653,22.6607044 0.62686217,21.9852199 C0.00750733138,21.2344868 0.604340176,20.3486217 1.37759531,19.5791202 C1.66156778,19.3079011 1.98412551,19.0802133 2.33478006,18.9034604 C2.70869575,18.7524274 3.09245623,18.6270155 3.48340176,18.5280938 C3.03613776,18.3223768 2.60010003,18.0930811 2.1771261,17.841173 C1.67038123,17.5033431 1.20117302,17.0904399 0.716950147,16.7375953 C0.0935951845,16.3362389 -0.159433013,15.550437 0.112609971,14.8607625 C0.427917889,14.1100293 1.20117302,13.8435191 1.98944282,13.7759531 C2.50564494,13.7421587 3.02350462,13.7421587 3.53970674,13.7759531 C4.04269795,13.7984751 4.54193548,13.8773021 5.23260997,13.956129 C4.89853372,13.4606452 4.65454545,13.1190616 4.42932551,12.7587097 C3.76868035,11.711437 3.76117302,11.0733138 4.39178886,10.4389443 C5.14252199,9.68821114 6.14475073,9.65067449 7.15073314,10.183695 C9.11765396,11.2272141 10.3713783,12.9839296 11.7602346,14.6092669 C12.4884457,15.4651026 13.2129032,16.3246921 13.888563,17.2368328 C14.2977126,17.739824 14.6392962,18.3929619 14.9883871,18.9747801 Z" id="Path" fill="#F7C548"></path>
            <path d="M70.8166569,36.3504985 C70.4975953,36.8009384 70.2048094,37.2739003 69.8519648,37.6943109 C69.0148974,38.6890323 68.0577126,39.5936657 67.3295015,40.6559531 C66.9278592,41.2490323 66.8114956,42.0748387 66.7101466,42.8180645 C66.6350733,43.3473314 67.8362463,44.2632258 68.6357771,44.3195308 C70.9149719,44.4865018 73.2054228,44.2320072 75.3923754,43.5687977 C75.5758339,44.2086071 75.3637617,44.8963691 74.8518475,45.3217595 C74.2051653,45.9804304 73.635916,46.710883 73.1551906,47.4988856 C71.9502639,49.4095015 72.7009971,51.3539003 74.3375953,52.6826979 C75.2678187,53.4902296 76.5700995,53.7130643 77.7158944,53.2607625 C79.3412317,52.6977126 80.9740762,52.1609384 82.2728446,50.9409971 C82.4455132,50.7758358 82.8321408,50.8396481 83.1174194,50.7983578 C83.1662698,51.0784151 83.1598941,51.3653217 83.098651,51.6429326 C82.7863416,52.2798885 82.4366403,52.8978194 82.0513783,53.4934897 C81.3309008,54.5723017 81.489188,56.0127151 82.4267449,56.9093255 C83.8869208,58.4107918 87.4791789,58.8612317 89.3973021,57.3635191 C90.3753002,56.6197696 91.3996165,55.9389817 92.4640469,55.3252786 C92.7418182,55.1563636 93.1885044,55.2689736 93.5563636,55.2539589 C93.5563636,55.6293255 93.6577126,56.0685044 93.4812903,56.3237537 C92.7981232,57.3334897 92.6855132,58.4896188 92.5804106,59.6232258 C92.4751951,60.9874913 93.4568558,62.1951815 94.8138416,62.3709091 C95.9061584,62.5060411 97.0660411,62.6111437 98.0457478,61.9692669 C98.6477306,61.6133523 99.1795,61.1502805 99.6147801,60.6029326 C100.162815,59.8334311 100.51566,58.9287977 100.988622,58.1029912 C101.082463,57.9378299 101.363988,57.8665103 101.525396,57.7501466 C101.505746,58.1588638 101.463137,58.5661533 101.397771,58.970088 C101.168798,60.0961877 100.906041,61.1960117 100.647038,62.3070968 C99.5293668,63.1932954 98.268865,63.8825728 96.9196481,64.3453372 C95.2567742,64.9121408 91.9497947,64.2252199 90.913783,62.1607038 C90.6645737,61.556758 90.513766,60.9167757 90.4670968,60.2651026 C90.4308024,59.6901127 90.4308024,59.1134063 90.4670968,58.5384164 L89.3897947,59.1202346 C87.8046299,60.0060715 85.9349587,60.233883 84.1834604,59.7546041 C83.4407712,59.5891082 82.7145983,59.3566826 82.0138416,59.060176 C80.4149792,58.3690922 79.5544486,56.6193998 79.9831085,54.9311437 C80.0469208,54.6270968 80.1032258,54.3230499 80.1895601,53.87261 C77.3668035,55.107566 74.7092082,55.5767742 72.3594135,53.1856891 C70.2010557,50.9860411 70.6064516,48.5912023 71.8639296,46.136305 C71.0621574,46.2199531 70.2564383,46.2600511 69.4503226,46.2564223 C68.1290323,46.1888563 66.9090909,45.8547801 65.9481525,44.8075073 C64.7357185,43.4937243 64.5517889,42.6416422 65.313783,41.0125513 C65.3663343,40.903695 65.4076246,40.791085 65.4564223,40.6784751 C66.6350733,39.5148387 67.7761877,38.309912 69.018651,37.2175953 C69.4953666,36.7859238 70.2123167,36.6245161 70.8166569,36.3504985 Z" id="Path" fill="#F7C548"></path>
            <path d="M71.4810557,123.998592 C71.9577713,123.51437 72.4157185,123.007625 72.9224633,122.549677 C73.5930014,121.998766 74.5748075,122.057674 75.1746628,122.684809 C75.3323167,122.831202 75.486217,122.988856 75.6401173,123.142757 C75.9779472,123.810909 76.3608211,124.460293 76.6348387,125.154721 C76.9088563,125.84915 76.5334897,126.280821 75.9253959,126.551085 C74.7992962,127.031554 73.6206452,126.979003 72.4570088,126.798827 C72.1867449,126.757537 71.9277419,126.42346 71.7325513,126.15695 C71.5373607,125.89044 71.4660411,125.526334 71.2633431,125.267331 C70.8729619,124.741818 71.3609384,124.407742 71.4810557,123.998592 Z" id="Path" fill="#F7C548"></path>
            <path d="M92.002346,122.38827 C92.3228545,122.219137 92.6143038,121.999916 92.8656891,121.738886 C93.5563636,120.706628 94.4797654,120.725396 95.4932551,121.025689 L95.6584164,121.172082 C96.2177126,122.226862 96.7845161,123.266628 97.325044,124.336422 C97.6140762,124.929501 97.1298534,125.5939 96.3340762,125.578886 C95.215445,125.566036 94.0996008,125.464368 92.9970674,125.274839 C92.6704985,125.218534 92.340176,124.775601 92.1524927,124.430264 C91.9172856,123.976829 91.7551335,123.489105 91.6720235,122.985103 C91.6382405,122.804927 91.8822287,122.58346 92.002346,122.38827 Z" id="Path" fill="#F7C548"></path>
            <path d="M24.3124927,125.147214 C24.5752493,125.39871 24.6878592,125.278592 24.8304985,124.997067 C24.9821899,124.709656 25.232897,124.486954 25.5361877,124.370205 C26.2551879,124.149403 27.0071292,124.05541 27.7583578,124.092434 C28.3214076,124.167507 28.8319062,124.662991 29.3574194,124.978299 C29.4535545,125.051409 29.5405172,125.135851 29.6164223,125.229795 C29.7740762,125.447507 29.9392375,125.661466 30.0893842,125.886686 C30.5886217,126.637419 30.3408798,127.369384 29.485044,127.695953 C27.7570556,128.366132 25.7965601,127.715783 24.8117302,126.145689 C24.6259441,125.822909 24.4592455,125.489511 24.3124927,125.147214 Z" id="Path" fill="#F7C548"></path>
            <path d="M53.5009971,122.902522 C54.3718475,121.997889 55.6743695,122.005396 56.6953666,121.401056 C58.7523754,121.577478 59.3229326,122.853724 59.7395894,124.283871 C59.8747214,124.741818 59.6945455,125.165982 59.1652786,125.188504 C58.368163,125.281562 57.5618889,125.261342 56.7704399,125.128446 C55.4341349,124.813138 54.2104399,124.20129 53.5009971,122.902522 Z" id="Path" fill="#F7C548"></path>
            <path d="M103.668739,22.9574194 L106.836833,23.0475073 L106.285044,24.6465689 L102.951789,24.5414663 C103.18827,24.0234604 103.428504,23.4866862 103.668739,22.9574194 Z" id="Path" fill="#F7C548"></path>
            <path d="M83.1737243,21.3958944 L86.1090909,20.6188856 L86.3343109,22.1766569 L83.3951906,22.9686804 C83.3313783,22.4356598 83.2487977,21.9139003 83.1737243,21.3958944 Z" id="Path" fill="#F7C548"></path>
            <path d="M85.6849267,17.1805279 C84.9341935,16.6437537 84.2247507,17.1805279 83.4927859,17.2068035 C83.2512986,17.2428786 83.0145997,17.3058305 82.7870968,17.3944868 L82.6294428,15.8029326 L85.5422874,15.3524927 L85.6849267,17.1805279 Z" id="Path" fill="#F7C548"></path>
            <path d="M116.547566,4.9773607 L113.585924,4.85348974 L113.833666,3.23190616 L116.769032,3.38956012 C116.693959,3.91882698 116.618886,4.44809384 116.547566,4.9773607 Z" id="Path" fill="#F7C548"></path>
            <path d="M112.962815,7.85642229 L115.890674,7.85642229 C115.751789,8.38568915 115.612903,8.91495601 115.470264,9.44422287 L112.658768,9.44422287 L112.962815,7.85642229 Z" id="Path" fill="#F7C548"></path>
            <path d="M76.754956,6.38123167 C77.3818182,6.29865103 78.001173,6.17478006 78.6317889,6.1485044 C78.9566842,6.17997455 79.2753037,6.25836506 79.5777126,6.38123167 C79.551437,6.75659824 79.528915,7.1657478 79.5026393,7.5598827 L79.3862757,7.70627566 L76.3270381,8.13794721 L76.754956,6.38123167 Z" id="Path" fill="#F7C548"></path>
            <path d="M100.635777,13.2917302 L97.7266862,13.0927859 C97.7642229,12.5635191 97.8017595,12.0380059 97.8355425,11.5124927 L100.647038,11.7039296 L100.635777,13.2917302 Z" id="Path" fill="#F7C548"></path>
            <path d="M53.5873314,64.2927859 C54.1991789,64.3716129 54.3643402,64.7807625 54.3868622,65.3325513 C54.3919782,66.4128631 54.4596575,67.491972 54.5895601,68.5644575 C54.9123754,70.5313783 55.4266276,72.4532551 56.6728446,74.0860997 C56.8307202,74.232879 56.9178828,74.4404413 56.9121364,74.6559311 C56.90639,74.8714209 56.8082892,75.0740428 56.6428152,75.2121994 C56.229912,75.587566 55.8282698,75.441173 55.4641642,75.0995894 C54.5858065,74.273783 54.2404692,73.1551906 53.8425806,72.0778886 C53.033774,69.9291216 52.6760057,67.6368488 52.7915543,65.3438123 C52.8215836,64.7845161 52.9604692,64.3753666 53.5873314,64.2927859 Z" id="Path" fill="#F7C548"></path>
            <path d="M65.9819355,64.4129032 C66.3009971,64.4129032 66.4849267,65.4076246 66.503695,65.7642229 C66.650088,68.7070968 68.1290323,71.0493842 69.9195308,73.2039883 C70.2611144,73.6131378 70.2273314,74.330088 70.0358944,74.5102639 C69.7238345,74.6869247 69.3419719,74.6869247 69.029912,74.5102639 C68.3734013,73.8133743 67.7932903,73.0482822 67.2994721,72.2280352 C66.0907918,70.1522581 65.133607,67.975132 65.2086804,65.4939589 C65.2199413,64.9797067 65.347566,64.5630499 65.9819355,64.4129032 Z" id="Path" fill="#F7C548"></path>
            <path d="M59.3942522,64.2214663 C59.6232258,64.2214663 59.8784751,64.9271554 59.9648094,65.1861584 C60.7155425,67.3933138 61.2035191,69.5554252 61.9730205,71.747566 C62.1644575,72.2880938 62.60739,72.7347801 62.8513783,73.2678006 C63.2943109,73.8383578 62.3408798,74.3939003 61.8904399,73.9885044 C61.0175398,73.2659865 60.3765639,72.3025645 60.04739,71.2182991 C59.5856891,69.5704399 59.2365982,67.8925513 58.8837537,66.2146628 C58.744868,65.5652786 58.8312023,64.2927859 59.3942522,64.2214663 Z" id="Path" fill="#F7C548"></path>
            <path d="M35.4308504,48.9815836 C35.2544282,48.7225806 35.4308504,48.2871554 35.8362463,47.9756012 C36.2416422,47.6640469 38.6965396,47.1310264 39.0231085,47.224868 C39.3750338,47.3277099 39.6702652,47.5687704 39.8414076,47.8930205 C39.8633719,48.2430063 39.7252993,48.5840455 39.4660411,48.820176 C39.1852178,49.053883 38.8469312,49.2081209 38.4863343,49.2668622 C37.7881525,49.4470381 35.9713783,49.7811144 35.4308504,48.9815836 Z" id="Path" fill="#F7C548"></path>
            <path d="M53.5648094,45.6333138 C54.052436,45.5930716 54.5428706,45.6018743 55.028739,45.6595894 C55.3065103,45.7158944 55.7006452,46.0049267 55.7381818,46.2414076 C55.7634568,46.5875649 55.6244115,46.9254451 55.3628152,47.1535484 C54.4882111,47.7653959 52.3598827,47.528915 51.9019355,47.2286217 C51.6016422,47.0334311 51.256305,46.6505572 51.278827,46.3802933 C51.301349,46.1100293 51.7217595,45.7421701 52.0295601,45.6633431 C52.5383296,45.5927568 53.0536688,45.5826768 53.5648094,45.6333138 Z" id="Path" fill="#F7C548"></path>
            <path d="M47.2436364,45.9861584 C47.5186813,46.051773 47.7523874,46.2321778 47.8855132,46.4816422 C47.9512012,46.7746762 47.9168417,47.0812686 47.7879179,47.3524927 C47.68421,47.5505193 47.5059158,47.6990978 47.292434,47.7653959 C46.1663343,48.0807038 45.0402346,48.5686804 43.9441642,47.8329619 C43.6392434,47.6263347 43.4488722,47.288669 43.429912,46.9208211 C43.5739171,46.5802022 43.8830964,46.3376808 44.2482111,46.2789443 C45.2342508,46.0805374 46.2378404,45.9824422 47.2436364,45.9861584 Z" id="Path" fill="#F7C548"></path>
            <path d="M61.2973607,45.1603519 C61.8904399,45.1603519 62.4234604,45.2053959 62.753783,45.8247507 C63.0841056,46.4441056 62.821349,47.0371848 62.1231672,47.1497947 C61.5503231,47.2857402 60.9626042,47.3488001 60.3739589,47.337478 C59.8823003,47.2828662 59.422763,47.0663026 59.0676833,46.7218768 C58.6059824,46.2113783 58.9287977,45.5319648 59.6194721,45.3968328 C60.1750147,45.2879765 60.7380645,45.2391789 61.2973607,45.1603519 Z" id="Path" fill="#F7C548"></path>
            <path d="M73.7144868,106.750499 C73.3391202,106.750499 73.0012903,106.288798 72.9412317,105.999765 C72.8832311,105.803511 72.9333177,105.591217 73.0729237,105.441584 C73.2125296,105.291951 73.4208455,105.227284 73.6206452,105.271554 C73.9434889,105.367165 74.1970929,105.617951 74.296305,105.939707 C74.3225806,106.187449 74.1086217,106.750499 73.7144868,106.750499 Z" id="Path" fill="#F7C548"></path>
            <path d="M91.2816422,103.848915 C91.7095601,103.848915 91.9197654,104.374428 91.9573021,104.667214 C91.9990454,104.869939 91.9292161,105.079512 91.7742198,105.216684 C91.6192234,105.353856 91.4027161,105.397691 91.2065689,105.331613 C90.8948599,105.206867 90.6655434,104.935345 90.5947214,104.607155 C90.6047176,104.219329 90.8966848,103.897048 91.2816422,103.848915 Z" id="Path" fill="#F7C548"></path>
            <path d="M76.1243402,104.39695 C75.7489736,104.39695 75.508739,103.920235 75.452434,103.646217 C75.3960757,103.448648 75.4488158,103.236011 75.590968,103.087679 C75.7331201,102.939346 75.9433211,102.877609 76.1431085,102.925513 C76.4634235,103.025792 76.7126255,103.279218 76.8075073,103.601173 C76.8412903,103.8339 76.4884457,104.39695 76.1243402,104.39695 Z" id="Path" fill="#F7C548"></path>
            <path d="M93.0008211,101.979589 C93.0008211,102.354956 92.5691496,102.595191 92.2801173,102.651496 C92.0825873,102.704351 91.8718106,102.649634 91.7249333,102.50737 C91.578056,102.365107 91.5166412,102.156183 91.5631672,101.957067 C91.6677036,101.637475 91.9234187,101.39019 92.2463343,101.296422 C92.624396,101.324975 92.934991,101.60621 93.0008211,101.979589 Z" id="Path" fill="#F7C548"></path>
            <path d="M75.1821701,100.924809 C75.090214,101.248289 74.8443275,101.505416 74.5252786,101.61173 C74.3260556,101.661684 74.1152871,101.602175 73.9716074,101.455405 C73.8279277,101.308636 73.7729162,101.096649 73.8270968,100.898534 C73.8796481,100.609501 73.9997654,100.102757 74.3826393,100.102757 C74.7929229,100.186133 75.1102209,100.512369 75.1821701,100.924809 Z" id="Path" fill="#F7C548"></path>
            <path d="M90.8987683,99.963871 C90.4708504,99.963871 90.2831672,99.4834018 90.2268622,99.1943695 C90.1715981,98.9965279 90.2254759,98.7842195 90.3683904,98.6366699 C90.5113049,98.4891204 90.7217861,98.4284959 90.9212903,98.4774194 C91.2410648,98.5794876 91.4888628,98.8343253 91.5819355,99.1568328 C91.6157185,99.4045748 91.3304399,99.963871 90.8987683,99.963871 Z" id="Path" fill="#F7C548"></path>
            <path d="M98.1771261,33.9218768 C97.9744282,34.1958944 97.8430499,34.368563 97.7154252,34.5449853 C97.4462896,34.9780915 96.9058626,35.1566536 96.4316716,34.9691496 C94.4009384,34.4323754 92.3626979,33.9256305 90.3207038,33.426393 C89.7426393,33.2837537 89.3184751,33.0134897 89.4948974,32.3716129 C89.6713196,31.7297361 90.2193548,31.6809384 90.7598827,31.819824 C92.4640469,32.2477419 94.1644575,32.6831672 95.853607,33.16739 C96.3565982,33.313783 96.6719062,33.2950147 96.9496774,32.7920235 C97.0645868,32.5391382 97.2799995,32.3458181 97.5437973,32.2588362 C97.8075951,32.1718542 98.0957461,32.1991343 98.3385337,32.3340762 C99.4270968,32.8295601 100.523167,33.3212903 101.581701,33.8768328 C101.788152,33.9856891 101.840704,34.379824 101.957067,34.627566 C101.600469,34.7626979 101.206334,35.0855132 100.906041,35.0029326 C99.975132,34.740176 99.0967742,34.3009971 98.1771261,33.9218768 Z" id="Path" fill="#F7C548"></path>
            <path d="M97.1523754,57.7426393 C97.7289709,57.8570313 98.1356328,58.3753259 98.1095601,58.9625806 C97.9819425,59.5399659 97.4294803,59.9202959 96.8445748,59.8334311 C96.5827473,59.8285572 96.3349734,59.7140658 96.1615711,59.5178286 C95.9881688,59.3215914 95.9050445,59.0616096 95.932434,58.801173 C96.0122589,58.1902593 96.5363095,57.7355447 97.1523754,57.7426393 Z" id="Path" fill="#F7C548"></path>
            <path d="M70.0096188,42.7167155 C69.750468,42.7168431 69.5023404,42.6118855 69.3219447,42.4258303 C69.141549,42.2397751 69.0443038,41.9885247 69.052434,41.7295015 C69.0418928,41.4805024 69.1354051,41.2383397 69.3105604,41.0610483 C69.4857158,40.8837569 69.7267273,40.7873163 69.9758358,40.7948387 C70.319146,40.7888039 70.6395973,40.9663814 70.8164787,41.2606794 C70.99336,41.5549774 70.999799,41.9212851 70.8333702,42.2216179 C70.6669413,42.5219507 70.352929,42.7106808 70.0096188,42.7167155 Z" id="Path" fill="#F7C548"></path>
            <path d="M76.856305,50.8058651 C76.609156,50.7957518 76.3771491,50.6840432 76.2151212,50.4971425 C76.0530933,50.3102419 75.9754233,50.0647356 76.0004692,49.818651 C76.0011032,49.5806958 76.1029819,49.3542564 76.2806347,49.1959448 C76.4582876,49.0376332 76.6949224,48.9624134 76.9313783,48.9890909 C77.1693008,48.9868074 77.3977084,49.0823922 77.5630896,49.2534518 C77.7284709,49.4245113 77.8162935,49.6560144 77.8059824,49.8937243 C77.8020518,50.1409595 77.6995264,50.376382 77.5211938,50.5476658 C77.3428612,50.7189497 77.1034977,50.8119028 76.856305,50.8058651 Z" id="Path" fill="#F7C548"></path>
            <path d="M86.0640469,53.6774194 C86.3112454,53.6764165 86.5486089,53.7741721 86.7234061,53.9489693 C86.8982033,54.1237664 86.9959589,54.3611299 86.994956,54.6083284 C86.9980648,54.8465189 86.9042973,55.0757573 86.7351507,55.2434884 C86.566004,55.4112196 86.3359858,55.5030575 86.0978299,55.4979472 C85.8606611,55.5156805 85.6268087,55.4339241 85.4523504,55.2722832 C85.2778921,55.1106422 85.1785629,54.8836956 85.1781818,54.6458651 C85.1628152,54.3988522 85.248482,54.1561985 85.415525,53.9735837 C85.582568,53.790969 85.8166459,53.6840712 86.0640469,53.6774194 Z" id="Path" fill="#F7C548"></path>
            <path d="M97.5727859,17.4545455 L100.358006,17.6009384 L100.06522,19.143695 L97.2875073,19.0123167 C97.381349,18.5018182 97.4751906,17.9800587 97.5727859,17.4545455 Z" id="Path" fill="#F7C548"></path>
            <path d="M98.402346,44.6348387 C97.8618182,44.5822874 97.4639296,44.3270381 97.471437,43.7790029 C97.452917,43.5278707 97.5454471,43.2812473 97.7245868,43.1042746 C97.9037266,42.9273019 98.1514578,42.83778 98.402346,42.8593548 C98.6380996,42.8258001 98.8765897,42.898574 99.0534457,43.0580344 C99.2303018,43.2174948 99.3272929,43.4472039 99.3182405,43.6851613 C99.3370088,44.2932551 98.9353666,44.5409971 98.402346,44.6348387 Z" id="Path" fill="#ED7ED9"></path>
            <path d="M84.1196481,45.4193548 C84.0971261,45.8172434 83.7743109,46.0161877 83.2487977,45.9974194 C83.039068,46.0189752 82.8310559,45.9430241 82.6845591,45.7914 C82.5380623,45.6397758 82.4693093,45.4292749 82.4980645,45.2204106 C82.4642738,44.9821461 82.5467533,44.7421242 82.7198635,44.5749577 C82.8929737,44.4077912 83.1357296,44.3337446 83.3726686,44.3758358 C83.8944282,44.3833431 84.1421701,44.7136657 84.1196481,45.4193548 Z" id="Path" fill="#ED7ED9"></path>
            <path d="M89.9565982,45.1641056 C89.7322216,45.196555 89.5055924,45.1220962 89.3441819,44.9628967 C89.1827713,44.8036973 89.1051938,44.5781166 89.1345455,44.3533138 C89.1345455,43.8202933 89.419824,43.4449267 89.9115543,43.5049853 C90.3268498,43.5685024 90.6404137,43.9149905 90.6622874,44.3345455 C90.6590441,44.7454937 90.3617106,45.0950187 89.9565982,45.1641056 Z" id="Path" fill="#ED7ED9"></path>
            <path d="M95.2267449,47.1347801 C95.7672727,47.191085 96.0975953,47.3862757 96.0975953,47.9568328 C96.1280127,48.1804995 96.0518814,48.4054977 95.8919012,48.5647406 C95.731921,48.7239836 95.5065736,48.7990748 95.2830499,48.7676246 C95.0594044,48.8016297 94.8326561,48.729768 94.6694227,48.5731522 C94.5061893,48.4165363 94.4250105,48.1929545 94.4497361,47.9680938 C94.4422287,47.393783 94.7838123,47.2098534 95.2267449,47.1347801 Z" id="Path" fill="#ED7ED9"></path>
            <path d="M87.2051613,48.2383578 C87.1942131,47.7741199 87.5524393,47.3843831 88.0159531,47.3562463 C88.4720334,47.3500271 88.8468013,47.7147115 88.8530205,48.1707918 C88.8592398,48.6268721 88.4945554,49.00164 88.0384751,49.0078592 C87.7043988,48.9778299 87.2051613,48.8914956 87.2051613,48.2383578 Z" id="Path" fill="#ED7ED9"></path>
            <path d="M84.7427566,41.6656891 C84.0971261,41.6656891 83.5190616,41.1927273 83.5378299,40.7160117 C83.524806,40.4785662 83.6196709,40.2479308 83.7959927,40.0883668 C83.9723144,39.9288029 84.2112469,39.8573655 84.446217,39.8939589 C85.0693255,39.8939589 85.6173607,40.3256305 85.5723167,40.8060997 C85.5745706,41.2701466 85.2065904,41.6514474 84.7427566,41.6656891 Z" id="Path" fill="#ED7ED9"></path>
            <path d="M102.895484,45.956129 C102.918006,46.6055132 102.632727,46.8757771 102.047155,46.8607625 C101.401525,46.8607625 100.973607,46.4853959 100.962346,45.9148387 C100.950302,45.6531611 101.049516,45.3986002 101.235459,45.2140869 C101.421403,45.0295736 101.676722,44.9323289 101.938299,44.946393 C102.20223,44.9437773 102.455344,45.0511203 102.636929,45.242675 C102.818515,45.4342297 102.912189,45.6927143 102.895484,45.956129 Z" id="Path" fill="#ED7ED9"></path>
            <path d="M33.291261,84.457478 C33.291261,85.0430499 33.0547801,85.4597067 32.4391789,85.5310264 C31.966217,85.5835777 31.4144282,84.9567155 31.3881525,84.4049267 C31.3853615,84.1455614 31.4913443,83.8968862 31.6803716,83.7192719 C31.8693988,83.5416576 32.1241844,83.4513467 32.3828739,83.4702639 C32.9909677,83.4890323 33.2875073,83.8118475 33.291261,84.457478 Z" id="Path" fill="#ED7ED9"></path>
            <path d="M22.8973607,48.797654 C22.0602933,48.775132 21.579824,48.3547214 21.602346,47.8104399 C21.6639079,47.280664 22.1163296,46.8833761 22.6496188,46.8907918 C23.2059154,46.9520306 23.6328217,47.4125138 23.6518475,47.9718475 C23.666258,48.1826471 23.5937799,48.3901621 23.451262,48.5461518 C23.3087441,48.7021415 23.1086014,48.7930175 22.8973607,48.797654 Z" id="Path" fill="#ED7ED9"></path>
            <path d="M31.3618768,91.3417009 C31.3618768,91.8446921 30.8288563,92.3889736 30.3634018,92.3101466 C29.8471673,92.2762383 29.4479098,91.8439843 29.4550147,91.3266862 C29.4395206,91.0668577 29.5317778,90.8121263 29.7100606,90.6224789 C29.8883434,90.4328315 30.1368953,90.3250288 30.3971848,90.3244575 C30.9286112,90.3730948 31.3414697,90.8084437 31.3618768,91.3417009 Z" id="Path" fill="#ED7ED9"></path>
            <path d="M22.961173,28.0886804 C22.9861195,28.324746 22.9033554,28.559484 22.7358669,28.7277008 C22.5683783,28.8959175 22.3340015,28.9796992 22.0978299,28.9557771 C21.8121877,28.9739774 21.5321675,28.8705492 21.3269383,28.6710406 C21.121709,28.471532 21.0104079,28.1945469 21.0205279,27.9085044 C21.0430499,27.2929032 21.3958944,27.0526686 21.9814663,27.0564223 C22.2553303,27.0403592 22.5223359,27.145911 22.7111887,27.3448938 C22.9000414,27.5438766 22.9915108,27.8160283 22.961173,28.0886804 Z" id="Path" fill="#ED7ED9"></path>
            <path d="M37.2626393,89.8702639 C37.1823061,90.3362619 36.7783259,90.6768726 36.3054545,90.6773021 C35.828739,90.722346 35.3482698,90.1630499 35.3632845,89.6638123 C35.3924922,89.1340976 35.8238897,88.7157727 36.3542522,88.7028739 C36.9165313,88.7932411 37.3132073,89.303019 37.2626393,89.8702639 Z" id="Path" fill="#ED7ED9"></path>
            <path d="M31.2567742,77.4381232 C31.8836364,77.4381232 32.4204106,77.9636364 32.3453372,78.4290909 C32.3193227,78.9427285 31.8949407,79.3456437 31.3806452,79.3449853 C31.1105452,79.3440452 30.8521695,79.234529 30.6636659,79.0410832 C30.4751622,78.8476375 30.3723677,78.5865148 30.3784164,78.3164809 C30.4201446,77.8497522 30.7900455,77.4798513 31.2567742,77.4381232 Z" id="Path" fill="#ED7ED9"></path>
            <path d="M38.9142522,83.0573607 C39.544868,83.0573607 40.1004106,83.5603519 40.0403519,84.0333138 C40.0200834,84.5543077 39.5895215,84.9649208 39.0681525,84.9604692 C38.5283428,84.9544755 38.0910526,84.5205107 38.0809384,83.9807625 C38.0936262,83.5098351 38.4470932,83.1181555 38.9142522,83.0573607 Z" id="Path" fill="#ED7ED9"></path>
            <path d="M25.1232845,94.4197067 C24.6178603,94.3704445 24.2173475,93.9715024 24.1660997,93.4662757 C24.2121556,92.9318671 24.6545461,92.5186453 25.1908504,92.5090909 C25.7113645,92.5151281 26.1324293,92.9345286 26.1405279,93.4550147 C26.2005865,93.9317302 25.6412903,94.4197067 25.1232845,94.4197067 Z" id="Path" fill="#ED7ED9"></path>
            <path d="M35.3557771,72.7385337 C35.3332551,73.1139003 35.0329619,73.3353666 34.503695,73.3165982 C33.9744282,73.2978299 33.4076246,72.7835777 33.4864516,72.2956012 C33.4923804,72.0715789 33.5920552,71.8603283 33.7611936,71.7133135 C33.9303319,71.5662987 34.1534057,71.4970168 34.3760704,71.522346 C34.9653959,71.5486217 35.3707918,71.9690323 35.3557771,72.7385337 Z" id="Path" fill="#ED7ED9"></path>
            <path d="M22.8072727,43.1258651 C22.8523167,43.6626393 22.4731965,43.9404106 21.9702053,43.9629326 C21.7323851,43.9807152 21.4979308,43.8984603 21.323349,43.7359923 C21.1487672,43.5735243 21.0498933,43.3455799 21.0505572,43.1070968 C21.0349424,42.8599104 21.122647,42.617335 21.2927301,42.4372888 C21.4628133,42.2572426 21.700009,42.155886 21.9476833,42.1574194 C22.1946329,42.1590564 22.4292752,42.2654644 22.5932098,42.4501593 C22.7571445,42.6348543 22.8349541,42.8804664 22.8072727,43.1258651 Z" id="Path" fill="#ED7ED9"></path>
            <path d="M18.4229912,41.5305572 C18.1828892,41.5400674 17.9502789,41.4459357 17.7843643,41.2721204 C17.6184497,41.0983051 17.535233,40.8615704 17.5558944,40.6221701 C17.5426961,40.3836878 17.6343515,40.1513425 17.8068114,39.9860985 C17.9792713,39.8208544 18.2153196,39.7392075 18.4530205,39.7625806 C18.7022319,39.7535723 18.9436124,39.8504679 19.1174253,40.0292878 C19.2912382,40.2081077 19.3812415,40.4521419 19.3651613,40.7009971 C19.331033,41.1887531 18.9111431,41.558457 18.4229912,41.5305572 Z" id="Path" fill="#ED7ED9"></path>
            <path d="M41.4479765,65.8993548 C41.4630205,66.13364 41.37809,66.363329 41.2142445,66.5314674 C41.050399,66.6996057 40.8229829,66.7904472 40.5883871,66.7814663 C40.1053566,66.7949414 39.7028593,66.4142915 39.6893842,65.931261 C39.6759091,65.4482305 40.0565589,65.0457332 40.5395894,65.0322581 C41.106393,65.0059824 41.3916716,65.313783 41.4479765,65.8993548 Z" id="Path" fill="#ED7ED9"></path>
            <path d="M57.746393,80.3885044 C58.2265132,80.3948765 58.6125392,80.7856081 58.6130937,81.2657703 C58.6136483,81.7459326 58.228526,82.1375549 57.7484217,82.145036 C57.2683175,82.1525171 56.8711803,81.7730842 56.8567742,81.2931378 C56.8365653,81.0502395 56.923231,80.8105965 57.0941312,80.6368119 C57.2650314,80.4630273 57.5031905,80.3723633 57.746393,80.3885044 Z" id="Path" fill="#ED7ED9"></path>
            <path d="M20.615132,23.2239296 C20.6229363,23.4571908 20.5321186,23.6829489 20.3649565,23.8458247 C20.1977944,24.0087006 19.9697541,24.0936248 19.7367742,24.0797654 C19.510144,24.0960725 19.2873517,24.0147248 19.1245485,23.8562248 C18.9617453,23.6977247 18.8744602,23.4771909 18.8846921,23.2502053 C18.8520964,23.0126958 18.9267817,22.7729885 19.0885141,22.5960257 C19.2502466,22.4190628 19.4822831,22.3231642 19.7217595,22.3343109 C20.2923167,22.3117889 20.570088,22.6421114 20.615132,23.2239296 Z" id="Path" fill="#ED7ED9"></path>
            <path d="M35.5359531,60.3589443 C35.5308299,60.5901048 35.429464,60.8086382 35.2562967,60.9618521 C35.0831293,61.1150661 34.8538754,61.1890563 34.6238123,61.1659824 C34.3965588,61.1722669 34.177468,61.0810551 34.0218136,60.9153585 C33.8661592,60.7496618 33.7888051,60.5253033 33.8092669,60.2988856 C33.7859892,60.059894 33.8703432,59.8229488 34.0394083,59.6524324 C34.2084735,59.481916 34.4446891,59.39554 34.683871,59.4167742 C35.2581818,59.4205279 35.5134311,59.7696188 35.5359531,60.3589443 Z" id="Path" fill="#ED7ED9"></path>
            <path d="M41.4780059,56.8980645 C41.5380645,56.3612903 41.8045748,56.0159531 42.3713783,56.0197067 C42.6108286,55.997558 42.8469544,56.0880715 43.0102453,56.2646023 C43.1735362,56.441133 43.2454039,56.6835853 43.2046921,56.9205865 C43.2211073,57.1469042 43.1396645,57.3693929 42.981018,57.5316287 C42.8223715,57.6938645 42.6017602,57.7802636 42.375132,57.768915 C41.8120821,57.7839296 41.5380645,57.431085 41.4780059,56.8980645 Z" id="Path" fill="#ED7ED9"></path>
            <path d="M19.8043402,34.5862757 C20.2834192,34.6088217 20.6558427,35.0114926 20.6409855,35.4908717 C20.6261284,35.9702508 20.2294843,36.3490865 19.7499285,36.3419221 C19.2703727,36.3347578 18.8852223,35.9442424 18.8846921,35.4646334 C18.8726919,35.2208315 18.9672329,34.9838482 19.1437529,34.8152537 C19.3202728,34.6466592 19.5613461,34.5630964 19.8043402,34.5862757 Z" id="Path" fill="#ED7ED9"></path>
            <path d="M23.1000587,39.3121408 C22.8560704,39.0080938 22.4731965,38.7303226 22.4018768,38.388739 C22.3042815,37.9007625 22.6646334,37.5817009 23.1901466,37.5404106 C23.4160612,37.4987547 23.6486133,37.5628261 23.8213159,37.7143069 C23.9940186,37.8657876 24.0878604,38.0880022 24.0760117,38.3174194 C24.1022874,38.7978886 23.8057478,39.1394721 23.1000587,39.3121408 Z" id="Path" fill="#ED7ED9"></path>
            <path d="M27.6795308,46.0424633 C27.6213309,46.4397923 27.260765,46.7209676 26.8612317,46.6805865 C26.6350226,46.692621 26.4148251,46.6053388 26.2582922,46.4415925 C26.1017594,46.2778462 26.0244795,46.0539423 26.0466862,45.8285044 C26.0167272,45.6006734 26.0927614,45.3716696 26.2530387,45.2070011 C26.413316,45.0423327 26.6401816,44.960138 26.868739,44.9839296 C27.3379472,44.9839296 27.6982991,45.2767155 27.6795308,46.0424633 Z" id="Path" fill="#ED7ED9"></path>
            <path d="M24.7253959,34.1133138 C24.6428152,34.593783 24.4401173,34.9203519 23.8658065,34.8978299 C23.6414982,34.9196133 23.4198275,34.8357686 23.2660841,34.670991 C23.1123407,34.5062133 23.0440368,34.2792719 23.0812903,34.0570088 C23.0492443,33.8325358 23.1264287,33.6062679 23.2889756,33.4481743 C23.4515225,33.2900808 23.6798467,33.2192102 23.9033431,33.257478 C24.1294021,33.2505381 24.3478251,33.3396638 24.5044965,33.5027739 C24.661168,33.6658839 24.7414295,33.8877173 24.7253959,34.1133138 Z" id="Path" fill="#ED7ED9"></path>
            <path d="M47.6302639,79.5026393 C47.6151059,79.9104157 47.3068878,80.2472313 46.9020528,80.2984164 C46.6773764,80.3332224 46.4496925,80.2576486 46.2904227,80.0954018 C46.1311528,79.9331549 46.059808,79.7041107 46.0987683,79.4801173 C46.2221928,79.1100346 46.5244776,78.8275255 46.9020528,78.7293842 C47.3097315,78.7568754 47.6272609,79.0940458 47.6302639,79.5026393 Z" id="Path" fill="#ED7ED9"></path>
            <path d="M39.9465103,78.181349 C39.9567997,78.3868761 39.8822709,78.5876168 39.7403505,78.7366332 C39.5984301,78.8856496 39.4015615,78.9698762 39.1957771,78.9696188 C38.9707499,79.0023901 38.7437195,78.9247155 38.5859274,78.760969 C38.4281354,78.5972226 38.3589197,78.367472 38.4,78.1438123 C38.527222,77.7734054 38.8317073,77.4914746 39.2107918,77.3930792 C39.416097,77.3902613 39.6130515,77.4742464 39.7531483,77.62435 C39.893245,77.7744536 39.9634636,77.9767255 39.9465103,78.181349 Z" id="Path" fill="#ED7ED9"></path>
            <path d="M43.9178886,72.4194721 C43.5032701,72.4194721 43.1671554,72.0833575 43.1671554,71.668739 C43.1389195,71.4429815 43.2218544,71.2175412 43.3896619,71.0639041 C43.5574694,70.910267 43.7893331,70.8474917 44.0117302,70.8954839 C44.3776464,71.0311026 44.6492817,71.3437662 44.732434,71.725044 C44.7181132,71.925778 44.6237995,72.112358 44.4706554,72.2429187 C44.3175112,72.3734794 44.1183603,72.4370881 43.9178886,72.4194721 Z" id="Path" fill="#ED7ED9"></path>
            <path d="M52.1158944,119.486686 C51.8268622,119.430381 51.4139589,119.062522 51.4139589,118.762229 C51.4261493,118.400581 51.7240194,118.11436 52.0858651,118.116598 C52.344868,118.090323 52.9304399,118.420645 52.9304399,118.803519 C52.9304399,119.186393 52.344868,119.53173 52.1158944,119.486686 Z" id="Path" fill="#ED7ED9"></path>
            <path d="M45.5807625,109.145337 C45.2954839,109.074018 44.8600587,108.769971 44.8600587,108.394604 C44.8600587,108.019238 45.3555425,107.78651 45.6107918,107.775249 C45.8660411,107.763988 46.4328446,108.045513 46.4328446,108.46217 C46.4328446,108.878827 45.7947214,109.201642 45.5807625,109.145337 Z" id="Path" fill="#ED7ED9"></path>
            <path d="M47.7954252,92.7455718 C47.4334961,92.7414588 47.142264,92.4468791 47.1422874,92.0849267 C47.1624617,91.7046406 47.4641729,91.3997025 47.8442229,91.3754839 C48.2379656,91.3759523 48.5703656,91.6682075 48.6212317,92.058651 C48.5499479,92.4581599 48.2012351,92.7482255 47.7954252,92.7455718 Z" id="Path" fill="#ED7ED9"></path>
            <path d="M47.2511437,88.6090323 C46.9696188,88.5602346 46.5529619,88.2674487 46.5529619,87.8995894 C46.5919209,87.5549365 46.8619145,87.2818396 47.2060997,87.2389443 C47.4651026,87.2051613 48.0544282,87.4416422 48.0544282,87.8470381 C47.9821062,88.249367 47.6567259,88.5580221 47.2511437,88.6090323 Z" id="Path" fill="#ED7ED9"></path>
            <path d="M25.9678592,119.190147 C25.9678592,119.565513 25.5249267,119.768211 25.2621701,119.809501 C25.0537188,119.847411 24.8399336,119.780635 24.6901186,119.63082 C24.5403036,119.481005 24.4735273,119.26722 24.511437,119.058768 C24.6231809,118.726868 24.9495588,118.516318 25.2980096,118.551343 C25.6464603,118.586368 25.9244056,118.857661 25.9678592,119.205161 L25.9678592,119.190147 Z" id="Path" fill="#ED7ED9"></path>
            <path d="M51.188739,115.406452 C51.188739,115.759296 50.5881525,116.138416 50.3817009,116.093372 C50.0300128,116.056556 49.7629363,115.760061 49.7629363,115.406452 C49.7629363,115.052842 50.0300128,114.756347 50.3817009,114.719531 C50.6069208,114.67824 51.188739,115.053607 51.188739,115.406452 Z" id="Path" fill="#ED7ED9"></path>
            <path d="M25.3522581,115.260059 C25.3522581,115.744282 24.7253959,116.010792 24.5189443,115.946979 C24.1395684,115.939724 23.8379055,115.626297 23.8451614,115.246921 C23.8524172,114.867545 24.1658441,114.565882 24.5452199,114.573138 C24.7741935,114.531848 25.3522581,114.775836 25.3522581,115.260059 Z" id="Path" fill="#ED7ED9"></path>
            <path d="M49.0941935,111.712845 C49.0941935,112.058182 48.504868,112.463578 48.2984164,112.399765 C47.9572034,112.341798 47.6998377,112.058076 47.6753079,111.712845 C47.7036223,111.354276 47.9822804,111.066171 48.3397067,111.025924 C48.549912,110.988387 49.0941935,111.371261 49.0941935,111.712845 Z" id="Path" fill="#ED7ED9"></path>
            <path d="M24.173607,109.790968 C24.173607,110.245161 23.5429912,110.541701 23.3365396,110.477889 C23.04,110.406569 22.6796481,110.241408 22.6796481,109.790968 C22.7093916,109.426036 22.9980517,109.13579 23.3628152,109.104047 C23.5730205,109.062757 24.173607,109.340528 24.173607,109.790968 Z" id="Path" fill="#ED7ED9"></path>
            <path d="M53.895132,88.8117302 C53.895132,89.2659238 53.2495015,89.543695 53.0392962,89.4948974 C52.7427566,89.4273314 52.2622874,89.2246334 52.2622874,88.8004692 C52.2622874,88.376305 52.7577713,88.184868 53.0543109,88.1248094 C53.2645161,88.0797654 53.895132,88.353783 53.895132,88.8117302 Z" id="Path" fill="#ED7ED9"></path>
            <path d="M47.0972434,106.191202 C46.7294254,106.142522 46.4434253,105.847196 46.4065689,105.478006 C46.4065689,105.140176 46.8044575,104.851144 47.0634604,104.821114 C47.3224633,104.791085 47.9080352,105.07261 47.9080352,105.436716 C47.8224348,105.833184 47.498838,106.134309 47.0972434,106.191202 Z" id="Path" fill="#ED7ED9"></path>
            <path d="M25.3222287,105.207742 C25.2588636,105.590495 24.9365265,105.876843 24.5489736,105.894663 C24.1974331,105.847817 23.926627,105.561358 23.8995894,105.207742 C23.9168623,104.862867 24.1739699,104.577541 24.5151906,104.524575 C24.7216422,104.472023 25.3222287,104.791085 25.3222287,105.207742 Z" id="Path" fill="#ED7ED9"></path>
            <path d="M44.7474487,96.6418768 C44.7156246,97.0187615 44.4083993,97.3131187 44.0304985,97.3287977 C43.6788105,97.2919814 43.4117339,96.9954867 43.4117339,96.6418768 C43.4117339,96.288267 43.6788105,95.9917723 44.0304985,95.954956 C44.4083993,95.970635 44.7156246,96.2649922 44.7474487,96.6418768 Z" id="Path" fill="#ED7ED9"></path>
            <path d="M25.3785337,99.0967742 C25.0436328,98.9859052 24.7842325,98.7180919 24.6841056,98.379824 C24.6540762,98.1883871 25.0857478,97.7529619 25.3447507,97.7229326 C25.6037537,97.6929032 26.1893255,97.9969501 26.1893255,98.3272727 C26.1893255,98.6575953 25.611261,99.1418182 25.3785337,99.0967742 Z" id="Path" fill="#ED7ED9"></path>
            <path d="M45.5957771,101.668035 C45.5957771,102.137243 44.946393,102.418768 44.7399413,102.351202 C44.4162686,102.277195 44.1796525,101.999362 44.1581232,101.668035 C44.2015562,101.321917 44.4643727,101.043908 44.8075073,100.981114 C45.0177126,100.947331 45.5957771,101.195073 45.5957771,101.668035 Z" id="Path" fill="#ED7ED9"></path>
            <path d="M23.4416422,101.225103 C23.4416422,101.64176 22.7922581,101.975836 22.5858065,101.90827 C22.2491879,101.844639 21.9951724,101.56614 21.9626979,101.225103 C22.0091628,100.870895 22.2849668,100.590495 22.6383578,100.538182 C22.848563,100.500645 23.4416422,100.808446 23.4416422,101.225103 Z" id="Path" fill="#ED7ED9"></path>
            <path d="M97.1148387,38.1485044 C97.0461626,39.5642464 95.8669733,40.6703591 94.4497361,40.6484457 C93.9138832,40.6517892 93.3997744,40.4367743 93.0258515,40.0529368 C92.6519287,39.6690993 92.4504384,39.1495409 92.4678006,38.6139589 C92.4678006,37.0261584 93.293607,36.1703226 94.8476246,36.1703226 C96.4016422,36.1703226 97.122346,36.8309677 97.1148387,38.1485044 Z" id="pupil" fill="#794C84"></path>
        </g>
    </g>
</svg>