<?xml version="1.0" encoding="UTF-8"?>
<svg width="151px" height="164px" viewBox="0 0 151 164" version="1.1" xmlns="http://www.w3.org/2000/svg" xmlns:xlink="http://www.w3.org/1999/xlink">
    <!-- Generator: Sketch 52.5 (67469) - http://www.bohemiancoding.com/sketch -->
    <title>Slice 1</title>
    <desc>Created with Sketch.</desc>
    <g id="Page-1" stroke="none" stroke-width="1" fill="none" fill-rule="evenodd">
        <g id="ic_dogswift">
            <path d="M128.963636,79.8357771 C128.57202,82.9377709 127.778213,85.9755787 126.602229,88.87261 C125.722111,91.2195894 124.846804,93.5713783 123.995543,95.9327859 C123.245279,98.0008211 122.379589,100.044809 121.82651,102.184985 C121.066628,105.104282 120.58088,108.095718 119.902757,111.043871 C119.421818,113.121525 118.801408,115.165513 118.387801,117.257595 C118.205439,118.434556 118.140994,119.626779 118.195425,120.81654 C118.231636,122.978095 118.594851,125.121714 119.272727,127.174545 C120.003754,129.449384 120.398123,131.777126 119.854663,134.292434 C119.311202,136.807742 119.469912,139.356716 119.272727,141.89607 C119.061114,144.690323 119.792141,147.330674 120.547214,149.956598 C120.96563,151.399413 121.600469,152.784516 122.124692,154.193666 C122.230499,154.477419 122.29783,154.775601 122.379589,155.064164 C121.066628,154.679413 119.883519,154.655367 119.013021,155.977947 C118.690933,156.312393 118.317514,156.593269 117.906862,156.809971 C116.223578,154.78522 115.324223,152.346862 114.540293,149.913314 C113.0061,145.224164 111.217009,140.597537 110.370557,135.706393 C109.889619,132.888094 109.471202,130.045748 109.259589,127.198592 C108.990264,123.654076 108.927742,120.090323 108.855601,116.536188 C108.821935,115.064516 108.995073,113.588035 109.076833,112.077889 C108.884457,112.077889 108.778651,112.044223 108.716129,112.077889 C106.295165,113.602434 104.437732,115.875256 103.425806,118.55132 C102.704399,120.393314 100.140997,125.241173 100.674839,129.228152 C100.944164,131.248094 100.333372,134.330909 99.4340176,135.797771 C97.3756012,139.16434 95.9424047,142.747331 95.9231672,146.715073 C95.9231672,149.187097 96.2742522,151.654311 96.5002933,154.121525 C96.6109091,155.343109 96.7888563,156.555073 96.9379472,157.771848 C96.7407625,157.574663 96.5435777,157.372669 96.3415836,157.185103 C95.5730191,156.381586 94.3150799,156.30611 93.4559531,157.011965 C92.8066862,157.59871 92.2199413,158.247977 91.6091496,158.868387 C90.9850699,158.156294 90.6117053,157.259205 90.5462757,156.314604 C90.2577126,153.453021 89.661349,150.605865 89.5218768,147.739472 C89.3198827,143.69478 89.3198827,139.63085 89.4160704,135.581349 C89.5817251,131.710758 90.2196876,127.874907 91.3157771,124.159062 C92.4026979,120.18651 93.4816031,116.210753 94.5524927,112.231789 C94.5623414,112.142284 94.5623414,112.051968 94.5524927,111.962463 C92.628739,112.125982 90.7482698,112.289501 88.8533724,112.443402 C88.2954839,112.496305 87.7375953,112.587683 87.1797067,112.630968 C84.7750147,112.823343 82.3703226,113.025337 79.9656305,113.174428 C79.0641949,113.199267 78.1620796,113.178399 77.2627566,113.111906 C76.4946071,113.109585 75.7692025,113.465176 75.3005279,114.073783 C73.9154252,115.516598 72.5784164,117.045982 71.0634604,118.349326 C70.1352493,119.147683 68.9184751,119.628622 67.8026979,120.196129 C66.2156012,121.008915 64.5948387,121.75437 62.9933138,122.543109 C61.7861584,123.144282 61.4014076,124.370674 61.2571261,125.491261 C61.0503226,127.112023 60.7761877,128.785689 61.4543109,130.430499 C61.7092082,131.022053 61.4543109,131.810792 61.5841642,132.474487 C61.8967742,134.042346 62.2622874,135.600587 62.695132,137.139589 C63.358827,139.544282 64.1956598,141.867214 64.7775953,144.276716 C65.2585337,146.224516 66.4320235,147.715425 67.4756598,149.31695 C67.9854545,150.105689 68.4375367,150.932903 69.0290909,151.678358 C69.6879765,152.524809 70.4286217,153.308739 71.1644575,154.08305 C71.6453959,154.588035 72.1551906,155.044927 72.6553666,155.525865 C71.3472141,156.290557 69.6783578,156.280938 68.5625806,157.449619 C66.263695,156.463695 64.7583578,154.563988 63.108739,152.803754 C60.8339003,150.365396 59.4439883,147.407625 57.9482698,144.502757 C57.1883871,143.026276 56.2890323,141.617126 55.6541935,140.087742 C55.0713868,138.590637 54.5893725,137.056224 54.2113783,135.49478 C53.3024047,131.993548 52.3693842,128.497126 51.6191202,124.957419 C51.3930792,123.913783 51.6672141,122.730674 51.8692082,121.634135 C52.0856305,120.451026 52.8887977,119.80176 54.0670968,119.436246 C55.5224581,118.995505 56.6397978,117.823394 57.0104399,116.348622 C57.2509091,115.540645 57.274956,114.766334 56.1832258,114.477771 C54.0959531,115.680117 52.0134897,116.978651 49.8444575,118.108856 C47.9447507,119.09478 45.9632845,119.946041 43.9770088,120.763636 C42.9081608,121.182046 41.8040105,121.503956 40.6777713,121.725513 C38.0422287,122.278592 36.8302639,124.312962 35.791437,126.43871 C34.791085,128.482698 34.7574194,130.800821 34.3486217,133.008328 C33.9879179,135.013842 33.5791202,137.019355 33.3338416,139.039296 C33.0382587,140.931768 32.9287233,142.848639 33.0068035,144.762463 C33.1799413,147.066158 33.7426393,149.340997 34.1706745,151.620645 C34.2979594,152.366646 34.4993476,153.098087 34.7718475,153.804106 C35.2143109,154.900645 35.7337243,155.95871 36.2627566,157.021584 C36.8110264,158.161408 37.3785337,159.291613 37.9364223,160.426628 C37.839169,160.306262 37.7277479,160.198071 37.6045748,160.104399 C36.931261,159.700411 36.2771848,159.065572 35.5557771,158.969384 C34.5932655,158.921947 33.6298408,159.042375 32.7086217,159.325279 C32.3200305,159.474863 31.9988121,159.7602 31.8044575,160.128446 C31.597654,160.48915 31.4774194,160.64305 31.1407625,160.320821 C30.722346,159.407038 30.3375953,158.483636 29.8903226,157.589091 C28.5292669,154.871789 28.0483284,151.909208 27.4856305,148.980293 C26.218392,142.506913 25.7660032,135.90042 26.1390029,129.314721 C26.3217595,126.342522 26.5237537,123.365513 26.7738416,120.393314 C26.8549874,118.827152 27.5454103,117.354825 28.6975953,116.290909 C29.1500939,115.91036 29.7062582,115.674158 30.2943109,115.612786 C31.823695,115.463695 32.9779472,114.766334 33.5695015,113.39085 C34.4941072,111.40974 35.2580508,109.357547 35.8539589,107.254076 C36.142522,106.090205 35.7337243,104.743578 35.579824,103.483519 C35.4836364,102.675543 35.2239296,101.881994 35.1421701,101.078827 C34.9642229,99.2945455 34.9738416,97.486217 34.690088,95.721173 C34.0360117,91.6476246 34.151437,87.5452199 34.1706745,83.4620528 C34.2304062,78.4883543 34.8761111,73.5390267 36.0944282,68.7164809 C36.2819941,67.9565982 36.3878006,67.1726686 36.5753666,66.4079765 C36.7629326,65.6432845 36.0944282,65.6769501 35.7144868,65.5759531 C33.5935484,65.0421114 31.4341349,64.6429326 29.3468622,64.0129032 C26.6680352,63.2049267 24.1575367,62.0506745 22.5079179,59.6026979 C22.1854656,59.2572595 21.8881286,58.8892045 21.6181818,58.501349 C21.2478592,57.7318475 20.7765396,56.9190616 20.7284457,56.0966569 C20.6034018,53.8939589 20.656305,51.6816422 20.6851613,49.4741349 C20.7045033,48.8813215 20.8114685,48.294634 21.0025806,47.7331378 C21.757654,45.3861584 22.5704399,43.0632258 23.3158944,40.711437 C23.4059866,40.2359543 23.4254335,39.7497811 23.373607,39.2686217 C23.3048328,38.3581318 23.2887747,37.4444264 23.3255132,36.5320821 C23.5996481,33.9253959 22.1039296,32.2950147 20.3100293,30.8041056 C20.0438098,30.6408813 19.7927216,30.4541747 19.5597654,30.246217 C18.7710264,29.2843402 17.7033431,28.9092082 16.5154252,28.7504985 C16.2117169,28.6835031 15.9153196,28.5868518 15.6304985,28.4619355 C18.578651,27.5337243 19.1269208,26.903695 19.2134897,24.3066276 C20.9256305,24.9799413 22.6618182,25.6099707 24.3451026,26.3458065 C25.4031672,26.8267449 26.3458065,27.5481525 27.4182991,27.9617595 C29.0257061,28.5856258 30.3565067,29.7645786 31.1696188,31.285044 C32.1107809,33.0989266 32.7723312,35.0446628 33.1318475,37.056305 C33.651261,39.7591789 33.1318475,42.5005279 32.7278592,45.2322581 C32.3767742,47.5551906 31.9343109,49.8685044 31.7082698,52.2058651 C31.535132,53.9564809 32.5595308,55.1251613 34.0312023,55.9908504 C35.7818182,57.0200587 37.4747214,58.1406452 38.9800587,59.0880938 C40.3699707,58.1935484 41.5434604,57.2316716 42.8756598,56.6256891 C46.4297947,55.0241642 50.2532551,54.6490323 54.0959531,54.3989443 C57.0729619,54.2017595 60.0451613,53.8891496 63.0173607,53.6390616 C64.5515543,53.5043988 66.0857478,53.3697361 67.6247507,53.2831672 C69.6350733,53.1677419 71.6502053,53.143695 73.6557185,52.9946041 C75.4351906,52.8647507 77.2002346,52.5954252 78.9797067,52.4367155 C80.6052786,52.292434 82.2404692,52.2202933 83.8756598,52.1192962 C83.8131378,52.2635777 83.7602346,52.4078592 83.6929032,52.5473314 C82.7310264,54.6346041 82.9522581,55.7263343 84.5056891,57.4096188 C85.7368915,58.751437 87.2999413,59.1794721 88.9928446,59.2660411 C90.0256803,59.2706905 91.058008,59.2193149 92.0852786,59.1121408 C90.4741349,62.257478 89.9547214,65.3258651 92.7201173,68.1441642 C95.7307918,71.2077419 99.1358358,70.6065689 102.752493,69.0242815 C102.641877,69.6014076 102.569736,69.9861584 102.487977,70.3805279 C101.938756,72.5436059 103.041311,74.7853994 105.089853,75.6708504 C105.987698,76.0507496 106.918107,76.3485449 107.869677,76.5605865 C110.113785,77.1746626 112.509301,76.8827792 114.540293,75.7478006 L115.920587,75.002346 C115.874084,75.7390518 115.874084,76.4779569 115.920587,77.2146628 C115.980381,78.0496188 116.173604,78.8695962 116.492903,79.6434018 C117.810674,82.288563 122.047742,83.1686804 124.187918,82.4424633 C125.916275,81.8510159 127.531273,80.9695165 128.963636,79.8357771 Z M78.5372434,57.8617009 C77.8206452,57.9626979 77.0944282,58.0252199 76.3874487,58.1646921 C75.502522,58.3378299 75.088915,59.2083284 75.6804692,59.8624047 C76.135415,60.3037002 76.7241972,60.5811723 77.3541349,60.6511437 C78.1083367,60.6656502 78.8613515,60.5848546 79.5953079,60.4106745 C80.4898534,60.266393 80.8217009,59.5305572 80.4032845,58.7129619 C79.984868,57.8953666 79.2971261,57.8665103 78.5372434,57.8617009 Z M42.6544282,108.211144 C42.6544282,107.374311 42.2696774,106.960704 41.4905572,106.941466 C41.1591112,106.917229 40.8326673,107.032939 40.5904761,107.260508 C40.3482849,107.488076 40.2124944,107.806691 40.2160704,108.139003 C40.2497361,108.850792 40.9567155,109.653959 41.5626979,109.581818 C42.351437,109.504868 42.6592375,108.971026 42.6544282,108.211144 Z M29.3372434,62.5219941 C29.6070503,62.5147635 29.8622282,62.3977684 30.0437851,62.1980558 C30.225342,61.9983432 30.3175601,61.7332027 30.2991202,61.4639296 C30.2747435,60.7472833 29.7277698,60.1572892 29.0150147,60.078827 C28.3317379,60.0693256 27.7520726,60.5783507 27.6731965,61.2571261 C27.6683871,61.9304399 28.2839883,62.4690909 29.3372434,62.5219941 Z M40.1631672,117.055601 C40.1370206,116.372365 39.6080455,115.814575 38.9271554,115.752258 C38.5936596,115.75299 38.2752024,115.891112 38.0467776,116.134098 C37.8183528,116.377084 37.7001482,116.703458 37.72,117.036364 C37.7108969,117.699152 38.2224455,118.252977 38.883871,118.296422 C39.4994721,118.373372 40.1679765,117.676012 40.1824047,117.031554 L40.1631672,117.055601 Z M29.4190029,35.9886217 C29.4578732,35.6392863 29.3406781,35.2905919 29.0987105,35.0356452 C28.8567429,34.7806985 28.5146419,34.6454602 28.1637537,34.6660411 C27.4375367,34.6660411 26.9614076,34.9690323 26.9325513,35.7577713 C26.9195851,36.1242632 27.0621897,36.4791504 27.3251397,36.7347708 C27.5880896,36.9903911 27.9468655,37.1229086 28.3128446,37.0995894 C28.6154394,37.1302396 28.9157347,37.0228943 29.1303294,36.8073666 C29.3449241,36.5918389 29.4509656,36.2910808 29.4190029,35.9886217 Z M47.7427566,115.146276 C47.8075468,114.419493 47.2993057,113.76634 46.5788856,113.650557 C45.8993587,113.667084 45.3466306,114.203063 45.3092082,114.88176 C45.3092082,115.521408 45.9055718,116.238006 46.5163636,116.180293 C47.1222301,116.179743 47.6398297,115.743336 47.7427566,115.146276 Z M40.0477419,99.2175953 C39.4497458,99.2710595 38.9758102,99.744995 38.922346,100.342991 C38.9145962,100.688972 39.0463016,101.023536 39.2878219,101.271388 C39.5293422,101.51924 39.860386,101.659558 40.2064516,101.660762 C40.8653928,101.661606 41.4091322,101.145371 41.4424633,100.487273 C41.538651,99.8909091 40.8509091,99.2320235 40.0477419,99.2175953 Z M49.8588856,106.431672 C49.2546378,106.503008 48.7940524,107.006581 48.7767742,107.61478 C48.7897329,108.306332 49.3500111,108.86235 50.0416422,108.870029 C50.7096462,108.875733 51.2613038,108.349635 51.2872727,107.682111 C51.378651,107.061701 50.6668622,106.407625 49.8588856,106.417243 L49.8588856,106.431672 Z M32.1892082,120.989677 C32.8529032,120.989677 33.5695015,120.364457 33.4925513,119.753666 C33.482175,119.086793 32.9426858,118.549436 32.2757771,118.541701 C31.5886372,118.553942 31.0218244,119.083383 30.9628152,119.768094 C31.0348725,120.409785 31.5464576,120.913346 32.1892082,120.975249 L32.1892082,120.989677 Z M45.2995894,93.2106745 C45.2995894,92.2247507 44.818651,91.6860997 44.0443402,91.652434 C43.7590511,91.619981 43.4732377,91.7087484 43.2565292,91.8971111 C43.0398207,92.0854737 42.9121124,92.3561386 42.9045161,92.6431672 C42.8035191,93.2683871 43.5153079,93.9272727 44.2078592,93.9513196 C44.9004106,93.9753666 45.2707331,93.6771848 45.2995894,93.1962463 L45.2995894,93.2106745 Z M29.2218182,55.2694428 C29.257285,54.9550257 29.1575914,54.6403352 28.9475501,54.4036948 C28.7375088,54.1670544 28.4368734,54.0307192 28.1204692,54.0286217 C27.8031365,54.0266571 27.4992295,54.1565202 27.2813105,54.3872044 C27.0633914,54.6178886 26.95102,54.9286884 26.9710264,55.2453959 C26.9701758,55.5509525 27.0968579,55.8430061 27.3205409,56.0511682 C27.5442239,56.2593304 27.8446184,56.3647195 28.1493255,56.3419355 C28.793783,56.298651 29.2795308,55.9427566 29.2218182,55.2550147 L29.2218182,55.2694428 Z M23.6044575,53.2254545 C24.2299022,53.2612012 24.7678861,52.7875181 24.8116129,52.1625806 C24.8322157,51.843735 24.716899,51.5310661 24.4942012,51.3019531 C24.2715034,51.0728402 23.9622347,50.9486927 23.6429326,50.9602346 C23.3383783,50.9302877 23.0359414,51.0348979 22.8149771,51.2466168 C22.5940128,51.4583357 22.4765794,51.7560281 22.4934897,52.0615836 C22.47137,52.365921 22.5799339,52.665272 22.7919973,52.8846796 C23.0040606,53.1040871 23.2995436,53.2227759 23.6044575,53.2110264 L23.6044575,53.2254545 Z M53.1052199,84.4479765 C53.0330792,83.7121408 52.667566,83.3033431 51.941349,83.3370088 C51.3224662,83.3542738 50.8347586,83.8699735 50.8520235,84.4888563 C50.8692885,85.1077391 51.3849882,85.5954468 52.003871,85.5781818 C52.3071401,85.5900857 52.6010322,85.4717743 52.811466,85.2530701 C53.0218998,85.034366 53.1287998,84.7361337 53.1052199,84.4335484 L53.1052199,84.4479765 Z M73.987566,103.012199 C73.6759628,102.991519 73.3708215,103.107682 73.1518556,103.330343 C72.9328897,103.553005 72.8218492,103.860048 72.8477419,104.171261 C72.8246289,104.479472 72.9419086,104.781643 73.1668961,104.993561 C73.3918837,105.205479 73.7005248,105.304486 74.0068035,105.262991 C74.5881603,105.209187 75.0328548,104.721436 75.0328548,104.137595 C75.0328548,103.553754 74.5881603,103.066003 74.0068035,103.012199 L73.987566,103.012199 Z M26.4131378,29.7556598 C26.3554252,29.0102053 25.9995308,28.5869795 25.2685044,28.6158358 C24.9616752,28.6015541 24.6643784,28.7244243 24.4571587,28.9511579 C24.2499391,29.1778916 24.1542485,29.4850165 24.1960117,29.7893255 C24.1829021,30.0801508 24.2947361,30.3627098 24.5033277,30.565788 C24.7119194,30.7688662 24.997372,30.8730929 25.2877419,30.8521994 C25.5862474,30.8699568 25.8784241,30.7611476 26.0926005,30.5524629 C26.3067769,30.3437782 26.4231372,30.0545258 26.4131378,29.7556598 Z M45.5304399,77.3348974 C45.5015836,76.579824 45.1745455,76.1325513 44.4387097,76.1277419 C44.1322579,76.1005356 43.8296066,76.2112049 43.6129919,76.429679 C43.3963772,76.6481531 43.2882986,76.9517392 43.3181232,77.2579472 C43.2919066,77.5480449 43.3910164,77.8355042 43.5904486,78.047803 C43.7898808,78.2601018 44.0705909,78.376967 44.3617595,78.368915 C44.6565279,78.3984784 44.9502594,78.3036784 45.1721301,78.1073731 C45.3940008,77.9110677 45.5238758,77.6310718 45.5304399,77.3348974 Z M53.143695,72.9006452 C53.2206452,73.5883871 53.5717302,74.0356598 54.2931378,74.0164223 C54.5835053,74.0309628 54.8661635,73.9202639 55.0694293,73.7123993 C55.2726951,73.5045347 55.3770437,73.219471 55.3560117,72.9295015 C55.4081737,72.6258436 55.3160933,72.3152017 55.1068768,72.0890217 C54.8976603,71.8628417 54.5951242,71.7468712 54.2883284,71.7752493 C53.5621114,71.7704399 53.2206452,72.2129032 53.143695,72.9006452 Z M25.3743109,44.3136657 C25.0629747,44.2839673 24.7540995,44.391032 24.5279334,44.6070438 C24.3017672,44.8230555 24.1806364,45.1266903 24.1960117,45.4390616 C24.2104633,46.0336365 24.6943635,46.5093346 25.2890986,46.5136207 C25.8838336,46.5179068 26.3745397,46.0492325 26.3975593,45.4549276 C26.4205788,44.8606228 25.9675955,44.3553959 25.3743109,44.3136657 Z M29.5969501,50.3686804 C30.5011144,50.1474487 30.8810557,49.7097947 30.84739,49.0941935 C30.8625711,48.8002528 30.7423363,48.5155403 30.5210611,48.3214557 C30.2997858,48.127371 30.0018284,48.0452794 29.7123754,48.098651 C29.0390616,48.1515543 28.5773607,48.5795894 28.7024047,49.1855718 C28.793783,49.6232258 29.2843402,49.9791202 29.5969501,50.3686804 Z M35.4643988,58.9919062 C35.4884457,58.0300293 35.0267449,57.6356598 34.4255718,57.6356598 C34.1327327,57.6051769 33.8420612,57.7104887 33.6367059,57.9214702 C33.4313506,58.1324516 33.3339318,58.4258628 33.3723167,58.7177713 C33.3438643,59.0066136 33.4428792,59.2934904 33.6434369,59.5032904 C33.8439946,59.7130904 34.1261226,59.8249207 34.4159531,59.8095015 C34.9278552,59.8612397 35.3898303,59.5009839 35.4643988,58.9919062 Z M31.6794135,43.7076833 C31.6999566,43.4186378 31.5971215,43.1344138 31.3963862,42.925429 C31.1956508,42.7164443 30.9157965,42.6022519 30.6261584,42.6111437 C30.3398036,42.5621131 30.0472632,42.652916 29.839,42.8554734 C29.6307368,43.0580308 29.5318443,43.3479365 29.5729032,43.6355425 C29.5251721,43.9203171 29.6126865,44.2110858 29.8096702,44.4222072 C30.006654,44.6333285 30.2906695,44.7407546 30.5780645,44.7128446 C31.3139003,44.7272727 31.573607,44.3232845 31.6794135,43.7076833 Z" id="Shape" fill="#794C84" fill-rule="nonzero"></path>
            <path d="M128.208563,24.5278592 C127.939238,27.0527859 127.727625,29.582522 127.37173,32.0930205 C127.107214,33.9831085 126.631085,35.8347214 126.284809,37.7103812 C126.246334,37.9123754 126.462757,38.3452199 126.558944,38.3452199 C126.972551,38.3452199 127.520821,38.3452199 127.775718,38.1191789 C129.0978,36.7292739 130.156959,35.1112052 130.901818,33.3434604 C131.209619,32.6893842 131.570323,32.0641642 131.906979,31.4197067 L136.177713,31.5543695 C134.734897,34.7141349 132.9939,37.6767155 130.468974,40.211261 C131.469326,40.7451026 132.474487,41.2837537 133.474839,41.8272141 C135.398592,42.8660411 137.84176,45.7420528 139.55871,48.0794135 C141.051202,50.1913744 142.301481,52.4644622 143.285982,54.8558358 C144.098768,56.7122581 144.079531,58.9197654 144.098768,60.0018768 C144.085254,60.5824498 143.857412,61.1374935 143.45912,61.5601173 C142.500101,62.5821826 141.16692,63.1706571 139.765513,63.1904985 C138.46217,63.1904985 137.158827,63.459824 135.850674,63.5127273 C134.292434,63.5752493 132.729384,63.5127273 131.190381,63.5127273 C131.863695,67.2736657 130.709443,70.5873314 130.074604,73.9587097 C129.843754,74.1078006 129.507097,74.1991789 129.386862,74.4107918 C128.78088,75.4688563 128.328798,76.6279179 127.626628,77.6138416 C127.068925,78.3151311 126.387595,78.908442 125.616305,79.3644575 C124.346628,80.1868622 122.874956,80.0521994 121.475425,79.8790616 C119.736787,79.6539106 118.479034,78.1065576 118.613842,76.3585924 C118.748504,74.9157771 118.892786,73.424868 119.768094,72.1311437 C119.994135,71.8041056 119.845044,71.2269795 119.864282,70.7604692 C119.383343,70.7604692 118.820645,70.6354252 118.464751,70.8518475 C117.100949,71.6381546 115.788544,72.5104141 114.535484,73.4633431 C112.077889,75.3870968 107.475308,74.8195894 105.604457,72.8814076 C104.403213,71.7326256 104.200407,69.8870959 105.123519,68.504868 C105.617136,67.7416654 106.065191,66.9499414 106.465337,66.1338416 C106.543805,65.7781528 106.551974,65.4105537 106.489384,65.0517302 C106.123871,65.1046334 105.628504,65.0228739 105.407273,65.2344868 C103.743226,66.7975367 101.651144,67.4852786 99.5686804,68.2066862 C98.1006307,68.786198 96.4320833,68.500691 95.2402346,67.4660411 C93.1433431,65.7635191 92.1814663,63.2722581 93.7252786,60.8242815 C94.341208,59.8146531 95.0705587,58.8787607 95.8991202,58.0348387 C96.5550103,57.4898072 96.8267278,56.6086122 96.5916716,55.7888563 C93.7896386,56.6385936 90.8549984,56.9646647 87.9347801,56.7507331 C86.9248094,56.6834018 85.3713783,55.509912 85.467566,54.8269795 C85.5974194,53.8651026 85.7465103,52.8166569 86.2611144,52.0567742 C87.1941349,50.6957185 88.4205279,49.5366569 89.4930205,48.2621701 C89.9451026,47.7235191 90.3202346,47.1175367 90.7290323,46.5404106 L91.051261,46.2278006 C92.9046051,45.1311146 94.8331668,44.1668338 96.822522,43.3421701 C100.525748,41.8656891 104.33478,41.0288563 108.191906,40.2353079 L112.433783,39.3648094 C109.514487,36.4503226 106.806804,33.651261 106.864516,29.3901466 L110.615836,28.4042229 C111.010205,29.7556598 111.144868,31.2898534 111.847038,32.4296774 C113.376422,34.9546041 115.439648,36.9889736 118.527273,37.7729032 C118.527273,37.6190029 118.560938,37.4987683 118.527273,37.4602933 C116.762229,35.8058651 117.132551,33.5695015 116.993079,31.5158944 C116.791085,28.6014076 116.762229,25.6724927 116.723754,22.7483871 C116.699707,21.0218182 116.757419,19.2952493 116.868035,17.5686804 C117.063617,14.4586119 117.299277,11.3501466 117.575015,8.24328446 C117.680821,7.06017595 117.762581,5.79530792 118.729267,4.94404692 C119.144915,4.58014888 119.682358,4.38612028 120.234604,4.40058651 C120.957688,4.51604081 121.471856,5.16606646 121.417713,5.89630499 C121.40083,6.21891483 121.363887,6.54016134 121.307097,6.85818182 C121.095484,9.13782991 120.859824,11.417478 120.681877,13.7019355 C120.436598,16.8665103 120.200938,20.031085 120.022991,23.2004692 C119.931613,24.9222287 119.95085,26.6584164 120.022991,28.3849853 C120.085513,30.308739 120.210557,32.198827 120.383695,34.0985337 C120.484692,35.2768328 121.980411,36.806217 123.269326,37.1140176 C123.529032,35.1229326 123.827214,33.1462757 124.038827,31.16 C124.274487,28.9092082 124.433196,26.653607 124.625572,24.4268622 L128.208563,24.5278592 Z M124.476481,73.9635191 C123.688972,73.9568779 123.020301,74.5388699 122.91824,75.3197654 C122.87739,75.6557387 122.980614,75.9933092 123.202378,76.2489796 C123.424142,76.50465 123.743737,76.6545433 124.082111,76.6615836 C124.829821,76.7701341 125.534645,76.2834694 125.698065,75.5458065 C125.731875,74.7948865 125.213321,74.1313835 124.476481,73.9827566 L124.476481,73.9635191 Z M89.699824,54.7259824 C90.1396903,54.7182504 90.5420185,54.4764399 90.7552554,54.0916385 C90.9684924,53.7068372 90.9602425,53.2375055 90.7336132,52.8604362 C90.506984,52.4833668 90.0964058,52.2558457 89.6565396,52.2635777 C89.3373693,52.2539396 89.0285733,52.3775042 88.8041555,52.6046588 C88.5797377,52.8318134 88.4599251,53.1420843 88.4734311,53.4611144 C88.4616816,53.793807 88.5856847,54.1169819 88.8169638,54.3564238 C89.0482429,54.5958656 89.3669241,54.7309992 89.699824,54.7307918 L89.699824,54.7259824 Z M131.834839,58.8764809 C131.856242,58.5389808 131.736222,58.2077974 131.503566,57.962368 C131.270909,57.7169386 130.946607,57.5794053 130.608446,57.5827566 C130.2733,57.564737 129.946172,57.6893318 129.707932,57.9257395 C129.469692,58.1621472 129.342575,58.4883033 129.358006,58.8235777 C129.358006,59.5449853 129.920704,60.016305 130.747918,60.0355425 C131.498182,60.0595894 131.863695,59.7133138 131.834839,58.8812903 L131.834839,58.8764809 Z M98.4721408,65.0902053 C98.7888564,65.0979411 99.0955409,64.9788449 99.3240296,64.7593874 C99.5525182,64.53993 99.6838789,64.238295 99.688915,63.9215249 C99.7021261,63.6169591 99.5896033,63.3203457 99.3777086,63.1011757 C99.1658139,62.8820056 98.8731666,62.7595375 98.5683284,62.7624633 C98.2653693,62.7282828 97.9621809,62.8246582 97.7345633,63.0274949 C97.5069456,63.2303317 97.3764135,63.5204571 97.3756012,63.8253372 C97.3420933,64.1414142 97.4409623,64.4572566 97.6487142,64.6978114 C97.856466,64.9383661 98.1545529,65.0821568 98.4721408,65.0950147 L98.4721408,65.0902053 Z M108.571848,53.393783 C109.168025,53.3780954 109.642353,52.8888107 109.639531,52.292434 C109.692434,51.6768328 108.990264,51.1381818 108.196716,51.1237537 C107.89566,51.0768683 107.589528,51.1683975 107.363616,51.3728388 C107.137703,51.5772801 107.016158,51.8727817 107.032845,52.1770088 C107.008798,52.79261 107.730205,53.3841642 108.576657,53.3841642 L108.571848,53.393783 Z M110.264751,68.7838123 C109.947768,68.792335 109.647856,68.9292978 109.433832,69.1632729 C109.219808,69.3972481 109.110048,69.7081481 109.129736,70.0246334 C109.130224,70.3293538 109.25749,70.6201291 109.481015,70.8272316 C109.704539,71.034334 110.004163,71.1390844 110.308035,71.1163636 C110.613172,71.1229112 110.907883,71.0052439 111.124602,70.7903383 C111.341322,70.5754328 111.461461,70.2817211 111.457478,69.9765396 C111.461335,69.6589918 111.337885,69.3531203 111.114687,69.1272122 C110.89149,68.901304 110.587131,68.7741701 110.26956,68.7741935 L110.264751,68.7838123 Z M126.073196,57.1931965 C126.756129,57.0729619 127.270733,56.736305 127.246686,55.9764223 C127.258285,55.6715394 127.134015,55.3772245 126.907418,55.172916 C126.680821,54.9686074 126.375256,54.8753657 126.073196,54.9183578 C125.751746,54.890715 125.43434,55.0054149 125.204818,55.2321612 C124.975295,55.4589075 124.856741,55.7748937 124.880469,56.0966569 C124.87566,56.7940176 125.385455,57.1210557 126.078006,57.1883871 L126.073196,57.1931965 Z M107.797537,58.1550733 C107.826393,57.274956 107.508974,56.8517302 106.83566,56.8180645 C106.532082,56.7641352 106.221051,56.8590074 105.999253,57.0731895 C105.777456,57.2873716 105.671779,57.5948996 105.715073,57.900176 C105.678231,58.1677834 105.766321,58.4374877 105.954019,58.6317561 C106.141718,58.8260246 106.408234,58.9233369 106.67695,58.8957185 C107.335836,58.9341935 107.730205,58.6744868 107.778299,58.1935484 L107.797537,58.1550733 Z M122.028504,60.3770088 C121.460997,60.4731965 121.023343,60.7088563 121.032962,61.4446921 C121.001282,61.7327948 121.105293,62.019259 121.314435,62.2199231 C121.523578,62.4205871 121.814099,62.5126599 122.100645,62.4690909 C122.387035,62.5093864 122.675761,62.4131758 122.880736,62.2091458 C123.085711,62.0051157 123.183254,61.7168368 123.144282,61.4302639 C123.120235,60.7136657 122.701818,60.4635777 122.009267,60.391437 L122.028504,60.3770088 Z" id="Shape" fill="#794C84" fill-rule="nonzero"></path>
            <path d="M147.946276,12.1148387 C147.28739,15.6353079 146.022522,18.8479765 142.843519,20.8486804 C141.940895,21.3491357 140.952227,21.6754288 139.929032,21.8105572 C139.335672,21.8444512 138.857805,22.3100132 138.808446,22.9022874 C138.327507,24.8260411 137.808094,26.778651 137.283871,28.7072141 C137.180452,29.0024143 137.046676,29.2860843 136.884692,29.5536657 L132.825572,29.4382405 C133.417126,27.6347214 134.066393,25.8456305 134.590616,24.0228739 C134.898416,22.9455718 135.009032,21.8105572 135.220645,20.7092082 C135.942915,17.3895168 136.334388,14.0064128 136.389326,10.6095015 C136.436091,9.04070013 136.624422,7.4793261 136.952023,5.94439883 C137.044242,5.44040377 137.333701,4.99401803 137.756225,4.7042099 C138.178749,4.41440177 138.699426,4.30511749 139.202815,4.40058651 C140.164692,4.60739003 140.554252,5.51155425 140.41478,6.70428152 C140.289736,7.74791789 140.352258,8.81560117 140.318592,9.87366569 C140.232023,12.6246334 140.135836,15.3756012 140.044457,18.1217595 C141.49492,17.9943977 142.752081,17.0659184 143.300411,15.7170674 C143.675543,14.5243402 143.997771,13.3123754 144.344047,12.1052199 L147.946276,12.1148387 Z" id="Path" fill="#794C84"></path>
            <path d="M101.728094,9.86404692 C101.766569,10.6191202 101.651144,11.4270968 101.877185,12.1244575 C102.358123,13.6778886 103.853842,13.7740762 105.416891,14.096305 C105.604457,13.2065689 105.979589,12.3024047 105.945924,11.417478 C105.928178,9.55948082 106.205774,7.71046516 106.768328,5.93958944 C106.832175,5.69591398 106.915816,5.45785978 107.018416,5.22780059 C107.37912,4.4342522 108.153431,3.95331378 108.836364,4.26592375 C109.379824,4.5256305 109.79824,5.37208211 109.95695,6.03096774 C110.11566,6.68985337 109.860762,7.51225806 109.846334,8.26252199 C109.788622,11.1866276 109.754956,14.1155425 109.702053,17.0396481 C109.702053,17.9101466 109.64434,18.7806452 109.615484,19.6559531 L105.883402,20.2330792 L105.883402,18.0784751 C103.209384,18.0207625 100.400704,18.165044 98.7414663,15.3178886 C97.8469208,13.783695 97.2072727,12.2206452 97.8228739,10.4171261 L101.728094,9.86404692 Z" id="Path" fill="#794C84"></path>
            <path d="M125.351789,14.7503812 C125.351789,13.8895015 125.351789,13.0190029 125.42393,12.1677419 C125.625924,10.3017009 125.799062,8.42604106 126.169384,6.59366569 C126.409763,5.62580872 126.830746,4.71204816 127.410205,3.90041056 C127.759206,3.48763664 128.285203,3.26757661 128.824164,3.3088563 C129.288466,3.51959661 129.615611,3.94976507 129.694663,4.45348974 C129.754776,5.69478555 129.725845,6.93879363 129.608094,8.17595308 C129.545572,9.01278592 129.281056,9.83519062 129.208915,10.6720235 C129.083871,12.1148387 129.035777,13.557654 128.954018,15.0004692 L125.351789,14.7503812 Z" id="Path" fill="#794C84"></path>
            <path d="M125.015132,22.3636364 C125.096891,20.9208211 125.18346,19.4780059 125.250792,18.0640469 C125.250792,17.6360117 125.226745,17.2031672 125.212317,16.775132 L128.939589,17.0300293 C128.820958,18.8672141 128.702326,20.7076051 128.583695,22.5512023 L125.015132,22.3636364 Z" id="Path" fill="#794C84"></path>
            <path d="M106.566334,27.4134897 C106.402815,25.7109677 106.234487,24.0036364 106.085396,22.296305 C106.376884,22.1827141 106.680155,22.102057 106.98956,22.0558358 C107.92739,22.0221701 108.855601,21.3344282 109.79824,22.0221701 C109.976188,23.4649853 110.158944,24.951085 110.341701,26.4179472 L106.566334,27.4134897 Z" id="Path" fill="#794C84"></path>
            <path d="M145.849384,4.14087977 C145.964288,3.18837636 146.165506,2.24828432 146.450557,1.33219941 C146.883299,0.404317319 147.935782,-0.0602551754 148.912962,0.245278592 C149.586276,0.456891496 150.269208,1.38991202 150.153783,2.06803519 C150.02393,2.83272727 149.797889,3.5829912 149.610323,4.3428739 L145.849384,4.14087977 Z" id="Path" fill="#794C84"></path>
            <path d="M144.733607,10.0660411 C145.002933,8.78353861 145.269052,7.50103617 145.531965,6.21853372 L149.326569,6.3772434 C149.042815,7.61325513 148.763871,8.84445748 148.484927,10.0804692 L144.733607,10.0660411 Z" id="Path" fill="#794C84"></path>
            <path d="M98.3422874,8.17595308 C98.4767909,7.32611294 98.6663591,6.48590787 98.9097947,5.66064516 C99.0145732,5.30565742 99.2594061,5.00865152 99.587879,4.83806334 C99.916352,4.66747516 100.300133,4.63801857 100.650792,4.75648094 C101.250299,4.93733038 101.749288,5.35634191 102.031085,5.91554252 C102.237889,6.59366569 102.031085,7.40645161 101.963754,8.16633431 C101.572743,8.01130291 101.161222,7.91409335 100.74217,7.87777126 C99.9390029,7.9258651 99.1454545,8.08457478 98.3422874,8.17595308 Z" id="Path" fill="#794C84"></path>
            <path d="M119.854663,45.5881525 C121.642351,45.5722419 123.423343,45.8086282 125.144985,46.2903226 C127.256305,46.8434018 128.723167,47.8052786 129.747566,49.2144282 C130.228504,49.8685044 130.137126,51.0997067 126.323284,52.2443402 C123.981114,52.9465103 119.590147,53.206217 116.223578,51.9365396 C111.548856,50.1474487 113.698651,47.5455718 114.107449,47.24739 C116.459238,45.2082111 119.840235,45.6891496 119.854663,45.5881525 Z" id="Path" fill="#FFFFFF"></path>
            <path d="M19.203871,24.311437 C19.1173021,26.9085044 18.5690323,27.5385337 15.6208798,28.4667449 C13.3989443,28.9476833 11.1818182,29.4286217 8.95507331,29.8518475 C7.10826979,30.2029326 5.26146628,30.4241642 3.38580645,29.9432258 C2.34966967,29.6593273 1.43968041,29.0340275 0.803167155,28.168563 C0.00961876833,27.2066862 0.77431085,26.0716716 1.76504399,25.0857478 C2.12888372,24.7382483 2.54216081,24.4465233 2.99143695,24.2200587 C3.47051643,24.0265477 3.96220955,23.8658636 4.4631085,23.7391202 C3.8900515,23.4755452 3.33137816,23.1817601 2.78944282,22.8590029 C2.14017595,22.4261584 1.53900293,21.8971261 0.918592375,21.445044 C0.11991883,20.9308061 -0.204273548,19.9239974 0.144281525,19.0403519 C0.548269795,18.0784751 1.53900293,17.7370088 2.54897361,17.6504399 C3.21035758,17.6071409 3.87386529,17.6071409 4.53524927,17.6504399 C5.17970674,17.6792962 5.81935484,17.7802933 6.70428152,17.8812903 C6.27624633,17.2464516 5.96363636,16.8087977 5.67507331,16.3470968 C4.8286217,15.0052786 4.81900293,14.1876833 5.62697947,13.3748974 C6.5888563,12.4130205 7.87296188,12.3649267 9.16187683,13.0478592 C11.6819941,14.384868 13.2883284,16.6356598 15.0678006,18.7181232 C16.0008211,19.8146628 16.9290323,20.9160117 17.7947214,22.0846921 C18.3189443,22.7291496 18.7565982,23.5659824 19.203871,24.311437 Z" id="Path" fill="#F7C548"></path>
            <path d="M90.7338416,46.5740762 C90.325044,47.1512023 89.949912,47.7571848 89.4978299,48.2958358 C88.4253372,49.5703226 87.1989443,50.7293842 86.2659238,52.0904399 C85.7513196,52.8503226 85.6022287,53.9083871 85.4723754,54.8606452 C85.3761877,55.5387683 86.9151906,56.7122581 87.9395894,56.7843988 C90.8598078,56.9983304 93.794448,56.6722593 96.5964809,55.822522 C96.8315372,56.6422779 96.5598197,57.5234729 95.9039296,58.0685044 C95.0753681,58.9124264 94.3460174,59.8483188 93.730088,60.8579472 C92.1862757,63.3059238 93.1481525,65.7971848 95.245044,67.4997067 C96.4368927,68.5343567 98.10544,68.8198637 99.5734897,68.2403519 C101.655953,67.5189443 103.748035,66.8312023 105.412082,65.2681525 C105.633314,65.0565396 106.12868,65.1382991 106.494194,65.0853959 C106.556783,65.4442194 106.548614,65.8118185 106.470147,66.1675073 C106.07,66.9836071 105.621945,67.775331 105.128328,68.5385337 C104.205217,69.9207616 104.408022,71.7662912 105.609267,72.9150733 C107.480117,74.838827 112.082698,75.4159531 114.540293,73.4970088 C115.793353,72.5440798 117.105759,71.6718203 118.46956,70.8855132 C118.825455,70.6690909 119.397771,70.8133724 119.869091,70.7941349 C119.869091,71.2750733 119.998944,71.8377713 119.772903,72.1648094 C118.897595,73.4585337 118.753314,74.939824 118.618651,76.3922581 C118.483844,78.1402233 119.741597,79.6875763 121.480235,79.9127273 C122.879765,80.0858651 124.365865,80.2205279 125.621114,79.3981232 C126.392405,78.9421077 127.073734,78.3487968 127.631437,77.6475073 C128.333607,76.6615836 128.785689,75.502522 129.391672,74.4444575 C129.511906,74.2328446 129.87261,74.1414663 130.079413,73.9923754 C130.054237,74.5160443 129.999644,75.037884 129.915894,75.5554252 C129.622522,76.9982405 129.285865,78.40739 128.954018,79.8309677 C127.522001,80.9664098 125.906983,81.8495464 124.178299,82.4424633 C122.047742,83.1686804 117.810674,82.288563 116.483284,79.6434018 C116.163985,78.8695962 115.970763,78.0496188 115.910968,77.2146628 C115.864466,76.4779569 115.864466,75.7390518 115.910968,75.002346 L114.530674,75.7478006 C112.499682,76.8827792 110.104166,77.1746626 107.860059,76.5605865 C106.908488,76.3485449 105.978079,76.0507496 105.080235,75.6708504 C103.031692,74.7853994 101.929137,72.5436059 102.478358,70.3805279 C102.560117,69.9909677 102.632258,69.6014076 102.742874,69.0242815 C99.126217,70.6065689 95.721173,71.2077419 92.7104985,68.1441642 C89.9451026,65.3258651 90.4645161,62.257478 92.0756598,59.1121408 C91.0483892,59.2193149 90.0160615,59.2706905 88.9832258,59.2660411 C87.2903226,59.1794721 85.7272727,58.751437 84.4960704,57.4096188 C82.9426393,55.7263343 82.7069795,54.6346041 83.6832845,52.5473314 C83.7506158,52.4078592 83.8035191,52.2635777 83.8660411,52.1192962 C85.3761877,50.6283871 86.8382405,49.0845748 88.4301466,47.685044 C89.0409384,47.1319648 89.9595308,46.9251613 90.7338416,46.5740762 Z" id="Path" fill="#F7C548"></path>
            <path d="M91.5851026,158.873196 C92.1958944,158.252786 92.7826393,157.603519 93.4319062,157.016774 C94.291033,156.310919 95.5489721,156.386395 96.3175367,157.189912 C96.5195308,157.377478 96.7167155,157.579472 96.9139003,157.776657 C97.3467449,158.632727 97.8373021,159.464751 98.1883871,160.354487 C98.5394721,161.244223 98.0585337,161.797302 97.2794135,162.143578 C95.8365982,162.759179 94.3264516,162.691848 92.8355425,162.460997 C92.4892669,162.408094 92.1574194,161.980059 91.9073314,161.638592 C91.6572434,161.297126 91.5658651,160.830616 91.3061584,160.498768 C90.8059824,159.825455 91.4312023,159.397419 91.5851026,158.873196 Z" id="Path" fill="#F7C548"></path>
            <path d="M117.878006,156.809971 C118.288657,156.593269 118.662077,156.312393 118.984164,155.977947 C119.869091,154.655367 121.052199,154.679413 122.350733,155.064164 L122.562346,155.25173 C123.278944,156.603167 124.005161,157.935367 124.697713,159.306041 C125.068035,160.065924 124.447625,160.917185 123.428035,160.897947 C121.994789,160.881484 120.565114,160.751221 119.152493,160.508387 C118.734076,160.436246 118.31085,159.868739 118.070381,159.426276 C117.769022,158.845312 117.561265,158.220416 117.45478,157.574663 C117.411496,157.343812 117.724106,157.060059 117.878006,156.809971 Z" id="Path" fill="#F7C548"></path>
            <path d="M31.1503812,160.344868 C31.4870381,160.667097 31.6313196,160.513196 31.8140762,160.152493 C32.0084309,159.784247 32.3296492,159.49891 32.7182405,159.349326 C33.6394595,159.066422 34.6028842,158.945994 35.5653959,158.993431 C36.2868035,159.089619 36.9408798,159.724457 37.6141935,160.128446 C37.7373667,160.222118 37.8487877,160.330309 37.9460411,160.450674 C38.1480352,160.729619 38.3596481,161.003754 38.5520235,161.292317 C39.1916716,162.254194 38.8742522,163.192023 37.7777126,163.61044 C35.5637275,164.469106 33.0518426,163.635846 31.7900293,161.624164 C31.5519909,161.210602 31.3384083,160.783436 31.1503812,160.344868 Z" id="Path" fill="#F7C548"></path>
            <path d="M68.5481525,157.468856 C69.6639296,156.309795 71.3327859,156.319413 72.6409384,155.545103 C75.2764809,155.771144 76.0075073,157.406334 76.541349,159.23871 C76.7144868,159.825455 76.4836364,160.368915 75.8055132,160.397771 C74.7842089,160.517002 73.7511701,160.491095 72.7371261,160.320821 C71.0249853,159.916833 69.4571261,159.132903 68.5481525,157.468856 Z" id="Path" fill="#F7C548"></path>
            <path d="M132.825572,29.4141935 L136.884692,29.5296188 L136.177713,31.5784164 L131.906979,31.4437537 C132.209971,30.7800587 132.517771,30.0923167 132.825572,29.4141935 Z" id="Path" fill="#F7C548"></path>
            <path d="M106.566334,27.4134897 L110.327273,26.4179472 L110.615836,28.4138416 L106.850088,29.4286217 C106.768328,28.7456891 106.662522,28.0771848 106.566334,27.4134897 Z" id="Path" fill="#F7C548"></path>
            <path d="M109.783812,22.0125513 C108.821935,21.3248094 107.912962,22.0125513 106.975132,22.046217 C106.665726,22.0924383 106.362456,22.1730953 106.070968,22.2866862 L105.868974,20.2475073 L109.601056,19.6703812 L109.783812,22.0125513 Z" id="Path" fill="#F7C548"></path>
            <path d="M149.326569,6.3772434 L145.531965,6.21853372 L145.849384,4.14087977 L149.610323,4.3428739 C149.514135,5.02099707 149.417947,5.69912023 149.326569,6.3772434 Z" id="Path" fill="#F7C548"></path>
            <path d="M144.733607,10.0660411 L148.484927,10.0660411 C148.306979,10.7441642 148.129032,11.4222874 147.946276,12.1004106 L144.344047,12.1004106 L144.733607,10.0660411 Z" id="Path" fill="#F7C548"></path>
            <path d="M98.3422874,8.17595308 C99.1454545,8.07014663 99.9390029,7.91143695 100.746979,7.87777126 C101.163252,7.91809239 101.571483,8.01853023 101.958944,8.17595308 C101.925279,8.6568915 101.896422,9.18111437 101.862757,9.68609971 L101.713666,9.87366569 L97.7940176,10.4267449 L98.3422874,8.17595308 Z" id="Path" fill="#F7C548"></path>
            <path d="M128.939589,17.0300293 L125.212317,16.775132 C125.260411,16.0970088 125.308504,15.423695 125.351789,14.7503812 L128.954018,14.9956598 L128.939589,17.0300293 Z" id="Path" fill="#F7C548"></path>
            <path d="M68.6587683,82.375132 C69.4426979,82.476129 69.6543109,83.0003519 69.6831672,83.7073314 C69.6897221,85.0914809 69.7764362,86.4740891 69.9428739,87.8482111 C70.3564809,90.3683284 71.0153666,92.8307331 72.6120821,94.9228152 C72.8143603,95.1108762 72.9260373,95.3768154 72.9186748,95.6529117 C72.9113122,95.929008 72.7856205,96.1886173 72.573607,96.3656305 C72.0445748,96.8465689 71.5299707,96.6590029 71.0634604,96.221349 C69.9380645,95.1632845 69.4956012,93.730088 68.9858065,92.3497947 C67.9495229,89.596687 67.4911322,86.6597125 67.6391789,83.7217595 C67.677654,83.0051613 67.8556012,82.4809384 68.6587683,82.375132 Z" id="Path" fill="#F7C548"></path>
            <path d="M84.5393548,82.5290323 C84.9481525,82.5290323 85.1838123,83.8035191 85.2078592,84.2604106 C85.3954252,88.0309677 87.2903226,91.0320235 89.5843988,93.79261 C90.0220528,94.3168328 89.9787683,95.2354252 89.7334897,95.4662757 C89.333663,95.6926223 88.8444015,95.6926223 88.4445748,95.4662757 C87.6034204,94.5733858 86.8601532,93.5931116 86.2274487,92.5421701 C84.678827,89.8825806 83.452434,87.0931378 83.5486217,83.9141349 C83.5630499,83.2552493 83.7265689,82.7214076 84.5393548,82.5290323 Z" id="Path" fill="#F7C548"></path>
            <path d="M76.0988856,82.2837537 C76.3922581,82.2837537 76.7192962,83.1879179 76.829912,83.5197654 C77.7917889,86.3476833 78.4170088,89.1178886 79.4029326,91.9265689 C79.6482111,92.6191202 80.2157185,93.191437 80.5283284,93.8743695 C81.0958358,94.6053959 79.8742522,95.3171848 79.2971261,94.7977713 C78.1787228,93.8720452 77.3574725,92.6376607 76.9357185,91.2484457 C76.3441642,89.1371261 75.8968915,86.9873314 75.4448094,84.8375367 C75.2668622,84.0055132 75.377478,82.375132 76.0988856,82.2837537 Z" id="Path" fill="#F7C548"></path>
            <path d="M45.3957771,62.757654 C45.1697361,62.4258065 45.3957771,61.8679179 45.9151906,61.468739 C46.4346041,61.0695601 49.5799413,60.3866276 49.9983578,60.5068622 C50.4492621,60.6386283 50.8275273,60.947487 51.0468035,61.3629326 C51.0749452,61.8113518 50.8980398,62.2483083 50.5658651,62.5508504 C50.2060603,62.8502876 49.7726306,63.047905 49.3106158,63.1231672 C48.4160704,63.3540176 46.0883284,63.7820528 45.3957771,62.757654 Z" id="Path" fill="#F7C548"></path>
            <path d="M68.629912,58.4676833 C69.2546836,58.416123 69.8830529,58.4274014 70.5055718,58.501349 C70.8614663,58.5734897 71.3664516,58.9438123 71.4145455,59.2468035 C71.4469291,59.6903176 71.2687772,60.1232265 70.933607,60.4154839 C69.8130205,61.1994135 67.0860997,60.8964223 66.4993548,60.5116716 C66.1146041,60.2615836 65.6721408,59.7710264 65.7009971,59.4247507 C65.7298534,59.0784751 66.2685044,58.6071554 66.6628739,58.5061584 C67.3147348,58.4157197 67.9750131,58.4028047 68.629912,58.4676833 Z" id="Path" fill="#F7C548"></path>
            <path d="M60.5309091,58.9197654 C60.8833104,59.0038342 61.1827464,59.2349778 61.3533138,59.5546041 C61.4374766,59.9300539 61.3934535,60.3228754 61.2282698,60.6703812 C61.095394,60.9241029 60.8669546,61.1144691 60.5934311,61.1994135 C59.1506158,61.6034018 57.7078006,62.2286217 56.3034604,61.2859824 C55.9127806,61.0212413 55.6688675,60.5886071 55.6445748,60.1173021 C55.8290813,59.680884 56.2252173,59.3701535 56.6930205,59.2948974 C57.9563838,59.0406885 59.242233,58.915004 60.5309091,58.9197654 Z" id="Path" fill="#F7C548"></path>
            <path d="M78.5372434,57.8617009 C79.2971261,57.8617009 79.9800587,57.9194135 80.4032845,58.7129619 C80.8265103,59.5065103 80.4898534,60.266393 79.5953079,60.4106745 C78.8613515,60.5848546 78.1083367,60.6656502 77.3541349,60.6511437 C76.7241972,60.5811723 76.135415,60.3037002 75.6804692,59.8624047 C75.088915,59.2083284 75.502522,58.3378299 76.3874487,58.1646921 C77.0992375,58.0252199 77.8206452,57.9626979 78.5372434,57.8617009 Z" id="Path" fill="#F7C548"></path>
            <path d="M94.4466862,136.774076 C93.9657478,136.774076 93.5329032,136.182522 93.4559531,135.812199 C93.3816398,135.560749 93.4458134,135.288747 93.6246834,135.09703 C93.8035535,134.905313 94.0704583,134.822457 94.3264516,134.879179 C94.7400952,135.00168 95.0650253,135.323 95.1921408,135.735249 C95.2258065,136.052669 94.9516716,136.774076 94.4466862,136.774076 Z" id="Path" fill="#F7C548"></path>
            <path d="M116.954604,133.056422 C117.502874,133.056422 117.772199,133.729736 117.820293,134.104868 C117.873777,134.36461 117.784308,134.633125 117.585719,134.808876 C117.38713,134.984628 117.10973,135.040791 116.858416,134.956129 C116.459039,134.796298 116.165227,134.448411 116.074487,134.027918 C116.087294,133.531016 116.461377,133.118093 116.954604,133.056422 Z" id="Path" fill="#F7C548"></path>
            <path d="M97.5343109,133.758592 C97.0533724,133.758592 96.7455718,133.147801 96.6734311,132.796716 C96.601222,132.54358 96.6687953,132.271139 96.8509277,132.081088 C97.0330601,131.891037 97.3023802,131.811937 97.5583578,131.873314 C97.9687614,132.001796 98.2880515,132.326498 98.4096188,132.739003 C98.4529032,133.037185 98.0008211,133.758592 97.5343109,133.758592 Z" id="Path" fill="#F7C548"></path>
            <path d="M119.157302,130.661349 C119.157302,131.142287 118.604223,131.450088 118.2339,131.522229 C117.980815,131.58995 117.710757,131.519843 117.522571,131.337568 C117.334384,131.155293 117.255697,130.88761 117.315308,130.632493 C117.449245,130.223015 117.77688,129.906182 118.190616,129.786041 C118.675007,129.822624 119.072957,130.182956 119.157302,130.661349 Z" id="Path" fill="#F7C548"></path>
            <path d="M96.3271554,129.309912 C96.2093367,129.72437 95.8942946,130.053814 95.4855132,130.190029 C95.2302587,130.254032 94.9602116,130.177787 94.776122,129.989738 C94.5920323,129.80169 94.5215489,129.530081 94.5909677,129.276246 C94.6582991,128.905924 94.8121994,128.256657 95.3027566,128.256657 C95.8284324,128.363482 96.2349705,128.781472 96.3271554,129.309912 Z" id="Path" fill="#F7C548"></path>
            <path d="M116.464047,128.07871 C115.915777,128.07871 115.675308,127.463109 115.603167,127.092786 C115.53236,126.839301 115.601391,126.567281 115.7845,126.378233 C115.967609,126.189185 116.237288,126.11151 116.492903,126.174194 C116.902614,126.304968 117.220105,126.631479 117.339355,127.044692 C117.382639,127.362111 117.017126,128.07871 116.464047,128.07871 Z" id="Path" fill="#F7C548"></path>
            <path d="M125.789443,43.4624047 C125.529736,43.8134897 125.361408,44.0347214 125.197889,44.2607625 C124.853059,44.8156798 124.160636,45.0444625 123.553079,44.8042229 C120.951202,44.1164809 118.339707,43.4672141 115.723402,42.827566 C114.982757,42.6448094 114.439296,42.2985337 114.665337,41.476129 C114.891378,40.6537243 115.593548,40.5912023 116.2861,40.7691496 C118.46956,41.3174194 120.648211,41.8753079 122.812434,42.4957185 C123.456891,42.6832845 123.86088,42.6592375 124.216774,42.0147801 C124.364002,41.6907708 124.639999,41.4430795 124.97799,41.3316338 C125.315981,41.2201882 125.685175,41.2551408 125.996246,41.4280352 C127.390968,42.0628739 128.795308,42.6929032 130.151554,43.4046921 C130.41607,43.5441642 130.483402,44.0491496 130.632493,44.3665689 C130.175601,44.5397067 129.670616,44.9533138 129.285865,44.8475073 C128.093138,44.5108504 126.967742,43.9481525 125.789443,43.4624047 Z" id="Path" fill="#F7C548"></path>
            <path d="M124.476481,73.9827566 C125.215244,74.1293214 125.736279,74.7933863 125.702874,75.5458065 C125.539364,76.2855813 124.831522,76.7728791 124.082111,76.6615836 C123.746645,76.6553389 123.429185,76.5086468 123.207013,76.2572179 C122.984841,76.005789 122.878338,75.6726873 122.913431,75.3390029 C123.015707,74.5562698 123.687146,73.9736666 124.476481,73.9827566 Z" id="Path" fill="#F7C548"></path>
            <path d="M89.699824,54.7307918 C89.3677871,54.7309552 89.0498737,54.5964783 88.8187417,54.358095 C88.5876097,54.1197118 88.4630142,53.7977973 88.4734311,53.4659238 C88.4599251,53.1468937 88.5797377,52.8366228 88.8041555,52.6094682 C89.0285733,52.3823135 89.3373693,52.258749 89.6565396,52.2683871 C90.0964058,52.260655 90.506984,52.4881762 90.7336133,52.8652455 C90.9602426,53.2423149 90.9684925,53.7116466 90.7552555,54.0964479 C90.5420185,54.4812493 90.1396903,54.7230598 89.699824,54.7307918 Z" id="Path" fill="#F7C548"></path>
            <path d="M98.4721408,65.0950147 C98.1554811,65.082057 97.8582223,64.9389303 97.6506241,64.6994639 C97.4430258,64.4599975 97.3435111,64.1454424 97.3756012,63.8301466 C97.3764135,63.5252665 97.5069456,63.235141 97.7345633,63.0323043 C97.9621809,62.8294676 98.2653693,62.7330921 98.5683284,62.7672727 C98.8731666,62.7643469 99.1658139,62.886815 99.3777086,63.1059851 C99.5896033,63.3251551 99.7021261,63.6217685 99.688915,63.9263343 C99.6838789,64.2431044 99.5525182,64.5447394 99.3240296,64.7641968 C99.0955409,64.9836543 98.7888564,65.1027505 98.4721408,65.0950147 Z" id="Path" fill="#F7C548"></path>
            <path d="M110.26956,68.7741935 C110.586283,68.7729087 110.890405,68.898158 111.114364,69.1221169 C111.338323,69.3460758 111.463572,69.6501977 111.462287,69.9669208 C111.466271,70.2721023 111.346131,70.565814 111.129412,70.7807196 C110.912693,70.9956252 110.617982,71.1132924 110.312845,71.1067449 C110.008972,71.1294657 109.709349,71.0247153 109.485824,70.8176128 C109.262299,70.6105103 109.135034,70.319735 109.134545,70.0150147 C109.114857,69.6985294 109.224618,69.3876293 109.438641,69.1536542 C109.652665,68.919679 109.952578,68.7827162 110.26956,68.7741935 Z" id="Path" fill="#F7C548"></path>
            <path d="M125.015132,22.3636364 L128.583695,22.5512023 L128.208563,24.5278592 L124.649619,24.3595308 C124.769853,23.7054545 124.890088,23.0369501 125.015132,22.3636364 Z" id="Path" fill="#F7C548"></path>
            <path d="M126.078006,57.1883871 C125.385455,57.1210557 124.87566,56.7940176 124.885279,56.0918475 C124.86155,55.7700843 124.980104,55.4540981 125.209627,55.2273518 C125.43915,55.0006055 125.756555,54.8859056 126.078006,54.9135484 C126.380065,54.8705563 126.685631,54.963798 126.912227,55.1681066 C127.138824,55.3724152 127.263094,55.66673 127.251496,55.9716129 C127.275543,56.7507331 126.760938,57.0681525 126.078006,57.1883871 Z" id="Path" fill="#ED7ED9"></path>
            <path d="M107.778299,58.1935484 C107.749443,58.7033431 107.335836,58.9582405 106.662522,58.9341935 C106.393806,58.961812 106.12729,58.8644997 105.939591,58.6702312 C105.751892,58.4759628 105.663802,58.2062585 105.700645,57.938651 C105.657351,57.6333746 105.763028,57.3258467 105.984825,57.1116646 C106.206622,56.8974825 106.517654,56.8026102 106.821232,56.8565396 C107.489736,56.8661584 107.807155,57.2893842 107.778299,58.1935484 Z" id="Path" fill="#ED7ED9"></path>
            <path d="M115.256891,57.8665103 C114.969409,57.9080861 114.67904,57.8126858 114.472233,57.6087114 C114.265426,57.4047371 114.16603,57.1157119 114.203636,56.8276833 C114.203636,56.1447507 114.56915,55.6638123 115.199179,55.7407625 C115.731276,55.8221436 116.13303,56.2660816 116.161056,56.8036364 C116.1569,57.3301638 115.775942,57.7779927 115.256891,57.8665103 Z" id="Path" fill="#ED7ED9"></path>
            <path d="M122.009267,60.391437 C122.701818,60.4635777 123.125044,60.7136657 123.125044,61.4446921 C123.164016,61.7312649 123.066473,62.0195439 122.861498,62.2235739 C122.656524,62.4276039 122.367797,62.5238146 122.081408,62.4835191 C121.794862,62.527088 121.504341,62.4350152 121.295198,62.2343512 C121.086055,62.0336872 120.982045,61.7472229 121.013724,61.4591202 C121.004106,60.7232845 121.44176,60.4876246 122.009267,60.391437 Z" id="Path" fill="#ED7ED9"></path>
            <path d="M111.731613,61.8053959 C111.717586,61.2105911 112.176563,60.7112408 112.77044,60.6751906 C113.354793,60.6672222 113.834964,61.1344741 113.842933,61.718827 C113.850901,62.3031799 113.383649,62.7833512 112.799296,62.7913196 C112.371261,62.7528446 111.731613,62.6422287 111.731613,61.8053959 Z" id="Path" fill="#ED7ED9"></path>
            <path d="M108.576657,53.3841642 C107.749443,53.3841642 107.008798,52.7781818 107.032845,52.16739 C107.016158,51.8631629 107.137703,51.5676613 107.363616,51.36322 C107.589528,51.1587787 107.89566,51.0672495 108.196716,51.1141349 C108.995073,51.1141349 109.697243,51.6672141 109.639531,52.2828152 C109.642419,52.8773753 109.170944,53.365917 108.576657,53.3841642 Z" id="Path" fill="#ED7ED9"></path>
            <path d="M131.834839,58.8812903 C131.863695,59.7133138 131.498182,60.0595894 130.747918,60.0403519 C129.920704,60.0403519 129.372434,59.5594135 129.358006,58.8283871 C129.342575,58.4931127 129.469692,58.1669565 129.707932,57.9305488 C129.946172,57.6941411 130.2733,57.5695464 130.608446,57.587566 C130.946607,57.5842146 131.270909,57.7217479 131.503566,57.9671774 C131.736222,58.2126068 131.856242,58.5437901 131.834839,58.8812903 Z" id="Path" fill="#ED7ED9"></path>
            <path d="M42.6544282,108.211144 C42.6544282,108.961408 42.351437,109.495249 41.5626979,109.586628 C40.9567155,109.653959 40.2497361,108.850792 40.2160704,108.143812 C40.2124944,107.811501 40.3482849,107.492885 40.5904761,107.265317 C40.8326673,107.037749 41.1591112,106.922038 41.4905572,106.946276 C42.2696774,106.970323 42.6496188,107.38393 42.6544282,108.211144 Z" id="Path" fill="#ED7ED9"></path>
            <path d="M29.3372434,62.5219941 C28.2647507,62.4931378 27.6491496,61.9544868 27.6780059,61.2571261 C27.7568819,60.5783507 28.3365473,60.0693256 29.019824,60.078827 C29.7325792,60.1572892 30.2795529,60.7472833 30.3039296,61.4639296 C30.3223931,61.7340166 30.2295305,61.9998952 30.0469294,62.199757 C29.8643284,62.3996188 29.6078956,62.5160537 29.3372434,62.5219941 Z" id="Path" fill="#ED7ED9"></path>
            <path d="M40.1824047,117.031554 C40.1824047,117.676012 39.4994721,118.373372 38.9031085,118.272375 C38.2416831,118.22893 37.7301344,117.675105 37.7392375,117.012317 C37.7193857,116.679411 37.8375903,116.353037 38.0660151,116.110051 C38.29444,115.867065 38.6128971,115.728943 38.946393,115.728211 C39.627283,115.790528 40.1562581,116.348319 40.1824047,117.031554 Z" id="Path" fill="#ED7ED9"></path>
            <path d="M29.4190029,35.9886217 C29.4509656,36.2910808 29.3449241,36.5918389 29.1303294,36.8073666 C28.9157347,37.0228943 28.6154394,37.1302396 28.3128446,37.0995894 C27.9468655,37.1229086 27.5880896,36.9903911 27.3251397,36.7347708 C27.0621897,36.4791504 26.9195851,36.1242632 26.9325513,35.7577713 C26.9614076,34.9690323 27.4134897,34.6612317 28.1637537,34.6660411 C28.5146419,34.6454602 28.8567429,34.7806985 29.0987105,35.0356452 C29.3406781,35.2905919 29.4578732,35.6392863 29.4190029,35.9886217 Z" id="Path" fill="#ED7ED9"></path>
            <path d="M47.7427566,115.146276 C47.6398297,115.743336 47.1222301,116.179743 46.5163636,116.180293 C45.9055718,116.238006 45.2899707,115.521408 45.3092082,114.88176 C45.3466306,114.203063 45.8993587,113.667084 46.5788856,113.650557 C47.2993057,113.76634 47.8075468,114.419493 47.7427566,115.146276 Z" id="Path" fill="#ED7ED9"></path>
            <path d="M40.0477419,99.2175953 C40.8509091,99.2175953 41.538651,99.8909091 41.4424633,100.487273 C41.4091322,101.145371 40.8653928,101.661606 40.2064516,101.660762 C39.860386,101.659558 39.5293422,101.51924 39.2878219,101.271388 C39.0463016,101.023536 38.9145962,100.688972 38.922346,100.342991 C38.9758102,99.744995 39.4497458,99.2710595 40.0477419,99.2175953 Z" id="Path" fill="#ED7ED9"></path>
            <path d="M49.8588856,106.417243 C50.6668622,106.417243 51.378651,107.061701 51.3017009,107.667683 C51.2757319,108.335207 50.7240744,108.861305 50.0560704,108.855601 C49.3644392,108.847922 48.8041611,108.291904 48.7912023,107.600352 C48.8074586,106.996976 49.2603381,106.495137 49.8588856,106.417243 Z" id="Path" fill="#ED7ED9"></path>
            <path d="M32.1892082,120.975249 C31.5416335,120.912132 31.0284765,120.400987 30.9628152,119.753666 C31.0218244,119.068955 31.5886372,118.539514 32.2757771,118.527273 C32.9426858,118.535008 33.482175,119.072365 33.4925513,119.739238 C33.5695015,120.350029 32.8529032,120.975249 32.1892082,120.975249 Z" id="Path" fill="#ED7ED9"></path>
            <path d="M45.2995894,93.1962463 C45.2707331,93.6771848 44.8859824,93.9609384 44.2078592,93.9368915 C43.5297361,93.9128446 42.8035191,93.2539589 42.9045161,92.628739 C42.9121124,92.3417105 43.0398207,92.0710456 43.2565292,91.8826829 C43.4732377,91.6943202 43.7590511,91.6055528 44.0443402,91.6380059 C44.7994135,91.6716716 45.318827,92.2103226 45.2995894,93.1962463 Z" id="Path" fill="#ED7ED9"></path>
            <path d="M29.2218182,55.2550147 C29.2795308,55.9427566 28.793783,56.298651 28.1493255,56.3275073 C27.8446184,56.3502913 27.5442239,56.2449022 27.3205409,56.0367401 C27.0968579,55.828578 26.9701758,55.5365243 26.9710264,55.2309677 C26.95102,54.9142602 27.0633914,54.6034604 27.2813105,54.3727762 C27.4992295,54.142092 27.8031365,54.0122289 28.1204692,54.0141935 C28.4368734,54.016291 28.7375088,54.1526263 28.9475501,54.3892666 C29.1575914,54.625907 29.257285,54.9405976 29.2218182,55.2550147 Z" id="Path" fill="#ED7ED9"></path>
            <path d="M23.6044575,53.2110264 C23.2968268,53.2232114 22.9987949,53.1026051 22.7862168,52.8799042 C22.5736387,52.6572034 22.4670173,52.3538871 22.4934897,52.0471554 C22.4765794,51.7416 22.5940128,51.4439076 22.8149771,51.2321887 C23.0359414,51.0204697 23.3383783,50.9158596 23.6429326,50.9458065 C23.9622347,50.9342645 24.2715034,51.058412 24.4942012,51.287525 C24.716899,51.5166379 24.8322157,51.8293068 24.8116129,52.1481525 C24.7678861,52.77309 24.2299022,53.246773 23.6044575,53.2110264 Z" id="Path" fill="#ED7ED9"></path>
            <path d="M53.1052199,84.4335484 C53.1244951,84.7337262 53.0156778,85.0280153 52.8057507,85.2434426 C52.5958237,85.4588699 52.3044469,85.5752604 52.003871,85.5637537 C51.3849881,85.5810186 50.8692884,85.093311 50.8520235,84.4744282 C50.8347585,83.8555453 51.3224661,83.3398456 51.941349,83.3225806 C52.667566,83.288915 53.0330792,83.6832845 53.1052199,84.4335484 Z" id="Path" fill="#ED7ED9"></path>
            <path d="M73.987566,102.997771 C74.6027201,103.005936 75.0973158,103.50656 75.0980263,104.121768 C75.0987369,104.736976 74.6052989,105.238742 73.9901653,105.248327 C73.3750318,105.257913 72.8661998,104.771764 72.8477419,104.156833 C72.8218492,103.845619 72.9328897,103.538577 73.1518556,103.315915 C73.3708215,103.093254 73.6759628,102.97709 73.987566,102.997771 Z" id="Path" fill="#ED7ED9"></path>
            <path d="M26.4131378,29.7556598 C26.4231372,30.0545258 26.3067769,30.3437782 26.0926005,30.5524629 C25.8784241,30.7611476 25.5862474,30.8699568 25.2877419,30.8521994 C24.997372,30.8730929 24.7119194,30.7688662 24.5033277,30.565788 C24.2947361,30.3627098 24.1829021,30.0801508 24.1960117,29.7893255 C24.1542485,29.4850165 24.2499391,29.1778916 24.4571587,28.9511579 C24.6643784,28.7244243 24.9616752,28.6015541 25.2685044,28.6158358 C25.9995308,28.5869795 26.3554252,29.0102053 26.4131378,29.7556598 Z" id="Path" fill="#ED7ED9"></path>
            <path d="M45.5304399,77.3348974 C45.5238758,77.6310718 45.3940008,77.9110677 45.1721301,78.1073731 C44.9502594,78.3036784 44.6565279,78.3984784 44.3617595,78.368915 C44.0705909,78.376967 43.7898808,78.2601018 43.5904486,78.047803 C43.3910164,77.8355042 43.2919066,77.5480449 43.3181232,77.2579472 C43.2882986,76.9517392 43.3963772,76.6481531 43.6129919,76.429679 C43.8296066,76.2112049 44.1322579,76.1005356 44.4387097,76.1277419 C45.1745455,76.1325513 45.5015836,76.579824 45.5304399,77.3348974 Z" id="Path" fill="#ED7ED9"></path>
            <path d="M53.143695,72.9006452 C53.2206452,72.2129032 53.5621114,71.7704399 54.2883284,71.7752493 C54.5951242,71.7468712 54.8976603,71.8628417 55.1068768,72.0890217 C55.3160933,72.3152017 55.4081737,72.6258436 55.3560117,72.9295015 C55.3770437,73.219471 55.2726951,73.5045347 55.0694293,73.7123993 C54.8661635,73.9202639 54.5835053,74.0309628 54.2931378,74.0164223 C53.5717302,74.0356598 53.2206452,73.5835777 53.143695,72.9006452 Z" id="Path" fill="#ED7ED9"></path>
            <path d="M25.3743109,44.3136657 C25.9881309,44.3425528 26.4652984,44.8584749 26.4462627,45.4726794 C26.4272271,46.0868839 25.9190267,46.5722671 25.3045959,46.5630877 C24.690165,46.5539084 24.1966911,46.0535606 24.1960117,45.4390616 C24.1806364,45.1266903 24.3017672,44.8230555 24.5279334,44.6070438 C24.7540995,44.391032 25.0629747,44.2839673 25.3743109,44.3136657 Z" id="Path" fill="#ED7ED9"></path>
            <path d="M29.5969501,50.3686804 C29.2843402,49.9791202 28.793783,49.6232258 28.7024047,49.1855718 C28.5773607,48.5603519 29.0390616,48.1515543 29.7123754,48.098651 C30.0018284,48.0452794 30.2997858,48.127371 30.5210611,48.3214557 C30.7423363,48.5155403 30.8625711,48.8002528 30.84739,49.0941935 C30.8810557,49.7097947 30.5011144,50.1474487 29.5969501,50.3686804 Z" id="Path" fill="#ED7ED9"></path>
            <path d="M35.4643988,58.9919062 C35.3898303,59.5009839 34.9278552,59.8612397 34.4159531,59.8095015 C34.1261226,59.8249207 33.8439946,59.7130904 33.6434369,59.5032904 C33.4428792,59.2934904 33.3438643,59.0066136 33.3723167,58.7177713 C33.3339318,58.4258628 33.4313506,58.1324516 33.6367059,57.9214702 C33.8420612,57.7104887 34.1327327,57.6051769 34.4255718,57.6356598 C35.0267449,57.6356598 35.4884457,58.0107918 35.4643988,58.9919062 Z" id="Path" fill="#ED7ED9"></path>
            <path d="M31.6794135,43.7076833 C31.573607,44.3232845 31.3139003,44.7417009 30.5780645,44.7128446 C30.2906695,44.7407546 30.006654,44.6333285 29.8096702,44.4222072 C29.6126865,44.2110858 29.5251721,43.9203171 29.5729032,43.6355425 C29.5318443,43.3479365 29.6307368,43.0580308 29.839,42.8554734 C30.0472632,42.652916 30.3398036,42.5621131 30.6261584,42.6111437 C30.9157965,42.6022519 31.1956508,42.7164443 31.3963862,42.925429 C31.5971215,43.1344138 31.6999566,43.4186378 31.6794135,43.7076833 Z" id="Path" fill="#ED7ED9"></path>
            <path d="M61.0262757,101.862757 C61.0068544,102.38522 60.6119501,102.816765 60.0932551,102.882346 C59.8053885,102.926941 59.5136685,102.830112 59.309604,102.622234 C59.1055395,102.414355 59.014129,102.120892 59.0640469,101.8339 C59.2221845,101.359732 59.6094869,100.997767 60.0932551,100.872023 C60.6155935,100.907247 61.022428,101.339246 61.0262757,101.862757 Z" id="Path" fill="#ED7ED9"></path>
            <path d="M51.1814663,100.169853 C51.1946496,100.433185 51.0991596,100.690384 50.9173241,100.881311 C50.7354886,101.072239 50.4832507,101.180154 50.2195894,101.179824 C49.9312733,101.221812 49.6403905,101.122292 49.4382195,100.912492 C49.2360485,100.702691 49.1473658,100.408323 49.2,100.12176 C49.3630032,99.6471756 49.7531249,99.2859518 50.238827,99.1598827 C50.5018743,99.1562723 50.7542223,99.2638782 50.9337212,99.4561984 C51.1132201,99.6485187 51.2031877,99.9076795 51.1814663,100.169853 Z" id="Path" fill="#ED7ED9"></path>
            <path d="M56.2697947,92.7874487 C55.7385648,92.7874487 55.3079179,92.3568018 55.3079179,91.8255718 C55.2717406,91.53632 55.3780009,91.2474747 55.5930043,91.0506271 C55.8080077,90.8537796 56.105083,90.7733487 56.3900293,90.8348387 C56.8588594,91.0086001 57.2068922,91.4092004 57.3134311,91.8977126 C57.2950825,92.1549031 57.1742432,92.3939587 56.9780272,92.5612396 C56.7818112,92.7285205 56.5266491,92.8100191 56.2697947,92.7874487 Z" id="Path" fill="#ED7ED9"></path>
            <path d="M66.7734897,153.092317 C66.4031672,153.020176 65.8741349,152.548856 65.8741349,152.164106 C65.8897538,151.700745 66.2713998,151.334024 66.7350147,151.336891 C67.0668622,151.303226 67.8171261,151.726452 67.8171261,152.217009 C67.8171261,152.707566 67.0668622,153.150029 66.7734897,153.092317 Z" id="Path" fill="#ED7ED9"></path>
            <path d="M58.4003519,139.842463 C58.0348387,139.751085 57.4769501,139.361525 57.4769501,138.880587 C57.4769501,138.399648 58.1117889,138.101466 58.438827,138.087038 C58.7658651,138.07261 59.4920821,138.433314 59.4920821,138.967155 C59.4920821,139.500997 58.6744868,139.914604 58.4003519,139.842463 Z" id="Path" fill="#ED7ED9"></path>
            <path d="M61.2378886,118.830264 C60.7741669,118.824994 60.4010258,118.447564 60.4010557,117.983812 C60.426904,117.496571 60.8134715,117.105869 61.3004106,117.074839 C61.8048934,117.075439 62.230781,117.449891 62.2959531,117.950147 C62.2046207,118.462017 61.7578325,118.833664 61.2378886,118.830264 Z" id="Path" fill="#ED7ED9"></path>
            <path d="M60.5405279,113.530323 C60.179824,113.467801 59.6459824,113.092669 59.6459824,112.621349 C59.6958987,112.179762 60.0418279,111.829857 60.4828152,111.774897 C60.8146628,111.731613 61.5697361,112.034604 61.5697361,112.554018 C61.4770736,113.069501 61.0601801,113.464966 60.5405279,113.530323 Z" id="Path" fill="#ED7ED9"></path>
            <path d="M33.2713196,152.712375 C33.2713196,153.193314 32.7038123,153.453021 32.3671554,153.505924 C32.1000773,153.554496 31.8261649,153.468938 31.6342144,153.276988 C31.442264,153.085037 31.3567068,152.811125 31.4052786,152.544047 C31.5484505,152.118799 31.9666222,151.849033 32.4130747,151.893908 C32.8595273,151.938784 33.2156447,152.286378 33.2713196,152.731613 L33.2713196,152.712375 Z" id="Path" fill="#ED7ED9"></path>
            <path d="M65.5855718,147.864516 C65.5855718,148.316598 64.8160704,148.802346 64.5515543,148.744633 C64.100954,148.697463 63.7587621,148.317579 63.7587621,147.864516 C63.7587621,147.411454 64.100954,147.03157 64.5515543,146.984399 C64.8401173,146.931496 65.5855718,147.412434 65.5855718,147.864516 Z" id="Path" fill="#ED7ED9"></path>
            <path d="M32.4825806,147.67695 C32.4825806,148.297361 31.6794135,148.638827 31.4148974,148.557067 C30.928822,148.547771 30.5423165,148.146193 30.551613,147.660117 C30.5609095,147.174042 30.9624877,146.787536 31.448563,146.796833 C31.7419355,146.74393 32.4825806,147.05654 32.4825806,147.67695 Z" id="Path" fill="#ED7ED9"></path>
            <path d="M62.9019355,143.132082 C62.9019355,143.574545 62.1468622,144.093959 61.882346,144.012199 C61.4451669,143.937929 61.1154171,143.57441 61.0839883,143.132082 C61.120266,142.672666 61.4772968,142.303532 61.9352493,142.251965 C62.2045748,142.203871 62.9019355,142.694428 62.9019355,143.132082 Z" id="Path" fill="#ED7ED9"></path>
            <path d="M30.972434,140.669677 C30.972434,141.251613 30.1644575,141.631554 29.8999413,141.549795 C29.52,141.458416 29.0582991,141.246804 29.0582991,140.669677 C29.096408,140.202108 29.4662538,139.83023 29.933607,139.78956 C30.2029326,139.736657 30.972434,140.092551 30.972434,140.669677 Z" id="Path" fill="#ED7ED9"></path>
            <path d="M69.0531378,113.790029 C69.0531378,114.371965 68.2259238,114.727859 67.9565982,114.665337 C67.5766569,114.578768 66.9610557,114.319062 66.9610557,113.775601 C66.9610557,113.232141 67.5958944,112.986862 67.9758358,112.909912 C68.2451613,112.852199 69.0531378,113.203284 69.0531378,113.790029 Z" id="Path" fill="#ED7ED9"></path>
            <path d="M60.3433431,136.057478 C59.8720763,135.995107 59.5056387,135.61672 59.4584164,135.143695 C59.4584164,134.71085 59.9682111,134.340528 60.3000587,134.302053 C60.6319062,134.263578 61.3821701,134.624282 61.3821701,135.090792 C61.2724946,135.598768 60.8578861,135.984584 60.3433431,136.057478 Z" id="Path" fill="#ED7ED9"></path>
            <path d="M32.4441056,134.797419 C32.362919,135.287821 31.9499246,135.654705 31.4533724,135.677537 C31.0029611,135.617516 30.6559909,135.25049 30.621349,134.797419 C30.6434799,134.355549 30.9728989,133.989974 31.410088,133.922111 C31.6746041,133.85478 32.4441056,134.263578 32.4441056,134.797419 Z" id="Path" fill="#ED7ED9"></path>
            <path d="M57.3326686,123.822405 C57.291894,124.305288 56.8982616,124.682433 56.4140762,124.702522 C55.963476,124.655351 55.6212841,124.275467 55.6212841,123.822405 C55.6212841,123.369342 55.963476,122.989458 56.4140762,122.942287 C56.8982616,122.962376 57.291894,123.339521 57.3326686,123.822405 Z" id="Path" fill="#ED7ED9"></path>
            <path d="M32.5162463,126.967742 C32.0871545,126.825691 31.7547979,126.482555 31.6265103,126.04915 C31.5880352,125.803871 32.1411144,125.245982 32.4729619,125.207507 C32.8048094,125.169032 33.5550733,125.558592 33.5550733,125.981818 C33.5550733,126.405044 32.8144282,127.025455 32.5162463,126.967742 Z" id="Path" fill="#ED7ED9"></path>
            <path d="M58.4195894,130.26217 C58.4195894,130.863343 57.587566,131.224047 57.3230499,131.137478 C56.9083441,131.042656 56.6051798,130.686683 56.5775953,130.26217 C56.6332439,129.818706 56.9699775,129.462508 57.4096188,129.382053 C57.6789443,129.338768 58.4195894,129.656188 58.4195894,130.26217 Z" id="Path" fill="#ED7ED9"></path>
            <path d="M30.0346041,129.694663 C30.0346041,130.228504 29.2025806,130.65654 28.9380645,130.569971 C28.506772,130.488443 28.1813147,130.131617 28.1397067,129.694663 C28.1992398,129.240835 28.5526137,128.881571 29.0053959,128.814545 C29.2747214,128.766452 30.0346041,129.160821 30.0346041,129.694663 Z" id="Path" fill="#ED7ED9"></path>
            <path d="M124.428387,48.8777713 C124.340396,50.6916906 122.82956,52.1088976 121.013724,52.0808211 C120.327163,52.0851049 119.668461,51.809617 119.189372,51.3178253 C118.710284,50.8260335 118.452124,50.1603493 118.47437,49.4741349 C118.47437,47.4397654 119.532434,46.3432258 121.523519,46.3432258 C123.514604,46.3432258 124.438006,47.1896774 124.428387,48.8777713 Z" id="pupil" fill="#794C84"></path>
        </g>
    </g>
</svg>